SplineFontDB: 2.0
FontName: THBaijam-BoldItalic
FullName: THBaijam-BoldItalic
FamilyName: TH Baijam
Weight: Bold
Copyright: Copyright (c) 2006 by Department of Intellectual Property (DIP), Ministry of Commerce and Software Industry Promotion Agency (Public Organization) (SIPA). All rights reserved.
Version: 1.1
ItalicAngle: -12
UnderlinePosition: -35
UnderlineWidth: 30
Ascent: 800
Descent: 200
XUID: [1021 375 425136265 3687687]
FSType: 0
OS2Version: 3
OS2_WeightWidthSlopeOnly: 0
OS2_UseTypoMetrics: 1
CreationTime: 1154329018
ModificationTime: 1204863077
PfmFamily: 17
TTFWeight: 700
TTFWidth: 5
LineGap: 30
VLineGap: 0
Panose: 2 0 5 6 0 0 0 2 0 4
OS2TypoAscent: 0
OS2TypoAOffset: 1
OS2TypoDescent: 0
OS2TypoDOffset: 1
OS2TypoLinegap: 0
OS2WinAscent: 0
OS2WinAOffset: 1
OS2WinDescent: -104
OS2WinDOffset: 1
HheadAscent: 0
HheadAOffset: 1
HheadDescent: 104
HheadDOffset: 1
OS2SubXSize: 700
OS2SubYSize: 650
OS2SubXOff: 0
OS2SubYOff: 140
OS2SupXSize: 700
OS2SupYSize: 650
OS2SupXOff: 0
OS2SupYOff: 477
OS2StrikeYSize: 30
OS2StrikeYPos: 250
OS2FamilyClass: 773
OS2Vendor: 'IPTH'
Lookup: 4 0 0 "'frac' Diagonal Fractions in Latin lookup 0"  {"'frac' Diagonal Fractions in Latin lookup 0 subtable"  } ['frac' ('latn' <'dflt' > ) ]
Lookup: 6 0 0 "'liga' Standard Ligatures in Latin lookup 1"  {"'liga' Standard Ligatures in Latin lookup 1 subtable"  } ['liga' ('latn' <'dflt' > ) ]
Lookup: 6 0 0 "'liga' Standard Ligatures in Latin lookup 2"  {"'liga' Standard Ligatures in Latin lookup 2 subtable"  } ['liga' ('latn' <'dflt' > ) ]
Lookup: 6 0 0 "'liga' Standard Ligatures in Latin lookup 3"  {"'liga' Standard Ligatures in Latin lookup 3 subtable"  } ['liga' ('latn' <'dflt' > ) ]
Lookup: 6 0 0 "'liga' Standard Ligatures in Latin lookup 4"  {"'liga' Standard Ligatures in Latin lookup 4 subtable"  } ['liga' ('latn' <'dflt' > ) ]
Lookup: 6 0 0 "'liga' Standard Ligatures in Latin lookup 5"  {"'liga' Standard Ligatures in Latin lookup 5 subtable"  } ['liga' ('latn' <'dflt' > ) ]

StartChar: .notdef
Encoding: 65536 -1 0
Width: 813
VWidth: 1507
Flags: W
HStem: 0 103<229 615> 971 98<413 799>
Fore
615 103 m 1
 799 971 l 1
 413 971 l 1
 229 103 l 1
 615 103 l 1
713 0 m 1
 90 0 l 1
 317 1069 l 1
 939 1069 l 1
 713 0 l 1
EndSplineSet
EndChar
StartChar: numbersign
Encoding: 35 35 4
Width: 713
VWidth: 1507
Flags: W
HStem: 0 21G<173 284.162 437 547.061> 197 85<110 214 339 478 601 695> 464 86<167 271 396 535 659 752>
Fore
478 197 m 1
 321 197 l 1
 280 0 l 1
 173 0 l 1
 214 197 l 1
 92 197 l 1
 110 282 l 1
 232 282 l 1
 271 464 l 1
 149 464 l 1
 167 550 l 1
 289 550 l 1
 327 730 l 1
 434 730 l 1
 396 550 l 1
 553 550 l 1
 591 730 l 1
 696 730 l 1
 659 550 l 1
 770 550 l 1
 752 464 l 1
 641 464 l 1
 601 282 l 1
 713 282 l 1
 695 197 l 1
 583 197 l 1
 543 0 l 1
 437 0 l 1
 478 197 l 1
339 282 m 1
 496 282 l 1
 535 464 l 1
 378 464 l 1
 339 282 l 1
EndSplineSet
EndChar
StartChar: dollar
Encoding: 36 36 5
Width: 595
VWidth: 1507
Flags: W
HStem: 0 90<178.189 250 375 389.445> 641 89<325.125 386 511 546.342>
VStem: 51 112<104.522 161.027 159.601 162.454 162.454 173> 156 111<463.401 588.564> 496 113<152.794 269.861> 556 112<556 568.523 568.523 569.66 569.091 627.798>
Fore
609 241 m 0xc8
 609 96 465 0 357 0 c 1
 339 -78 l 1
 232 -78 l 1
 250 0 l 1
 213 0 l 2
 116 0 51 53 51 134 c 0
 51 146 53 159 56 173 c 1
 166 173 l 1
 164 165 163 158 163 152 c 0xe8
 163 102 204 90 231 90 c 2
 268 90 l 1
 323 345 l 1
 256 374 l 2
 215 394 156 429 156 513 c 0
 156 635 283 730 404 730 c 1
 421 805 l 1
 528 805 l 1
 511 730 l 1
 610 730 672 676 672 596 c 0
 672 583 671 570 668 556 c 1
 556 556 l 1xd4
 558 565 559 573 559 581 c 0
 559 620 531 641 493 641 c 1
 440 393 l 1
 506 363 l 2
 538 348 609 314 609 241 c 0xc8
421 301 m 1
 375 90 l 1
 389 90 496 122 496 220 c 0
 496 267 468 277 421 301 c 1
386 641 m 1
 356 641 267 616 267 514 c 0xd0
 267 453 307 458 342 437 c 1
 386 641 l 1
EndSplineSet
EndChar
StartChar: percent
Encoding: 37 37 6
Width: 943
VWidth: 1507
Flags: MW
HStem: 6 84<649.263 678 684 727.04> 288 84<733 739 739 749.5> 324 86<263.263 292 298 342.061> 608 84<305.595 347 353 383.64> 734 20G<752.219 876>
VStem: 155 108<381.266 434.644 425.788 443.5 443.5 451 451 452.827> 384 108<576.782 627.67> 541 108<68.7656 122.695> 770 108<257.305 308.67>
Fore
361 466 m 2
 355 436 326 410 298 410 c 2
 292 410 l 2
 273 410 263 419 263 436 c 0
 263 441 264 446 265 451 c 2
 286 549 l 2
 292 580 319 608 347 608 c 2
 353 608 l 2
 374 608 384 599 384 581 c 0
 384 578 384 574 383 570 c 2
 361 466 l 2
192 -24 m 1
 767 754 l 1
 876 754 l 1
 304 -24 l 1
 192 -24 l 1
489 583 m 2
 491 591 492 601 492 611 c 0
 492 648 473 692 384 692 c 2
 347 692 l 2
 281 692 200 634 184 561 c 2
 158 436 l 2
 156 425 155 415 155 406 c 0
 155 352 193 324 260 324 c 2
 295 324 l 2
 374 324 448 390 462 454 c 2
 489 583 l 2
875 264 m 2
 877 273 878 282 878 293 c 0
 878 330 859 372 769 372 c 2
 733 372 l 2
 653 372 584 300 571 241 c 2
 544 115 l 2
 542 107 541 98 541 89 c 0
 541 47 565 6 646 6 c 2
 679 6 l 2
 760 6 834 70 847 134 c 2
 875 264 l 2
747 146 m 2
 741 116 712 90 684 90 c 2
 678 90 l 2
 659 90 649 99 649 116 c 0
 649 121 650 126 651 131 c 2
 672 229 l 2
 678 260 705 288 733 288 c 2
 739 288 l 2
 760 288 770 279 770 261 c 0
 770 258 770 254 769 250 c 2
 747 146 l 2
EndSplineSet
EndChar
StartChar: ampersand
Encoding: 38 38 7
Width: 711
VWidth: 1507
Flags: W
HStem: -9 90<230.339 352.791> 644 86<405.484 539.854>
VStem: 85 114<115.26 176.75 173 180.5 180.5 205> 242 112<490.538 566.332> 543 109<529.679 567 567 587.5 587.5 596.023 591.762 635.864>
Fore
531 229 m 1
 550 259 568 298 577 338 c 1
 689 338 l 1
 672 260 627 189 589 143 c 1
 684 0 l 1
 558 2 l 1
 540 20 524 44 510 66 c 1
 450 21 380 -9 304 -9 c 2
 259 -9 l 2
 171 -9 85 67 85 158 c 0
 85 168 86 178 88 188 c 2
 95 222 l 2
 112 299 201 362 290 402 c 1
 275 425 l 2
 249 462 242 491 242 514 c 0
 242 524 243 533 245 540 c 2
 247 550 l 2
 270 657 381 730 481 730 c 2
 521 730 l 2
 604 730 658 679 658 610 c 0
 658 601 657 592 655 582 c 2
 652 567 l 2
 635 491 569 430 434 378 c 1
 463 337 466 327 487 294 c 2
 531 229 l 1
200 188 m 2
 199 183 199 178 199 173 c 0
 199 129 237 81 278 81 c 2
 323 81 l 2
 348 81 395 88 461 146 c 1
 333 336 l 1
 230 284 212 245 207 222 c 2
 200 188 l 2
463 644 m 2
 389 644 354 564 354 531 c 0
 354 513 364 487 389 448 c 1
 390 448 l 1
 411 457 l 2
 526 503 538 545 543 567 c 2
 545 580 l 2
 546 585 547 590 547 595 c 0
 547 624 527 644 500 644 c 2
 463 644 l 2
EndSplineSet
EndChar
StartChar: quotesingle
Encoding: 39 39 8
Width: 214
VWidth: 1507
Flags: W
HStem: 535 241<208 271 208 271 208 208>
Fore
208 776 m 1
 323 776 l 1
 271 535 l 1
 157 535 l 1
 208 776 l 1
EndSplineSet
EndChar
StartChar: parenleft
Encoding: 40 40 9
Width: 361
VWidth: 1507
Flags: W
VStem: 101 111<-51.7056 278.098>
Fore
212 123 m 0
 212 -8 251 -127 285 -205 c 1
 167 -205 l 1
 118 -90 101 21 101 107 c 0
 101 178 109 443 365 730 c 1
 484 730 l 1
 229 450 212 207 212 123 c 0
EndSplineSet
EndChar
StartChar: parenright
Encoding: 41 41 10
Width: 361
VWidth: 1507
Flags: W
VStem: 282 112<250.567 585.069>
Fore
394 435 m 0
 394 179 268 -39 128 -205 c 1
 11 -205 l 1
 264 94 282 305 282 421 c 0
 282 547 242 657 207 730 c 1
 326 730 l 1
 377 623 394 523 394 435 c 0
EndSplineSet
EndChar
StartChar: asterisk
Encoding: 42 42 11
Width: 515
VWidth: 1507
Flags: W
HStem: 448 401<381 392>
VStem: 164 446<580 719 466.403 580>
Fore
354 718 m 1
 381 849 l 1
 476 849 l 1
 449 719 l 1
 580 785 l 1
 610 719 l 1
 470 648 l 1
 580 579 l 1
 523 510 l 1
 418 574 l 1
 392 448 l 1
 297 448 l 1
 324 576 l 1
 193 511 l 1
 164 580 l 1
 301 648 l 1
 193 716 l 1
 250 784 l 1
 354 718 l 1
EndSplineSet
EndChar
StartChar: plus
Encoding: 43 43 12
Width: 624
VWidth: 1507
Flags: MW
HStem: 297 86<128 317 442 629>
Fore
424 297 m 1
 381 98 l 1
 274 98 l 1
 317 297 l 1
 110 297 l 1
 128 383 l 1
 335 383 l 1
 377 580 l 1
 484 580 l 1
 442 383 l 1
 647 383 l 1
 629 297 l 1
 424 297 l 1
EndSplineSet
EndChar
StartChar: comma
Encoding: 44 44 13
Width: 260
VWidth: 1507
Flags: W
HStem: -130 246<33 116 116 116>
VStem: -2 222<-59 116 -59 -59>
Fore
116 116 m 1
 220 116 l 1
 210 65 l 2
 195 8 165 -47 110 -82 c 2
 33 -130 l 1
 -2 -59 l 1
 32 -35 l 2
 86 1 97 30 106 65 c 2
 116 116 l 1
EndSplineSet
EndChar
StartChar: hyphen
Encoding: 45 45 14
Width: 393
VWidth: 1507
Flags: W
HStem: 279 92<112 412 92 431 112 112>
Fore
92 279 m 1
 112 371 l 1
 431 371 l 1
 412 279 l 1
 92 279 l 1
EndSplineSet
EndChar
StartChar: period
Encoding: 46 46 15
Width: 304
VWidth: 1507
Flags: W
HStem: -8 127<117.929 213.922>
VStem: 91 153<22.3482 93.0782>
Fore
91 41 m 0
 91 72 116 119 179 119 c 256
 218 119 244 99 244 70 c 0
 244 39 211 -8 152 -8 c 256
 104 -8 91 21 91 41 c 0
EndSplineSet
EndChar
StartChar: slash
Encoding: 47 47 16
Width: 495
VWidth: 1507
Flags: W
HStem: 734 20G<537.27 662>
Fore
-21 -24 m 1
 552 754 l 1
 662 754 l 1
 90 -24 l 1
 -21 -24 l 1
EndSplineSet
EndChar
StartChar: zero
Encoding: 48 48 17
Width: 624
VWidth: 1507
Flags: W
HStem: -8 83<224.894 389.963> 656 83<378.163 544.173>
VStem: 81 112<106.934 198.792 196.458 201.125 201.125 214 214 230.291> 574 110<503.728 520 520 532.652 532.652 537.513 535.083 625.303>
Fore
274 -8 m 2
 110 -8 81 93 81 157 c 0
 81 175 83 194 87 214 c 2
 142 470 l 2
 166 591 307 739 452 739 c 2
 495 739 l 2
 659 739 690 641 690 576 c 0
 690 559 688 540 684 520 c 2
 627 255 l 2
 601 124 454 -8 309 -8 c 2
 274 -8 l 2
578 557 m 0
 578 602 558 656 478 656 c 2
 452 656 l 2
 362 656 267 554 252 470 c 2
 197 214 l 2
 194 201 193 188 193 177 c 0
 193 129 213 75 291 75 c 2
 317 75 l 2
 408 75 503 180 517 255 c 2
 574 520 l 2
 577 533 578 545 578 557 c 0
EndSplineSet
EndChar
StartChar: one
Encoding: 49 49 18
Width: 428
VWidth: 1507
Flags: MW
HStem: 0 21G<208 322.219>
Fore
161 570 m 1
 240 570 339 638 362 730 c 1
 472 730 l 1
 318 0 l 1
 208 0 l 1
 318 523 l 1
 257 492 178 488 143 487 c 1
 161 570 l 1
EndSplineSet
EndChar
StartChar: two
Encoding: 50 50 19
Width: 634
VWidth: 1507
Flags: W
HStem: 0 83<175 583> 668 83<370.037 549.02>
VStem: 580 112<498.999 641.664>
Fore
193 633 m 1
 255 691 351 751 469 751 c 2
 491 751 l 2
 663 751 692 657 692 595 c 0
 692 461 602 405 549 371 c 2
 252 187 l 2
 240 180 194 153 175 83 c 1
 600 83 l 1
 583 0 l 1
 42 0 l 1
 59 78 l 2
 76 154 126 213 185 250 c 2
 522 460 l 2
 535 467 580 507 580 578 c 0
 580 638 547 668 478 668 c 2
 452 668 l 2
 376 668 298 607 261 573 c 1
 193 633 l 1
EndSplineSet
EndChar
StartChar: three
Encoding: 51 51 20
Width: 642
VWidth: 1507
Flags: W
HStem: -6 83<233.531 398.87> 380 83<301 502.346> 668 83<350.716 531.498>
VStem: 536 113<204.276 345.616> 561 113<502.14 642.113>
Fore
142 193 m 1xf0
 197 107 250 77 312 77 c 0
 424 77 536 185 536 281 c 0xf0
 536 344 491 380 443 380 c 2
 283 380 l 1
 301 463 l 1
 467 463 l 2
 502 466 561 487 561 581 c 0
 561 639 527 668 460 668 c 2
 433 668 l 2
 356 668 276 604 241 573 c 1
 175 633 l 1
 236 691 332 751 449 751 c 2
 475 751 l 2
 642 751 674 657 674 595 c 0xe8
 674 493 617 443 594 425 c 1
 632 390 649 343 649 294 c 0
 649 162 511 -6 294 -6 c 0
 170 -6 102 38 50 128 c 1
 142 193 l 1xf0
EndSplineSet
EndChar
StartChar: four
Encoding: 52 52 21
Width: 639
VWidth: 1507
Flags: W
HStem: 0 21G<395 509.11> 146 83<226 425 553 630>
Fore
395 0 m 1
 425 146 l 1
 163 146 l 2
 112 146 87 165 87 202 c 0
 87 208 88 215 89 222 c 1
 556 730 l 1
 659 730 l 1
 553 229 l 1
 648 229 l 1
 630 146 l 1
 535 146 l 1
 505 0 l 1
 395 0 l 1
510 541 m 1
 226 229 l 1
 443 229 l 1
 510 541 l 1
EndSplineSet
EndChar
StartChar: five
Encoding: 53 53 22
Width: 657
VWidth: 1507
Flags: W
HStem: -6 83<247.835 413.988> 380 83<317 515.025> 648 82<356 704>
VStem: 551 113<206.798 344.969>
Fore
551 281 m 0
 551 344 506 380 458 380 c 2
 187 380 l 1
 261 730 l 1
 721 730 l 1
 704 648 l 1
 356 648 l 1
 317 463 l 1
 496 463 l 2
 600 463 664 386 664 295 c 0
 664 157 520 -6 311 -6 c 0
 188 -6 119 39 68 128 c 1
 158 193 l 1
 216 103 270 77 329 77 c 0
 440 77 551 185 551 281 c 0
EndSplineSet
EndChar
StartChar: six
Encoding: 54 54 23
Width: 649
VWidth: 1507
Flags: W
HStem: -6 83<243.328 418.458> 384 83<339.652 516.799> 614 21G<588.5 634.231> 668 83<414.492 548.978>
VStem: 98 118<102.571 239.174> 546 113<259 272.21 272.21 275.894 274.052 357.642>
Fore
245 407 m 1
 294 447 347 467 419 467 c 2
 459 467 l 2
 610 467 659 399 659 315 c 0
 659 297 657 278 653 259 c 2
 651 249 l 2
 622 115 478 -6 332 -6 c 2
 299 -6 l 2
 155 -6 98 69 98 187 c 0
 98 220 103 257 111 297 c 2
 145 455 l 2
 179 614 345 751 520 751 c 0
 589 751 645 731 690 692 c 1
 615 614 l 1
 562 659 527 668 502 668 c 0
 398 668 281 579 255 457 c 2
 245 407 l 1
418 384 m 2
 325 384 216 286 216 167 c 0
 216 119 238 77 314 77 c 2
 342 77 l 2
 420 77 520 156 540 249 c 2
 542 259 l 2
 545 273 546 285 546 297 c 0
 546 353 513 384 445 384 c 2
 418 384 l 2
EndSplineSet
EndChar
StartChar: seven
Encoding: 55 55 24
Width: 602
VWidth: 1507
Flags: W
HStem: 0 21G<181 302.5> 650 83<185 565>
VStem: 181 113<23.7723 177.242>
Fore
185 733 m 1
 721 733 l 1
 708 674 l 1
 384 217 l 2
 345 157 311 79 294 0 c 1
 181 0 l 1
 220 139 245 185 271 225 c 0
 287 250 369 371 436 467 c 2
 565 650 l 1
 167 650 l 1
 185 733 l 1
EndSplineSet
EndChar
StartChar: eight
Encoding: 56 56 25
Width: 643
VWidth: 1507
Flags: W
HStem: -8 83<222.364 409.159> 353 83<345.133 491.117> 657 83<383.558 548.725>
VStem: 77 112<107.14 237.449> 177 114<454.905 565.806> 531 113<179.173 314.007> 571 115<509.37 635.35>
Fore
502 740 m 2xe8
 658 740 686 653 686 594 c 0xea
 686 543 672 506 639 466 c 0
 617 440 594 418 570 401 c 1
 618 371 644 318 644 263 c 0
 644 156 542 -8 294 -8 c 2
 274 -8 l 2
 158 -8 77 55 77 150 c 0xf4
 77 260 171 347 226 384 c 1
 180 422 177 465 177 482 c 0
 177 609 318 740 463 740 c 2
 502 740 l 2xe8
387 353 m 2
 306 353 189 259 189 165 c 0xf4
 189 108 232 75 291 75 c 2
 311 75 l 2
 446 75 531 168 531 251 c 0xec
 531 309 483 353 439 353 c 2
 387 353 l 2
291 499 m 0xea
 291 449 346 436 368 436 c 2
 422 436 l 2
 472 438 571 484 571 578 c 0
 571 614 554 657 484 657 c 2
 461 657 l 2
 367 657 291 570 291 499 c 0xea
EndSplineSet
EndChar
StartChar: nine
Encoding: 57 57 26
Width: 643
VWidth: 1507
Flags: W
HStem: -6 83<249.343 384.194> 279 83<278.183 458.162> 668 83<382.439 551.564>
VStem: 139 112<387.137 535.38> 582 118<503.2 638.068>
Fore
139 431 m 0
 139 609 316 751 464 751 c 2
 499 751 l 2
 652 751 700 666 700 557 c 0
 700 523 695 485 687 448 c 2
 653 288 l 2
 619 129 458 -6 278 -6 c 0
 205 -6 150 19 107 53 c 1
 185 130 l 1
 236 86 271 77 295 77 c 0
 400 77 516 166 542 288 c 2
 552 336 l 1
 501 298 443 279 380 279 c 2
 338 279 l 2
 213 279 139 329 139 431 c 0
457 668 m 2
 367 668 251 566 251 447 c 0
 251 390 285 362 354 362 c 2
 380 362 l 2
 480 362 582 466 582 573 c 0
 582 621 560 668 483 668 c 2
 457 668 l 2
EndSplineSet
EndChar
StartChar: colon
Encoding: 58 58 27
Width: 334
VWidth: 1507
Flags: W
HStem: 26 129<146.431 238.668> 392 128<224.013 317.084>
VStem: 116 153<55.6689 124.652> 194 153<421.485 490.337>
Fore
116 77 m 0xe0
 116 108 149 155 205 155 c 0
 252 155 269 124 269 103 c 0
 269 68 231 26 178 26 c 0
 133 26 116 57 116 77 c 0xe0
194 442 m 0xd0
 194 482 236 520 283 520 c 0
 331 520 347 489 347 469 c 0
 347 430 306 392 256 392 c 0
 209 392 194 426 194 442 c 0xd0
EndSplineSet
EndChar
StartChar: semicolon
Encoding: 59 59 28
Width: 334
VWidth: 1507
Flags: W
HStem: 392 128<224.013 317.028>
VStem: 194 152<420.189 490.337>
Fore
194 442 m 0
 194 482 236 520 283 520 c 0
 332 520 346 489 346 469 c 0
 346 430 307 392 256 392 c 0
 209 392 194 426 194 442 c 0
167 164 m 1
 271 164 l 1
 259 112 l 2
 235 -9 150 -40 84 -81 c 1
 47 -11 l 1
 88 25 136 28 155 112 c 2
 167 164 l 1
EndSplineSet
EndChar
StartChar: less
Encoding: 60 60 29
Width: 673
VWidth: 1507
Flags: W
Fore
758 647 m 1
 737 547 l 1
 276 309 l 1
 636 72 l 1
 615 -26 l 1
 99 309 l 1
 758 647 l 1
EndSplineSet
EndChar
StartChar: equal
Encoding: 61 61 30
Width: 574
VWidth: 1507
Flags: W
HStem: 182 92<92 546> 374 92<133 586>
Fore
72 182 m 1
 92 274 l 1
 565 274 l 1
 546 182 l 1
 72 182 l 1
113 374 m 1
 133 466 l 1
 606 466 l 1
 586 374 l 1
 113 374 l 1
EndSplineSet
EndChar
StartChar: greater
Encoding: 62 62 31
Width: 675
VWidth: 1507
Flags: W
Fore
693 309 m 1
 36 -26 l 1
 57 72 l 1
 516 309 l 1
 158 547 l 1
 179 647 l 1
 693 309 l 1
EndSplineSet
EndChar
StartChar: question
Encoding: 63 63 32
Width: 586
VWidth: 1507
Flags: W
HStem: -8 127<214.029 309.195> 644 89<257.465 505.175>
VStem: 186 151<19.4087 91.2844> 538 112<489.871 610.423>
Fore
337 69 m 0
 337 25 294 -8 248 -8 c 256
 213 -8 186 12 186 44 c 0
 186 81 223 119 275 119 c 256
 311 119 337 99 337 69 c 0
342 644 m 2
 283 644 220 608 183 577 c 1
 156 668 l 1
 186 694 255 733 361 733 c 2
 447 733 l 2
 554 733 650 683 650 576 c 0
 650 427 495 361 422 333 c 0
 387 319 360 283 349 232 c 2
 335 163 l 1
 225 163 l 1
 239 232 l 2
 263 344 369 401 416 419 c 0
 462 439 538 475 538 557 c 0
 538 619 482 644 428 644 c 2
 342 644 l 2
EndSplineSet
EndChar
StartChar: at
Encoding: 64 64 33
Width: 975
VWidth: 1507
Flags: W
HStem: -26 83<269.844 609.428> 137 82<406.313 568.373 727.478 802.455> 508 81<478.359 635.798> 674 84<439.517 842.26>
VStem: 104 105<119.137 218.49 218.012 218.969 218.969 231 235 247.722> 292 104<228.315 276.75 273 280.5 280.5 304.615> 897 102<483.717 494 500 510.866 510.866 512.988 511.927 614.917>
Fore
396 272 m 0
 396 242 417 219 448 219 c 2
 500 219 l 2
 558 219 606 262 620 315 c 2
 647 443 l 1
 647 451 l 2
 647 483 625 508 592 508 c 2
 541 508 l 2
 483 508 435 460 424 405 c 2
 398 289 l 2
 397 283 396 278 396 272 c 0
576 57 m 2
 609 57 666 68 742 118 c 1
 779 44 l 1
 723 9 644 -26 555 -26 c 2
 335 -26 l 2
 202 -26 104 57 104 181 c 0
 104 199 106 217 110 235 c 2
 154 443 l 2
 186 606 358 758 556 758 c 2
 775 758 l 2
 933 758 1005 651 1005 549 c 0
 1005 532 1003 513 999 494 c 2
 978 392 l 2
 951 268 895 142 742 142 c 0
 680 142 649 175 639 188 c 1
 589 149 525 137 484 137 c 2
 431 137 l 2
 339 137 292 196 292 257 c 0
 292 268 293 278 295 289 c 2
 321 405 l 2
 345 513 448 589 559 589 c 2
 610 589 l 2
 637 589 658 586 675 579 c 1
 678 589 l 1
 778 589 l 1
 719 317 l 2
 717 306 715 295 715 285 c 0
 715 257 724 226 761 226 c 0
 790 226 814 243 832 275 c 0
 850 308 864 347 874 393 c 2
 897 500 l 2
 900 513 901 526 901 538 c 0
 901 620 844 674 763 674 c 2
 537 674 l 2
 406 674 284 569 258 446 c 2
 213 231 l 2
 210 218 209 205 209 193 c 0
 209 125 256 57 347 57 c 2
 576 57 l 2
EndSplineSet
EndChar
StartChar: A
Encoding: 65 65 34
Width: 850
VWidth: 1507
Flags: W
HStem: 0 21G<24 171 691.1 817> 200 83<333 625> 720 20G<508.541 552.5>
Fore
522 740 m 1
 583 740 633 720 647 678 c 2
 817 0 l 1
 696 0 l 1
 647 200 l 1
 280 200 l 1
 266 180 197 81 145 0 c 1
 24 0 l 1
 522 740 l 1
333 283 m 1
 625 283 l 1
 548 598 l 1
 333 283 l 1
EndSplineSet
EndChar
StartChar: B
Encoding: 66 66 35
Width: 771
VWidth: 1507
Flags: W
HStem: 0 84<187 580.174> 344 83<261 531 586 590.172> 654 83<309 625.889>
VStem: 660 116<168.734 312.539 503.935 618.131>
Fore
660 243 m 0
 660 291 631 344 586 344 c 2
 243 344 l 1
 187 84 l 1
 531 84 l 2
 583 84 660 167 660 243 c 0
654 564 m 0
 654 618 617 654 579 654 c 2
 309 654 l 1
 261 427 l 1
 531 427 l 2
 589 427 654 493 654 564 c 0
146 0 m 2
 101 0 74 33 74 64 c 0
 74 68 74 73 75 77 c 2
 216 737 l 1
 595 737 l 2
 710 737 770 655 770 576 c 0
 770 511 732 455 686 412 c 1
 740 380 776 317 776 253 c 0
 776 133 643 -0 514 0 c 2
 146 0 l 2
EndSplineSet
EndChar
StartChar: C
Encoding: 67 67 36
Width: 762
VWidth: 1507
Flags: W
HStem: -15 84<257.802 502.819> 669 85<416.074 654.252>
VStem: 90 113<128.189 236.994> 657 112<183.379 277> 701 111<500 512.988 512.988 516.866 514.927 617.212>
Fore
604 754 m 2xf0
 747 754 818 659 818 555 c 0
 818 538 816 519 812 500 c 1
 701 500 l 1xe8
 704 513 705 526 705 538 c 0
 705 608 663 669 586 669 c 2
 500 669 l 2
 397 669 275 563 250 442 c 2
 208 244 l 2
 205 232 203 219 203 207 c 0
 203 154 236 69 320 69 c 2
 409 69 l 2
 524 69 634 168 657 277 c 1
 769 277 l 1
 732 106 566 -15 390 -15 c 2
 301 -15 l 2
 162 -15 90 92 90 194 c 0
 90 210 91 227 95 244 c 2
 137 442 l 2
 180 628 363 754 519 754 c 2
 604 754 l 2xf0
EndSplineSet
EndChar
StartChar: D
Encoding: 68 68 37
Width: 794
VWidth: 1507
Flags: W
HStem: 0 84<187 516.706> 654 83<309 672.416>
VStem: 722 114<475.209 491 491 507.134 507.134 509 508.067 602.623>
Fore
617 737 m 2
 740 737 836 658 836 539 c 0
 836 523 834 508 831 491 c 2
 788 297 l 2
 753 129 577 -0 410 0 c 2
 146 0 l 2
 101 0 74 33 74 64 c 0
 74 68 74 73 75 77 c 2
 216 737 l 1
 617 737 l 2
722 527 m 0
 722 599 677 654 600 654 c 2
 309 654 l 1
 187 84 l 1
 427 84 l 2
 532 84 652 176 677 297 c 2
 719 491 l 2
 721 503 722 515 722 527 c 0
EndSplineSet
EndChar
StartChar: E
Encoding: 69 69 38
Width: 762
VWidth: 1507
Flags: W
HStem: 0 84<187 693> 344 83<261 690> 654 83<309 832>
Fore
146 0 m 2
 101 0 74 33 74 64 c 0
 74 68 74 73 75 77 c 2
 216 737 l 1
 849 737 l 1
 832 654 l 1
 309 654 l 1
 261 427 l 1
 708 427 l 1
 690 344 l 1
 243 344 l 1
 187 84 l 1
 710 84 l 1
 693 0 l 1
 146 0 l 2
EndSplineSet
EndChar
StartChar: F
Encoding: 70 70 39
Width: 762
VWidth: 1507
Flags: W
HStem: 0 21G<60 174.244> 344 83<261 690> 654 83<309 832>
Fore
243 344 m 1
 170 0 l 1
 60 0 l 1
 216 737 l 1
 849 737 l 1
 832 654 l 1
 309 654 l 1
 261 427 l 1
 708 427 l 1
 690 344 l 1
 243 344 l 1
EndSplineSet
EndChar
StartChar: G
Encoding: 71 71 40
Width: 762
VWidth: 1507
Flags: W
HStem: -15 84<257.802 503.653> 253 85<448 651> 669 85<416.074 654.252>
VStem: 90 113<128.189 231.2 230.484 231.915 231.915 244 244 260.5> 701 111<500 512.988 512.988 516.866 514.927 617.212>
Fore
203 207 m 0
 203 154 236 69 320 69 c 2
 409 69 l 2
 537 69 630 171 651 253 c 1
 430 253 l 1
 448 338 l 1
 781 338 l 1
 766 265 l 2
 729 103 569 -15 390 -15 c 2
 301 -15 l 2
 162 -15 90 92 90 194 c 0
 90 210 91 227 95 244 c 2
 137 442 l 2
 180 628 363 754 519 754 c 2
 604 754 l 2
 747 754 818 659 818 555 c 0
 818 538 816 519 812 500 c 1
 701 500 l 1
 704 513 705 526 705 538 c 0
 705 608 663 669 586 669 c 2
 500 669 l 2
 397 669 275 563 250 442 c 2
 208 244 l 2
 205 232 203 219 203 207 c 0
EndSplineSet
EndChar
StartChar: H
Encoding: 72 72 41
Width: 762
VWidth: 1507
Flags: W
HStem: 0 21G<60 174.244 583 697.233> 344 83<261 656> 717 20G<211.767 326 734.806 849>
Fore
656 344 m 1
 243 344 l 1
 170 0 l 1
 60 0 l 1
 216 737 l 1
 326 737 l 1
 261 427 l 1
 674 427 l 1
 739 737 l 1
 849 737 l 1
 693 0 l 1
 583 0 l 1
 656 344 l 1
EndSplineSet
EndChar
StartChar: I
Encoding: 73 73 42
Width: 227
VWidth: 1507
Flags: MW
HStem: 0 21G<57 171.233> 717 20G<208.767 323>
Fore
213 737 m 1
 323 737 l 1
 167 0 l 1
 57 0 l 1
 213 737 l 1
EndSplineSet
EndChar
StartChar: J
Encoding: 74 74 43
Width: 666
VWidth: 1507
Flags: W
HStem: -15 92<235.38 393.896> 717 20G<639.763 755>
VStem: 69 113<135.291 241.126 239.321 242.93 242.93 256>
Fore
279 -15 m 0
 145 -15 69 95 69 201 c 0
 69 219 71 237 75 256 c 1
 187 256 l 1
 184 243 182 229 182 216 c 0
 182 154 219 77 298 77 c 0
 400 77 518 149 544 265 c 2
 644 737 l 1
 755 737 l 1
 656 265 l 2
 619 103 458 -15 279 -15 c 0
EndSplineSet
EndChar
StartChar: K
Encoding: 75 75 44
Width: 731
VWidth: 1507
Flags: W
HStem: 0 21G<60 174.272 545.623 707> 717 20G<212.739 327 684.681 867>
Fore
562 0 m 1
 345 265 l 2
 306 307 257 321 239 323 c 1
 170 0 l 1
 60 0 l 1
 217 737 l 1
 327 737 l 1
 265 449 l 1
 716 737 l 1
 867 737 l 1
 338 392 l 1
 369 385 395 371 415 351 c 2
 475 291 l 1
 707 0 l 1
 562 0 l 1
EndSplineSet
EndChar
StartChar: L
Encoding: 76 76 45
Width: 669
VWidth: 1507
Flags: W
HStem: 0 84<187 632> 717 20G<211.727 326>
Fore
146 0 m 2
 101 0 74 33 74 64 c 0
 74 68 74 73 75 77 c 2
 216 737 l 1
 326 737 l 1
 187 84 l 1
 648 84 l 1
 632 0 l 1
 146 0 l 2
EndSplineSet
EndChar
StartChar: M
Encoding: 77 77 46
Width: 948
VWidth: 1507
Flags: W
HStem: 0 21G<62 176.2 766 880.243> 720 20G<214.757 330.037 913.593 1033>
Fore
463 -35 m 1
 277 500 l 1
 172 0 l 1
 62 0 l 1
 219 740 l 1
 323 740 l 1
 513 200 l 1
 929 740 l 1
 1033 740 l 1
 876 0 l 1
 766 0 l 1
 871 497 l 1
 463 -35 l 1
EndSplineSet
EndChar
StartChar: N
Encoding: 78 78 47
Width: 794
VWidth: 1507
Flags: W
HStem: 0 21G<60 174.242 611.093 731.216> 720 20G<212.757 332.729 764.758 883>
Fore
650 179 m 1
 769 740 l 1
 883 740 l 1
 727 0 l 1
 623 0 l 1
 289 561 l 1
 170 0 l 1
 60 0 l 1
 217 740 l 1
 321 740 l 1
 650 179 l 1
EndSplineSet
EndChar
StartChar: O
Encoding: 79 79 48
Width: 764
VWidth: 1507
Flags: W
HStem: -15 84<263.078 494.717> 669 85<420.715 652.777>
VStem: 91 114<128.674 231.507 229.538 233.476 233.476 246 246 261.791> 707 114<475.209 491 491 507.462 507.462 510.023 508.742 610.053>
Fore
607 754 m 2
 739 754 821 655 821 541 c 0
 821 524 819 508 816 491 c 2
 773 297 l 2
 738 129 561 -15 392 -15 c 2
 304 -15 l 2
 174 -15 91 81 91 196 c 0
 91 213 93 229 96 246 c 2
 139 440 l 2
 175 615 357 754 522 754 c 2
 607 754 l 2
205 208 m 0
 205 146 246 69 323 69 c 2
 410 69 l 2
 522 69 639 182 662 297 c 2
 704 491 l 2
 706 504 707 517 707 529 c 0
 707 605 660 669 589 669 c 2
 503 669 l 2
 391 669 275 553 252 440 c 2
 210 246 l 2
 207 233 205 221 205 208 c 0
EndSplineSet
EndChar
StartChar: P
Encoding: 80 80 49
Width: 732
VWidth: 1507
Flags: W
HStem: 0 21G<60 174.244> 344 83<261 630.86> 654 83<309 672.089>
VStem: 700 111<495.137 626.531>
Fore
811 579 m 0
 811 466 700 344 552 344 c 2
 243 344 l 1
 170 0 l 1
 60 0 l 1
 216 737 l 1
 635 737 l 2
 755 737 811 650 811 579 c 0
700 567 m 0
 700 609 672 654 618 654 c 2
 309 654 l 1
 261 427 l 1
 570 427 l 2
 642 427 700 499 700 567 c 0
EndSplineSet
EndChar
StartChar: Q
Encoding: 81 81 50
Width: 762
VWidth: 1507
Flags: W
HStem: -15 84<260.256 493.444> 669 85<419.636 649.298>
VStem: 90 113<129.776 232.964 232.453 233.476 233.476 246 246 262.167> 705 115<497.68 611.369>
Fore
674 116 m 1
 695 87 707 74 728 45 c 1
 639 -24 l 1
 588 45 l 1
 538 13 469 -15 390 -15 c 2
 303 -15 l 2
 166 -15 90 88 90 195 c 0
 90 212 91 229 95 246 c 2
 137 440 l 2
 176 616 354 754 522 754 c 2
 606 754 l 2
 745 754 820 645 820 542 c 0
 820 525 818 508 814 491 c 2
 772 297 l 2
 758 232 725 172 674 116 c 1
203 208 m 0
 203 146 244 69 321 69 c 2
 409 69 l 2
 448 69 488 83 531 112 c 1
 445 222 l 1
 535 291 l 1
 614 191 l 1
 637 224 652 259 660 297 c 2
 702 491 l 2
 704 504 705 517 705 529 c 0
 705 608 657 669 588 669 c 2
 503 669 l 2
 386 669 273 551 250 440 c 2
 208 246 l 2
 205 233 203 221 203 208 c 0
EndSplineSet
EndChar
StartChar: R
Encoding: 82 82 51
Width: 746
VWidth: 1507
Flags: W
HStem: 0 21G<60 176.186 597.753 734> 344 83<262 451.217> 654 83<311 671.891>
VStem: 700 112<496.051 626.172>
Fore
472 292 m 2
 467 300 441 344 421 344 c 2
 244 344 l 1
 172 0 l 1
 60 0 l 1
 216 737 l 1
 635 737 l 2
 737 737 812 668 812 578 c 0
 812 468 710 354 570 344 c 1
 576 331 584 323 591 304 c 2
 734 0 l 1
 607 0 l 1
 472 292 l 2
700 567 m 0
 700 609 672 654 618 654 c 2
 311 654 l 1
 262 427 l 1
 570 427 l 2
 642 427 700 499 700 567 c 0
EndSplineSet
EndChar
StartChar: S
Encoding: 83 83 52
Width: 826
VWidth: 1507
Flags: W
HStem: -15 84<263.334 582.453> 672 83<397.68 698.855>
VStem: 90 114<131.324 232.166 230.321 234.012 234.012 247> 186 115<503.079 590.407> 710 114<177.625 313.675> 739 111<525 540.788 540.788 541.523 541.156 630.102>
Fore
490 69 m 2xe8
 599 69 710 149 710 254 c 0xe8
 710 288 691 332 635 344 c 2
 332 380 l 2
 193 403 186 478 186 502 c 0
 186 693 405 755 499 755 c 2
 657 755 l 2
 773 755 856 684 856 577 c 0
 856 560 854 543 850 525 c 1
 739 525 l 1
 741 536 742 548 742 558 c 0
 742 618 706 672 639 672 c 2
 481 672 l 2
 421 672 301 620 301 533 c 0xd4
 301 521 307 481 369 472 c 2
 668 433 l 2
 807 413 824 324 824 285 c 0
 824 93 640 -15 472 -15 c 2
 315 -15 l 2
 188 -15 90 68 90 192 c 0
 90 210 92 228 96 247 c 1
 208 247 l 1
 205 234 204 221 204 209 c 0
 204 151 240 69 333 69 c 2
 490 69 l 2xe8
EndSplineSet
EndChar
StartChar: T
Encoding: 84 84 53
Width: 637
VWidth: 1507
Flags: W
HStem: 0 21G<261 376.251> 654 83<184 399 511 740>
Fore
399 654 m 1
 167 654 l 1
 184 737 l 1
 757 737 l 1
 740 654 l 1
 511 654 l 1
 372 0 l 1
 261 0 l 1
 399 654 l 1
EndSplineSet
EndChar
StartChar: U
Encoding: 85 85 54
Width: 779
VWidth: 1507
Flags: W
HStem: -15 84<267.888 500.717> 717 20G<202.764 320 758.727 873>
VStem: 97 114<129.892 231.844 230.212 233.476 233.476 246 246 262.524>
Fore
312 -15 m 2
 170 -15 97 91 97 194 c 0
 97 211 99 228 103 246 c 2
 207 737 l 1
 320 737 l 1
 216 246 l 2
 213 233 211 221 211 208 c 0
 211 145 253 69 330 69 c 2
 416 69 l 2
 533 69 646 185 669 297 c 2
 763 737 l 1
 873 737 l 1
 779 297 l 2
 744 129 567 -15 398 -15 c 2
 312 -15 l 2
EndSplineSet
EndChar
StartChar: V
Encoding: 86 86 55
Width: 768
VWidth: 1507
Flags: W
HStem: -8 21G<398 445.295> 717 20G<181 300.618 762.605 891>
Fore
775 737 m 1
 891 737 l 1
 433 -8 l 1
 363 -8 317 9 301 75 c 2
 181 737 l 1
 297 737 l 1
 405 140 l 1
 775 737 l 1
EndSplineSet
EndChar
StartChar: W
Encoding: 87 87 56
Width: 1142
VWidth: 1507
Flags: W
HStem: -8 21G<368.5 418.804 714.859 735.5> 717 20<182 300.715 659.118 705 1129.83 1259>
Fore
409 -8 m 1
 328 -8 287 15 271 75 c 2
 182 737 l 1
 298 737 l 1
 377 155 l 1
 669 746 l 1
 741 746 773 726 779 692 c 2
 816 155 l 1
 1141 737 l 1
 1259 737 l 1
 888 75 l 2
 833 -7 755 -8 716 -8 c 1
 684 553 l 1
 409 -8 l 1
EndSplineSet
EndChar
StartChar: X
Encoding: 88 88 57
Width: 753
VWidth: 1507
Flags: W
HStem: 0 21G<20 173.576 580.622 725> 717 20G<175 320.018 728.211 880>
Fore
154 0 m 1
 20 0 l 1
 381 368 l 1
 175 737 l 1
 309 737 l 1
 466 452 l 1
 748 737 l 1
 880 737 l 1
 516 368 l 1
 725 0 l 1
 592 0 l 1
 431 283 l 1
 154 0 l 1
EndSplineSet
EndChar
StartChar: Y
Encoding: 89 89 58
Width: 734
VWidth: 1507
Flags: W
HStem: 0 21G<306 422.153> 717 20G<175 310.877 717.211 861>
Fore
418 0 m 1
 306 0 l 1
 383 366 l 1
 175 737 l 1
 300 737 l 1
 455 452 l 1
 737 737 l 1
 861 737 l 1
 494 366 l 1
 418 0 l 1
EndSplineSet
EndChar
StartChar: Z
Encoding: 90 90 59
Width: 759
VWidth: 1507
Flags: W
HStem: 0 84<241 695> 654 83<210 668>
Fore
193 654 m 1
 210 737 l 1
 886 737 l 1
 241 84 l 1
 711 84 l 1
 695 0 l 1
 20 0 l 1
 668 654 l 1
 193 654 l 1
EndSplineSet
EndChar
StartChar: bracketleft
Encoding: 91 91 60
Width: 325
VWidth: 1507
Flags: MW
HStem: -213 80<166.031 235> 736 80<348.929 436>
VStem: 24 109<-155.5 -96.5>
Fore
176 -213 m 2
 112 -213 24 -193 24 -118 c 0
 24 -110 25 -101 27 -92 c 2
 193 692 l 2
 210 785 310 816 393 816 c 2
 452 816 l 1
 436 736 l 1
 377 736 l 2
 350 736 309 727 298 687 c 2
 134 -87 l 2
 133 -91 133 -95 133 -98 c 0
 133 -126 172 -133 193 -133 c 2
 252 -133 l 1
 235 -213 l 1
 176 -213 l 2
EndSplineSet
EndChar
StartChar: bracketright
Encoding: 93 93 62
Width: 325
VWidth: 1507
Flags: W
HStem: -213 80<18 105.01> 736 80<219 286.495>
VStem: 318 109<675.47 693 693 704.523 698.762 728.361>
Fore
277 816 m 2
 346 816 429 795 429 717 c 0
 429 709 429 701 427 692 c 2
 261 -92 l 2
 239 -185 140 -213 60 -213 c 2
 2 -213 l 1
 18 -133 l 1
 77 -133 l 2
 104 -133 145 -124 154 -87 c 2
 318 687 l 2
 319 691 319 695 319 699 c 0
 319 730 280 736 261 736 c 2
 202 736 l 1
 219 816 l 1
 277 816 l 2
EndSplineSet
EndChar
StartChar: asciicircum
Encoding: 94 94 63
Width: 737
VWidth: 1507
Flags: W
HStem: 369 450<262 532 532 532>
Fore
493 636 m 1
 262 369 l 1
 149 369 l 1
 532 819 l 1
 730 369 l 1
 617 369 l 1
 493 636 l 1
EndSplineSet
EndChar
StartChar: underscore
Encoding: 95 95 64
Width: 586
VWidth: 1507
Flags: W
HStem: -136 83<-21 559>
Fore
-39 -136 m 1
 -21 -53 l 1
 577 -53 l 1
 559 -136 l 1
 -39 -136 l 1
EndSplineSet
EndChar
StartChar: grave
Encoding: 96 96 65
Width: 360
VWidth: 1507
Flags: W
HStem: 570 190<291 356 291 291>
VStem: 226 193<618 711 711 711>
Fore
226 711 m 1
 291 760 l 1
 419 618 l 1
 356 570 l 1
 226 711 l 1
EndSplineSet
EndChar
StartChar: a
Encoding: 97 97 66
Width: 577
VWidth: 1507
Flags: W
HStem: -8 83<197.574 214 214 364.809> 452 85<300.467 463.855>
VStem: 72 113<83.8027 161.609 161 162.219 162.219 176 176 191.694>
Fore
445 537 m 2
 485 537 486 525 519 502 c 1
 525 529 l 1
 636 529 l 1
 523 -3 l 1
 412 -3 l 1
 421 38 l 1
 396 23 334 -8 276 -8 c 2
 214 -8 l 2
 124 -8 72 54 72 134 c 0
 72 148 74 162 77 176 c 2
 107 315 l 2
 130 431 255 537 383 537 c 2
 445 537 l 2
185 146 m 0
 185 113 194 75 232 75 c 2
 294 75 l 2
 341 75 429 117 457 208 c 2
 485 342 l 2
 486 347 486 351 486 356 c 0
 486 394 468 452 427 452 c 2
 365 452 l 2
 301 452 236 390 219 315 c 2
 188 176 l 2
 186 166 185 156 185 146 c 0
EndSplineSet
Substitution2: "Single Substitution lookup 22 subtable" uni0E38
Substitution2: "Single Substitution lookup 22 subtable" uni0E38
EndChar
StartChar: b
Encoding: 98 98 67
Width: 578
VWidth: 1507
Flags: W
HStem: -8 83<215.199 378.701> 452 85<355.715 478.853>
VStem: 495 112<337.345 353 353 365 365 367.459 366.229 436.762>
Fore
240 -8 m 2
 228 -8 200 -10 161 18 c 1
 158 0 l 1
 47 0 l 1
 200 730 l 1
 312 730 l 1
 262 494 l 1
 328 537 376 537 392 537 c 2
 455 537 l 2
 542 537 607 478 607 390 c 0
 607 378 605 365 603 353 c 2
 573 213 l 2
 547 82 419 -8 301 -8 c 2
 240 -8 l 2
193 158 m 0
 193 127 213 75 258 75 c 2
 320 75 l 2
 378 75 445 136 464 216 c 2
 493 354 l 2
 494 361 495 369 495 376 c 0
 495 402 484 452 437 452 c 2
 374 452 l 2
 316 452 254 398 229 339 c 1
 193 164 l 1
 193 158 l 0
EndSplineSet
Substitution2: "Single Substitution lookup 22 subtable" uni0E39
Substitution2: "Single Substitution lookup 22 subtable" uni0E39
EndChar
StartChar: c
Encoding: 99 99 68
Width: 572
VWidth: 1507
Flags: W
HStem: -8 83<204.773 379.335> 452 85<300.467 471.056>
VStem: 73 113<93.1111 174.717> 455 112<129.523 203> 485 112<354 366.797 366.797 367.023 366.91 435.058>
Fore
443 537 m 2xf0
 570 537 602 444 602 393 c 0
 602 380 600 367 597 354 c 1
 485 354 l 1xe8
 487 363 488 372 488 380 c 0
 488 406 475 452 425 452 c 2
 365 452 l 2
 301 452 236 390 219 315 c 2
 188 176 l 2
 187 169 186 162 186 155 c 0
 186 129 199 75 249 75 c 2
 311 75 l 2
 369 75 437 119 455 203 c 1
 567 203 l 1
 538 78 420 -8 292 -8 c 2
 231 -8 l 2
 132 -8 73 65 73 142 c 0
 73 153 74 164 77 176 c 2
 107 315 l 2
 130 431 255 537 383 537 c 2
 443 537 l 2xf0
EndSplineSet
Substitution2: "Single Substitution lookup 22 subtable" uni0E3A
Substitution2: "Single Substitution lookup 22 subtable" uni0E3A
EndChar
StartChar: d
Encoding: 100 100 69
Width: 580
VWidth: 1507
Flags: W
HStem: -8 83<197.574 214 214 364.486> 452 85<300.467 468.422>
VStem: 72 113<83.8027 161.609 161 162.219 162.219 176 176 191.694>
Fore
445 537 m 2
 492 537 511 528 523 520 c 1
 567 730 l 1
 678 730 l 1
 523 -3 l 1
 412 -3 l 1
 421 38 l 1
 393 21 334 -8 276 -8 c 2
 214 -8 l 2
 124 -8 72 54 72 134 c 0
 72 148 74 162 77 176 c 2
 107 315 l 2
 130 431 255 537 383 537 c 2
 445 537 l 2
185 146 m 0
 185 113 194 75 232 75 c 2
 294 75 l 2
 341 75 429 117 457 208 c 2
 488 357 l 1
 488 367 l 2
 488 407 467 452 427 452 c 2
 365 452 l 2
 301 452 236 390 219 315 c 2
 188 176 l 2
 186 166 185 156 185 146 c 0
EndSplineSet
EndChar
StartChar: e
Encoding: 101 101 70
Width: 574
VWidth: 1507
Flags: W
HStem: -8 83<204.773 378.201> 264 75<223 484> 452 85<296.604 467.046>
VStem: 73 113<93.1111 174.717> 457 111<132.985 210> 484 114<339 353 353 363 363 365.317 364.158 413.733>
Fore
445 537 m 2xf8
 542 537 602 466 602 389 c 0
 602 378 601 365 598 353 c 2xf4
 580 264 l 1
 208 264 l 1
 188 176 l 2
 187 169 186 162 186 155 c 0
 186 129 199 75 249 75 c 2
 311 75 l 2
 369 75 440 126 457 210 c 1
 568 210 l 1
 542 82 417 -8 292 -8 c 2
 231 -8 l 2
 132 -8 73 65 73 142 c 0
 73 153 74 164 77 176 c 2
 107 315 l 2
 130 431 255 537 383 537 c 2
 445 537 l 2xf8
489 373 m 0
 489 395 476 452 427 452 c 2
 365 452 l 2
 299 452 244 396 223 339 c 1
 484 339 l 1
 487 353 l 2
 488 360 489 366 489 373 c 0
EndSplineSet
EndChar
StartChar: f
Encoding: 102 102 71
Width: 354
VWidth: 1507
Flags: MW
HStem: 0 21G<122 236.204> 452 77<133 217 344 424> 639 91<425.953 506>
Fore
217 452 m 1
 116 452 l 1
 133 529 l 1
 234 529 l 1
 264 634 388 730 525 730 c 1
 506 639 l 1
 433 639 365 588 344 529 c 1
 440 529 l 1
 424 452 l 1
 327 452 l 1
 232 0 l 1
 122 0 l 1
 217 452 l 1
EndSplineSet
EndChar
StartChar: g
Encoding: 103 103 72
Width: 580
VWidth: 1507
Flags: W
HStem: -184 78<173.163 190 190 343.29> 29 84<215.305 381.714> 451 86<300.467 468.281>
VStem: 82 113<148.082 202.285 201.57 203 203 214 214 230.068>
Fore
152 -51 m 1
 155 -59 176 -106 213 -106 c 2
 274 -106 l 2
 343 -106 404 -46 413 3 c 2
 427 66 l 1
 395 47 355 29 301 29 c 2
 240 29 l 2
 150 29 82 88 82 177 c 0
 82 189 83 202 86 214 c 2
 107 315 l 2
 130 431 255 537 383 537 c 2
 445 537 l 2
 478 537 503 529 522 514 c 1
 525 529 l 1
 636 529 l 1
 525 3 l 2
 499 -109 350 -184 253 -184 c 2
 190 -184 l 2
 98 -184 41 -121 30 -51 c 1
 152 -51 l 1
195 192 m 0
 195 167 207 113 256 113 c 2
 318 113 l 2
 376 113 444 173 464 244 c 2
 488 357 l 1
 488 367 l 2
 488 407 467 451 427 451 c 2
 365 451 l 2
 298 451 235 385 219 315 c 2
 197 214 l 2
 196 207 195 199 195 192 c 0
EndSplineSet
EndChar
StartChar: h
Encoding: 104 104 73
Width: 584
VWidth: 1507
Flags: W
HStem: 0 21G<47 162.189 419 533.193> 452 85<354.258 478.853>
VStem: 495 112<337.257 353 353 365 365 367.459 366.229 436.762>
Fore
455 537 m 2
 542 537 607 478 607 390 c 0
 607 378 605 365 603 353 c 2
 529 0 l 1
 419 0 l 1
 493 354 l 2
 494 361 495 369 495 376 c 0
 495 402 484 452 437 452 c 2
 374 452 l 2
 316 452 254 398 229 339 c 1
 158 0 l 1
 47 0 l 1
 200 730 l 1
 312 730 l 1
 264 497 l 1
 331 538 379 537 392 537 c 2
 455 537 l 2
EndSplineSet
EndChar
StartChar: i
Encoding: 105 105 74
Width: 278
VWidth: 1507
Flags: W
HStem: 0 21G<83 195.234> 509 20G<189.803 303> 592 127<228.119 325.481>
VStem: 201 154<620.496 691.77>
Fore
194 529 m 1
 303 529 l 1
 191 0 l 1
 83 0 l 1
 194 529 l 1
201 642 m 0
 201 683 239 719 291 719 c 256
 339 719 355 690 355 671 c 0
 355 628 315 592 264 592 c 256
 216 592 201 622 201 642 c 0
EndSplineSet
EndChar
StartChar: j
Encoding: 106 106 75
Width: 278
VWidth: 1507
Flags: W
HStem: -202 90<-143 11.2373> 509 20G<188.745 303> 592 127<228.119 325.481>
VStem: 201 154<620.496 691.77>
Fore
193 529 m 1
 303 529 l 1
 193 12 l 2
 171 -95 56 -202 -80 -202 c 2
 -163 -202 l 1
 -143 -112 l 1
 -60 -112 l 2
 9 -112 68 -54 83 12 c 2
 193 529 l 1
201 642 m 0
 201 683 239 719 291 719 c 256
 339 719 355 690 355 671 c 0
 355 628 315 592 264 592 c 256
 216 592 201 622 201 642 c 0
EndSplineSet
EndChar
StartChar: k
Encoding: 107 107 76
Width: 551
VWidth: 1507
Flags: W
HStem: 0 21G<47 162.257 408.24 565> 509 20G<460.589 646>
Fore
308 314 m 1
 326 302 341 285 348 276 c 2
 565 0 l 1
 424 0 l 1
 253 217 l 2
 239 232 226 243 211 249 c 1
 158 0 l 1
 47 0 l 1
 202 730 l 1
 313 730 l 1
 236 366 l 1
 492 529 l 1
 646 529 l 1
 308 314 l 1
EndSplineSet
EndChar
StartChar: l
Encoding: 108 108 77
Width: 278
VWidth: 1507
Flags: MW
HStem: 0 21G<83 195.219>
Fore
237 730 m 1
 345 730 l 1
 191 0 l 1
 83 0 l 1
 237 730 l 1
EndSplineSet
EndChar
StartChar: m
Encoding: 109 109 78
Width: 850
VWidth: 1507
Flags: W
HStem: 0 21G<50 164.223 363 479.217 678 792.193> 452 85<332.794 420.108 614.216 734.089>
VStem: 752 110<337.257 353 353 365 365 365.317 365.158 433.595>
Fore
755 376 m 0
 755 410 733 452 692 452 c 0
 621 452 558 400 549 351 c 2
 475 0 l 1
 363 0 l 1
 437 353 l 2
 439 360 440 367 440 374 c 0
 440 407 419 452 377 452 c 0
 319 452 246 402 232 341 c 2
 160 0 l 1
 50 0 l 1
 161 529 l 1
 271 529 l 1
 265 497 l 1
 334 537 382 537 395 537 c 0
 419 537 475 534 523 473 c 1
 568 503 640 537 710 537 c 0
 809 537 866 464 866 389 c 0
 866 378 865 365 862 353 c 2
 788 0 l 1
 678 0 l 1
 752 354 l 2
 754 361 755 369 755 376 c 0
EndSplineSet
EndChar
StartChar: n
Encoding: 110 110 79
Width: 590
VWidth: 1507
Flags: W
HStem: 0 21G<47 162.189 424 538.136> 452 85<354.258 477.427>
VStem: 497 110<337.027 353 353 365 365 365.317 365.158 433.595>
Fore
455 537 m 2
 554 537 611 464 611 389 c 0
 611 378 610 365 607 353 c 2
 534 0 l 1
 424 0 l 1
 497 354 l 2
 499 361 500 369 500 376 c 0
 500 410 478 452 437 452 c 2
 374 452 l 2
 316 452 254 398 229 339 c 1
 158 0 l 1
 47 0 l 1
 158 529 l 1
 270 529 l 1
 264 497 l 1
 331 538 379 537 392 537 c 2
 455 537 l 2
EndSplineSet
EndChar
StartChar: o
Encoding: 111 111 80
Width: 574
VWidth: 1507
Flags: W
HStem: -8 83<204.773 375.445> 452 85<300.467 467.046>
VStem: 73 113<93.1111 164.928 164.356 165.5 165.5 176 176 191.694> 487 111<336.667 353 353 363 363 365.317 364.158 413.733>
Fore
445 537 m 2
 542 537 602 466 602 389 c 0
 602 378 601 365 598 353 c 2
 568 213 l 2
 543 83 409 -8 292 -8 c 2
 231 -8 l 2
 132 -8 73 65 73 142 c 0
 73 153 74 164 77 176 c 2
 107 315 l 2
 130 431 255 537 383 537 c 2
 445 537 l 2
186 155 m 0
 186 129 199 75 249 75 c 2
 311 75 l 2
 369 75 442 135 457 213 c 2
 487 353 l 2
 488 360 489 366 489 373 c 0
 489 395 476 452 427 452 c 2
 365 452 l 2
 301 452 236 390 219 315 c 2
 188 176 l 2
 187 169 186 162 186 155 c 0
EndSplineSet
EndChar
StartChar: p
Encoding: 112 112 81
Width: 580
VWidth: 1507
Flags: W
HStem: -185 21G<6 122.3> -8 83<213.022 381.445> 452 85<303.99 474.427>
VStem: 494 110<336.667 353 353 364 364 365.317 364.658 431.471>
Fore
237 -8 m 2
 207 -8 183 -4 161 15 c 1
 118 -185 l 1
 6 -185 l 1
 158 529 l 1
 270 529 l 1
 264 499 l 1
 295 520 339 537 389 537 c 2
 452 537 l 2
 551 537 608 464 608 389 c 0
 608 378 607 365 604 353 c 2
 574 213 l 2
 549 83 415 -8 298 -8 c 2
 237 -8 l 2
192 158 m 0
 192 123 212 75 255 75 c 2
 317 75 l 2
 384 75 454 149 464 213 c 2
 494 353 l 2
 496 360 497 368 497 375 c 0
 497 403 478 452 434 452 c 2
 371 452 l 2
 313 452 240 395 226 321 c 2
 194 176 l 2
 193 170 192 164 192 158 c 0
EndSplineSet
EndChar
StartChar: q
Encoding: 113 113 82
Width: 580
VWidth: 1507
Flags: W
HStem: -185 21G<372 488.258> -8 83<204.773 324.779> 451 86<300.467 468.422>
VStem: 73 113<93.1111 164.928 164.356 165.5 165.5 176 176 191.694>
Fore
445 537 m 2
 491 537 516 520 522 516 c 1
 525 529 l 1
 636 529 l 1
 484 -185 l 1
 372 -185 l 1
 419 32 l 1
 363 -1 317 -8 292 -8 c 2
 231 -8 l 2
 132 -8 73 65 73 142 c 0
 73 153 74 164 77 176 c 2
 107 315 l 2
 130 431 255 537 383 537 c 2
 445 537 l 2
186 155 m 0
 186 129 199 75 249 75 c 2
 311 75 l 2
 366 75 432 127 457 208 c 2
 488 357 l 1
 488 367 l 2
 488 407 467 451 427 451 c 2
 365 451 l 2
 298 451 235 385 219 315 c 2
 188 176 l 2
 187 169 186 162 186 155 c 0
EndSplineSet
EndChar
StartChar: r
Encoding: 114 114 83
Width: 385
VWidth: 1507
Flags: MW
HStem: 0 21G<47 162.254> 452 85<307.829 455>
Fore
264 499 m 1
 286 512 339 537 389 537 c 2
 473 537 l 1
 455 452 l 1
 371 452 l 2
 305 452 235 376 225 315 c 2
 158 0 l 1
 47 0 l 1
 158 529 l 1
 270 529 l 1
 264 499 l 1
EndSplineSet
EndChar
StartChar: s
Encoding: 115 115 84
Width: 622
VWidth: 1507
Flags: W
HStem: -8 83<205.713 415.487> 452 85<302.312 517.181>
VStem: 75 111<91.8551 160.412 160.348 160.477 160.477 173> 142 115<331.781 410.779> 510 112<119.252 213.39> 536 110<354 365.523 365.523 367.726 366.625 434.205>
Fore
622 191 m 0xd8
 622 61 487 -8 376 -8 c 2
 232 -8 l 2
 135 -8 75 54 75 136 c 0
 75 148 76 160 79 173 c 1
 189 173 l 1
 187 164 186 156 186 148 c 0
 186 107 209 75 250 75 c 2
 394 75 l 2
 407 75 510 91 510 175 c 0xe8
 510 213 484 216 470 217 c 2
 257 243 l 2
 163 256 142 300 142 342 c 0
 142 463 277 537 387 537 c 2
 492 537 l 2
 584 537 651 482 651 395 c 0
 651 382 649 368 646 354 c 1
 536 354 l 1xd4
 538 362 538 370 538 377 c 0
 538 419 513 452 474 452 c 2
 369 452 l 2
 326 452 257 417 257 365 c 0
 257 334 286 328 297 326 c 2
 510 301 l 2
 545 297 622 277 622 191 c 0xd8
EndSplineSet
EndChar
StartChar: t
Encoding: 116 116 85
Width: 354
VWidth: 1507
Flags: W
HStem: 0 21G<121 236.204> 452 77<133 216 344 424 116 440 133 133>
Fore
216 452 m 1
 116 452 l 1
 133 529 l 1
 232 529 l 1
 274 730 l 1
 386 730 l 1
 344 529 l 1
 440 529 l 1
 424 452 l 1
 327 452 l 1
 232 0 l 1
 121 0 l 1
 216 452 l 1
EndSplineSet
EndChar
StartChar: u
Encoding: 117 117 86
Width: 584
VWidth: 1507
Flags: W
HStem: -8 83<210.621 376.47> 509 20G<153.751 270 526.718 641>
VStem: 79 113<89.2725 162.535 161.5 163.57 163.57 189.395>
Fore
232 -8 m 2
 138 -8 79 60 79 139 c 0
 79 151 80 164 83 176 c 2
 158 529 l 1
 270 529 l 1
 194 173 l 2
 192 165 192 158 192 150 c 0
 192 123 203 75 250 75 c 2
 312 75 l 2
 370 75 435 135 458 188 c 1
 531 529 l 1
 641 529 l 1
 529 0 l 1
 419 0 l 1
 425 32 l 1
 396 15 346 -8 294 -8 c 2
 232 -8 l 2
EndSplineSet
EndChar
StartChar: v
Encoding: 118 118 87
Width: 572
VWidth: 1507
Flags: W
HStem: -8 21G<304 345.142> 509 20G<130 246.385 531.949 659>
Fore
333 -8 m 1
 275 -8 220 10 210 54 c 2
 130 529 l 1
 243 529 l 1
 309 139 l 1
 544 529 l 1
 659 529 l 1
 333 -8 l 1
EndSplineSet
EndChar
StartChar: w
Encoding: 119 119 88
Width: 911
VWidth: 1507
Flags: W
HStem: -8 21G<288 322.406 579.029 603> 509 20<131 249.857 505.837 536 862.647 987>
Fore
526 369 m 1
 311 -8 l 1
 265 -8 223 8 214 41 c 2
 131 529 l 1
 247 529 l 1
 301 151 l 1
 517 538 l 1
 555 538 609 528 617 487 c 2
 660 152 l 1
 874 529 l 1
 987 529 l 1
 701 41 l 2
 679 6 624 -8 582 -8 c 1
 526 369 l 1
EndSplineSet
EndChar
StartChar: x
Encoding: 120 120 89
Width: 610
VWidth: 1507
Flags: W
HStem: 0 21G<2 154.9 454.6 601> 509 20G<144 284.908 531.653 682>
Fore
552 529 m 1
 682 529 l 1
 428 279 l 1
 601 0 l 1
 467 0 l 1
 343 200 l 1
 134 0 l 1
 2 0 l 1
 290 279 l 1
 144 529 l 1
 273 529 l 1
 376 356 l 1
 552 529 l 1
EndSplineSet
EndChar
StartChar: y
Encoding: 121 121 90
Width: 586
VWidth: 1507
Flags: W
HStem: -184 78<179.492 196 196 347.662> 29 86<214.812 338.657> 509 20G<153.81 270 526.71 641>
VStem: 88 111<129.706 201.106 200.977 201.235 201.235 229.265>
Fore
199 189 m 0
 199 162 211 115 259 115 c 2
 321 115 l 2
 362 115 431 145 466 226 c 1
 531 529 l 1
 641 529 l 1
 529 3 l 2
 503 -109 354 -184 258 -184 c 2
 196 -184 l 2
 106 -184 47 -126 35 -51 c 1
 157 -51 l 1
 162 -64 181 -106 217 -106 c 2
 279 -106 l 2
 345 -106 410 -49 419 3 c 2
 433 68 l 1
 376 35 329 29 303 29 c 2
 241 29 l 2
 144 29 88 96 88 176 c 0
 88 189 89 201 92 214 c 2
 158 529 l 1
 270 529 l 1
 202 213 l 2
 200 205 199 196 199 189 c 0
EndSplineSet
EndChar
StartChar: z
Encoding: 122 122 91
Width: 613
VWidth: 1507
Flags: W
HStem: 0 75<240 553> 452 77<169 473>
Fore
553 0 m 1
 32 0 l 1
 473 452 l 1
 152 452 l 1
 169 529 l 1
 686 529 l 1
 240 75 l 1
 568 75 l 1
 553 0 l 1
EndSplineSet
EndChar
StartChar: braceleft
Encoding: 123 123 92
Width: 468
VWidth: 1507
Flags: MW
HStem: -213 80<289.703 359> 265 24<99 142.955> 736 80<441.041 559>
VStem: 149 109<-147 -96.5> 199 107<113.84 136.5 136.5 143.023 139.762 191.299>
Fore
247 274 m 1
 304 227 309 173 309 156 c 0
 309 148 308 139 306 130 c 2
 259 -87 l 2
 258 -91 258 -95 258 -98 c 0
 258 -126 294 -133 318 -133 c 2
 375 -133 l 1
 359 -213 l 1
 301 -213 l 2
 207 -213 149 -175 149 -119 c 0
 149 -110 150 -102 152 -92 c 2
 199 130 l 2
 200 134 200 139 200 143 c 0
 200 195 140 265 95 265 c 1
 99 289 l 1
 141 289 246 348 262 427 c 2
 318 692 l 2
 334 782 432 816 519 816 c 2
 576 816 l 1
 559 736 l 1
 502 736 l 2
 472 736 434 726 424 687 c 2
 369 427 l 2
 354 353 295 299 247 274 c 1
EndSplineSet
EndChar
StartChar: bar
Encoding: 124 124 93
Width: 277
VWidth: 1507
Flags: MW
Fore
268 879 m 1
 377 879 l 1
 158 -149 l 1
 50 -149 l 1
 268 879 l 1
EndSplineSet
EndChar
StartChar: braceright
Encoding: 125 125 94
Width: 468
VWidth: 1507
Flags: MW
HStem: -213 80<27 114.005> 265 24<431.467 478> 736 80<228 296.149>
VStem: 269 109<343.109 414.588 413.677 415.5 415.5 427 427 443.562> 329 109<713 715>
Fore
378 404 m 0
 378 343 441 289 482 289 c 1
 478 265 l 1
 431 265 328 188 317 130 c 2
 270 -92 l 2
 247 -185 149 -213 68 -213 c 2
 11 -213 l 1
 27 -133 l 1
 84 -133 l 2
 114 -133 155 -124 163 -87 c 2
 210 130 l 2
 219 182 265 231 293 251 c 2
 327 276 l 1
 315 284 269 326 269 388 c 0
 269 401 270 413 273 427 c 2
 327 687 l 2
 328 692 329 697 329 701 c 0
 329 729 291 736 268 736 c 2
 211 736 l 1
 228 816 l 1
 285 816 l 2
 351 816 438 796 438 717 c 0
 438 709 438 701 436 692 c 2
 380 427 l 2
 378 419 378 412 378 404 c 0
EndSplineSet
EndChar
StartChar: asciitilde
Encoding: 126 126 95
Width: 639
VWidth: 1507
Flags: MW
HStem: 256 91<453.791 547.586> 381 91<240.683 322.771>
VStem: 92 95<286.905 368.73>
Fore
92 267 m 1
 122 407 242 472 304 472 c 0
 438 472 415 347 505 347 c 0
 545 347 585 408 604 461 c 1
 699 461 l 1
 666 320 555 256 487 256 c 0
 341 256 346 381 285 381 c 0
 246 381 206 327 187 267 c 1
 92 267 l 1
EndSplineSet
EndChar
StartChar: quotedbl
Encoding: 34 34 97
Width: 385
VWidth: 1507
Flags: W
HStem: 535 241<210 273 383 446 210 273 210 210>
Fore
210 776 m 1
 324 776 l 1
 273 535 l 1
 158 535 l 1
 210 776 l 1
383 776 m 1
 497 776 l 1
 446 535 l 1
 332 535 l 1
 383 776 l 1
EndSplineSet
EndChar
StartChar: exclam
Encoding: 33 33 98
Width: 304
VWidth: 1507
Flags: W
HStem: -2 118<124.532 208>
VStem: 102 130<21.5924 93>
Fore
255 733 m 1
 365 733 l 1
 243 163 l 1
 133 163 l 1
 255 733 l 1
179 116 m 256
 133 116 102 79 102 43 c 0
 102 22 117 -2 154 -2 c 256
 194 -2 232 31 232 68 c 0
 232 87 221 116 179 116 c 256
EndSplineSet
EndChar
StartChar: cent
Encoding: 162 162 101
Width: 625
VWidth: 1507
Flags: W
HStem: 555 80<356.213 395 506 526.53>
VStem: 129 113<197.828 268.367 267.235 269.5 269.5 280 280 296.655> 513 110<234.205 306> 543 110<457 469.523 469.523 474.523 472.023 537.576>
Fore
242 259 m 0xd0
 242 224 261 178 304 178 c 2
 386 178 l 2
 430 184 492 219 513 306 c 1
 623 306 l 1xe0
 604 217 522 125 392 98 c 1
 368 -21 l 1
 256 -21 l 1
 280 95 l 1
 182 98 129 170 129 242 c 0
 129 255 130 267 133 280 c 2
 161 418 l 2
 183 514 271 618 395 635 c 1
 421 757 l 1
 532 757 l 1
 506 638 l 1
 596 633 656 580 656 492 c 0
 656 481 655 469 653 457 c 1
 543 457 l 1
 545 466 546 474 546 482 c 0
 546 523 520 555 482 555 c 2
 401 555 l 1
 349 541 288 488 273 418 c 2
 244 280 l 2
 243 273 242 266 242 259 c 0xd0
EndSplineSet
EndChar
StartChar: sterling
Encoding: 163 163 102
Width: 625
VWidth: 1507
Flags: W
HStem: 0 83<78 159.387 292 580> 311 90<143 276 390 574> 648 91<485.211 625.654>
VStem: 273 114<175.998 207 207 251.822 251.822 311 401 434.672>
Fore
615 603 m 1
 597 629 574 648 555 648 c 0
 491 648 423 591 407 519 c 0
 396 473 392 437 390 401 c 1
 594 401 l 1
 574 311 l 1
 387 311 l 1
 387 269 385 269 383 207 c 1
 371 160 328 110 292 83 c 1
 597 83 l 1
 580 0 l 1
 62 0 l 1
 78 83 l 1
 133 83 256 138 273 207 c 1
 276 311 l 1
 124 311 l 1
 143 401 l 1
 279 401 l 1
 281 427 284 447 286 462 c 2
 298 519 l 2
 328 648 458 739 574 739 c 0
 628 739 672 713 699 683 c 1
 615 603 l 1
EndSplineSet
EndChar
StartChar: currency
Encoding: 164 164 103
Width: 791
VWidth: 1507
Flags: W
HStem: 66 88<337.076 514.84> 556 88<415.957 589.439>
VStem: 148 112<232.266 368.43> 665 114<308.013 479>
Fore
402 66 m 0
 352 66 284 77 237 119 c 1
 157 54 l 1
 103 121 l 1
 176 184 l 1
 153 223 148 264 148 298 c 0
 148 326 151 427 250 528 c 1
 202 589 l 1
 285 657 l 1
 339 592 l 1
 398 627 460 644 526 644 c 0
 595 644 651 623 692 591 c 1
 775 657 l 1
 829 589 l 1
 751 526 l 1
 773 490 779 457 779 419 c 0
 779 314 724 232 678 185 c 1
 730 121 l 1
 645 54 l 1
 592 119 l 1
 527 80 459 66 402 66 c 0
665 397 m 0
 665 482 603 556 506 556 c 0
 372 556 260 420 260 314 c 0
 260 244 307 154 421 154 c 256
 552 154 665 278 665 397 c 0
EndSplineSet
EndChar
StartChar: yen
Encoding: 165 165 104
Width: 625
VWidth: 1507
Flags: W
HStem: 0 21G<241 355.17> 259 88<145 295 424 577>
Fore
295 259 m 1
 127 259 l 1
 145 347 l 1
 314 347 l 1
 318 362 l 1
 142 730 l 1
 264 730 l 1
 390 452 l 1
 638 730 l 1
 758 730 l 1
 428 363 l 1
 424 347 l 1
 595 347 l 1
 577 259 l 1
 405 259 l 1
 351 0 l 1
 241 0 l 1
 295 259 l 1
EndSplineSet
EndChar
StartChar: brokenbar
Encoding: 166 166 105
Width: 266
VWidth: 1507
Flags: MW
Fore
176 440 m 1
 268 879 l 1
 377 879 l 1
 285 440 l 1
 176 440 l 1
261 329 m 1
 158 -149 l 1
 50 -149 l 1
 152 329 l 1
 261 329 l 1
EndSplineSet
EndChar
StartChar: section
Encoding: 167 167 106
Width: 652
VWidth: 1507
Flags: W
HStem: -53 83<188.558 398.663> 677 83<371.965 586.715>
VStem: 59 110<48.8688 114.965 114.453 115.477 115.477 128> 137 112<338.854 403.327> 213 112<560.199 635.906> 493 111<73.4995 162.905> 569 113<308.368 383.38> 606 112<579 591.523 591.523 591.797 591.66 659.96>
Fore
213 570 m 0xc8
 213 674 333 760 457 760 c 2
 564 760 l 2
 691 760 723 665 723 618 c 0
 723 605 721 592 718 579 c 1
 606 579 l 1xc9
 608 588 609 596 609 604 c 0
 609 643 584 677 546 677 c 2
 439 677 l 2
 390 677 325 635 325 595 c 0
 325 567 356 554 369 549 c 2
 574 476 l 2
 680 442 682 379 682 359 c 0xca
 682 323 665 253 579 207 c 1
 595 187 604 168 604 137 c 0
 604 30 488 -53 362 -53 c 2
 216 -53 l 2
 114 -53 59 11 59 89 c 0
 59 101 60 114 63 128 c 1
 172 128 l 1
 170 119 169 111 169 103 c 0xe4
 169 77 185 30 234 30 c 2
 380 30 l 2
 392 30 493 49 493 126 c 0
 493 150 479 162 452 172 c 2
 246 246 l 2
 143 280 137 329 137 354 c 0
 137 433 209 484 249 505 c 1xd4
 217 530 213 549 213 570 c 0xc8
353 455 m 1
 261 435 249 389 249 373 c 0
 249 347 269 337 294 329 c 2
 488 258 l 1
 567 289 569 328 569 345 c 0xd2
 569 374 548 386 528 393 c 2
 440 426 l 1
 353 455 l 1
EndSplineSet
EndChar
StartChar: dieresis
Encoding: 168 168 107
Width: 384
VWidth: 1507
Flags: W
HStem: 598 129<169.122 264.887 391.352 486.055>
VStem: 140 154<626.355 699.2> 362 153<626.851 698.201>
Fore
140 649 m 0
 140 690 179 727 231 727 c 256
 279 727 294 697 294 677 c 0
 294 638 259 598 203 598 c 256
 155 598 140 627 140 649 c 0
362 650 m 0
 362 688 401 727 452 727 c 256
 499 727 515 697 515 676 c 0
 515 645 484 598 425 598 c 256
 388 598 362 619 362 650 c 0
EndSplineSet
EndChar
StartChar: copyright
Encoding: 169 169 108
Width: 792
VWidth: 1507
Flags: W
HStem: 23 76<318.039 521.105> 175 74<380.056 390 390 505.03> 491 73<434.857 553.309> 630 77<424.105 621.85>
VStem: 107 96<215.18 406.013> 276 98<265.457 309.695> 538 98<266.624 332> 556 98<430 439.523 439.523 445.046 442.285 488.529> 737 96<313.81 513.828>
Fore
107 293 m 0xfc80
 107 495 309 707 543 707 c 0
 723 707 833 573 833 428 c 0
 833 223 625 23 398 23 c 0
 216 23 107 151 107 293 c 0xfc80
737 417 m 0
 737 534 652 630 526 630 c 0
 347 630 203 456 203 306 c 0
 203 209 275 99 415 99 c 256
 578 99 737 255 737 417 c 0
543 564 m 2
 618 564 657 516 657 460 c 0
 657 451 656 441 654 430 c 1
 556 430 l 1xfd80
 558 437 558 443 558 449 c 0
 558 472 546 491 526 491 c 2
 484 491 l 2
 442 491 404 445 395 401 c 2
 375 312 l 2
 374 308 374 303 374 299 c 0
 374 283 381 249 409 249 c 2
 451 249 l 2
 486 249 528 273 538 332 c 1
 636 332 l 1xfe80
 615 231 525 175 434 175 c 2
 390 175 l 2
 315 175 276 231 276 283 c 0
 276 291 277 299 279 308 c 2
 298 404 l 2
 321 498 413 564 499 564 c 2
 543 564 l 2
EndSplineSet
EndChar
StartChar: logicalnot
Encoding: 172 172 111
Width: 700
VWidth: 1507
Flags: W
HStem: 366 91<133 617>
Fore
568 139 m 1
 617 366 l 1
 113 366 l 1
 133 457 l 1
 748 457 l 1
 680 139 l 1
 568 139 l 1
EndSplineSet
EndChar
StartChar: registered
Encoding: 174 174 112
Width: 601
VWidth: 1507
Flags: W
HStem: 240 55<282.108 449.855> 531 21G<378.167 445> 579 47<384 465.998> 699 59<356.437 530.8>
VStem: 125 78<372.055 541.377> 466 65<538.732 575.954> 608 74<450.69 619.01>
Fore
125 446 m 0
 125 589 276 758 458 758 c 0
 584 758 682 673 682 546 c 0
 682 392 519 240 348 240 c 256
 200 240 125 349 125 446 c 0
608 538 m 0
 608 624 545 699 446 699 c 0
 316 699 203 570 203 454 c 0
 203 358 277 295 360 295 c 256
 481 295 608 414 608 538 c 0
531 567 m 0
 531 529 500 493 460 485 c 1
 460 484 461 483 461 482 c 1
 513 377 l 1
 431 377 l 1
 386 470 l 1
 380 477 377 481 375 481 c 2
 368 481 l 1
 347 377 l 1
 273 377 l 1
 326 626 l 1
 466 626 l 2
 512 626 531 593 531 567 c 0
466 561 m 0
 466 566 463 579 455 579 c 2
 384 579 l 1
 374 531 l 1
 445 531 l 2
 461 531 466 555 466 561 c 0
EndSplineSet
EndChar
StartChar: macron
Encoding: 175 175 113
Width: 393
VWidth: 1507
Flags: W
HStem: 629 82<184 485 166 503 184 184>
Fore
166 629 m 1
 184 711 l 1
 503 711 l 1
 485 629 l 1
 166 629 l 1
EndSplineSet
EndChar
StartChar: degree
Encoding: 176 176 114
Width: 360
VWidth: 1507
Flags: W
HStem: 478 68<249.363 345.373> 695 69<272.005 369.198>
VStem: 149 88<558.026 659.685> 381 88<583.277 682.485>
Fore
149 592 m 0
 149 679 236 764 338 764 c 0
 428 764 469 702 469 649 c 0
 469 558 378 478 277 478 c 0
 190 478 149 538 149 592 c 0
323 695 m 0
 272 695 237 642 237 602 c 0
 237 574 259 546 291 546 c 0
 338 546 381 594 381 640 c 0
 381 670 356 695 323 695 c 0
EndSplineSet
EndChar
StartChar: plusminus
Encoding: 177 177 115
Width: 700
VWidth: 1507
Flags: W
HStem: 6 83<104 603> 332 86<173 362 484 672>
Fore
466 332 m 1
 424 134 l 1
 320 134 l 1
 362 332 l 1
 155 332 l 1
 173 418 l 1
 380 418 l 1
 422 617 l 1
 526 617 l 1
 484 418 l 1
 690 418 l 1
 672 332 l 1
 466 332 l 1
86 6 m 1
 104 89 l 1
 621 89 l 1
 603 6 l 1
 86 6 l 1
EndSplineSet
EndChar
StartChar: twosuperior
Encoding: 178 178 116
Width: 429
VWidth: 1507
Flags: W
HStem: 285 68<197 436> 684 67<289.191 408.975>
VStem: 417 84<617.174 677.381>
Fore
184 669 m 1
 227 712 291 751 363 751 c 2
 377 751 l 2
 484 751 501 693 501 654 c 0
 501 621 490 583 474 560 c 0
 462 545 442 527 412 508 c 2
 237 399 l 2
 216 387 205 374 197 353 c 1
 449 353 l 1
 436 285 l 1
 96 285 l 1
 109 342 l 2
 119 392 151 426 188 451 c 2
 390 576 l 2
 409 585 417 620 417 637 c 0
 417 658 407 684 365 684 c 2
 350 684 l 2
 305 684 255 639 237 623 c 1
 184 669 l 1
EndSplineSet
EndChar
StartChar: threesuperior
Encoding: 179 179 117
Width: 406
VWidth: 1507
Flags: W
HStem: 282 66<223.957 324.955> 513 66<246 374.665> 683 68<265.858 390.194>
VStem: 384 86<405.611 492.686> 398 85<586.092 676.38>
Fore
384 459 m 0xf0
 384 478 374 513 336 513 c 2
 232 513 l 1
 246 579 l 1
 353 579 l 2
 372 580 398 591 398 637 c 0
 398 668 380 683 345 683 c 2
 329 683 l 2
 285 683 233 641 214 624 c 1
 164 669 l 1
 204 709 266 751 342 751 c 2
 359 751 l 2
 463 751 483 691 483 652 c 0xe8
 483 608 468 575 442 549 c 1
 457 533 470 507 470 474 c 0
 470 395 387 282 246 282 c 0
 166 282 124 314 89 372 c 1
 161 422 l 1
 205 355 242 348 262 348 c 0
 324 348 384 410 384 459 c 0xf0
EndSplineSet
EndChar
StartChar: acute
Encoding: 180 180 118
Width: 189
VWidth: 1507
Flags: W
HStem: 558 188<200 255 255 255>
Fore
255 746 m 1
 369 746 l 1
 200 558 l 1
 84 558 l 1
 255 746 l 1
EndSplineSet
EndChar
StartChar: mu
Encoding: 181 181 119
AltUni2: 0003bc.ffffffff.0
Width: 592
VWidth: 1507
Flags: W
HStem: -184 21G<8 123.249> -8 83<207.607 376.47> 509 20G<153.792 270 526.718 641>
Fore
232 -8 m 2
 206 -8 179 0 160 9 c 1
 119 -184 l 1
 8 -184 l 1
 158 529 l 1
 270 529 l 1
 194 173 l 2
 192 165 192 158 192 150 c 0
 192 123 203 75 250 75 c 2
 312 75 l 2
 370 75 435 135 458 188 c 1
 531 529 l 1
 641 529 l 1
 529 0 l 1
 419 0 l 1
 425 32 l 1
 396 15 346 -8 294 -8 c 2
 232 -8 l 2
EndSplineSet
EndChar
StartChar: paragraph
Encoding: 182 182 120
Width: 672
VWidth: 1507
Flags: W
HStem: 642 91<607 680>
Fore
140 458 m 0
 140 597 278 730 405 730 c 2
 802 733 l 1
 633 -59 l 1
 531 -59 l 1
 680 642 l 1
 607 642 l 1
 458 -59 l 1
 357 -59 l 1
 430 280 l 1
 311 280 l 2
 209 280 140 363 140 458 c 0
EndSplineSet
EndChar
StartChar: periodcentered
Encoding: 183 183 121
Width: 382
VWidth: 1507
Flags: W
HStem: 268 174<210.072 315.281>
VStem: 162 200<312.1 396.016>
Fore
162 337 m 0
 162 392 213 442 282 442 c 256
 346 442 362 401 362 374 c 0
 362 319 316 268 244 268 c 256
 179 268 162 309 162 337 c 0
EndSplineSet
EndChar
StartChar: cedilla
Encoding: 184 184 122
Width: 345
VWidth: 1507
Flags: MW
HStem: -191 51<100.941 152.688>
VStem: 21 76<-136.861 -90.4412 -90.8594 -90.0231 -90.0231 -80> 103 101<-52.5 -7.5> 173 88<-125.133 -80.7941>
Fore
108 -191 m 2
 92 -191 21 -178 21 -111 c 0
 21 -102 22 -91 25 -80 c 1
 99 -80 l 1
 97 -87 97 -94 97 -100 c 0
 97 -127 112 -140 133 -140 c 0
 149 -140 173 -134 173 -108 c 0
 173 -70 103 -80 103 -25 c 0
 103 -21 104 -15 105 -9 c 2
 113 29 l 1
 211 29 l 1
 204 -5 l 2
 204 -8 l 0
 204 -33 261 -43 261 -92 c 0
 261 -106 253 -153 209 -173 c 0
 184 -185 154 -191 122 -191 c 2
 108 -191 l 2
EndSplineSet
EndChar
StartChar: onesuperior
Encoding: 185 185 123
Width: 360
VWidth: 1507
Flags: MW
HStem: 571 67<184 224.639>
Fore
184 638 m 1
 230 638 288 672 303 730 c 1
 384 730 l 1
 291 285 l 1
 210 285 l 1
 273 586 l 1
 247 576 213 571 170 571 c 1
 184 638 l 1
EndSplineSet
EndChar
StartChar: onequarter
Encoding: 188 188 126
Width: 889
VWidth: 1507
Flags: W
HStem: 574 67<163 201.042> 734 20G<693.244 819>
Fore
752 12 m 1
 770 96 l 1
 826 96 l 1
 840 163 l 1
 784 163 l 1
 847 457 l 1
 773 457 l 1
 493 154 l 1
 492 148 491 142 491 137 c 0
 491 110 508 96 543 96 c 2
 689 96 l 1
 671 12 l 1
 752 12 l 1
702 163 m 1
 598 163 l 1
 734 308 l 1
 702 163 l 1
280 733 m 1
 268 684 216 641 163 641 c 1
 148 574 l 1
 189 574 223 579 250 589 c 1
 185 288 l 1
 268 288 l 1
 363 733 l 1
 280 733 l 1
134 -24 m 1
 708 754 l 1
 819 754 l 1
 247 -24 l 1
 134 -24 l 1
EndSplineSet
LCarets2: 2 0 0 
Ligature2: "'frac' Diagonal Fractions in Latin lookup 0 subtable" one fraction four
Ligature2: "'frac' Diagonal Fractions in Latin lookup 0 subtable" one slash four
EndChar
StartChar: onehalf
Encoding: 189 189 127
Width: 889
VWidth: 1507
Flags: W
HStem: 12 65<615 844> 393 65<700.258 821.966> 574 67<163 201.042> 734 20G<680.244 805>
VStem: 826 82<295.022 387.508>
Fore
601 380 m 1
 643 417 705 458 775 458 c 2
 787 458 l 2
 891 458 908 400 908 362 c 0
 908 288 860 249 822 225 c 2
 651 119 l 2
 635 108 623 94 615 77 c 1
 858 77 l 1
 844 12 l 1
 517 12 l 1
 529 65 l 2
 540 112 569 147 606 170 c 2
 797 289 l 2
 807 295 826 317 826 351 c 0
 826 379 809 393 775 393 c 2
 761 393 l 2
 719 393 671 353 653 336 c 1
 601 380 l 1
280 733 m 1
 268 684 216 641 163 641 c 1
 148 574 l 1
 189 574 223 579 250 589 c 1
 185 288 l 1
 268 288 l 1
 363 733 l 1
 280 733 l 1
121 -24 m 1
 695 754 l 1
 805 754 l 1
 234 -24 l 1
 121 -24 l 1
EndSplineSet
LCarets2: 2 0 0 
Ligature2: "'frac' Diagonal Fractions in Latin lookup 0 subtable" one fraction two
Ligature2: "'frac' Diagonal Fractions in Latin lookup 0 subtable" one slash two
EndChar
StartChar: threequarters
Encoding: 190 190 128
Width: 889
VWidth: 1507
Flags: W
HStem: 96 67<672 763 858 900> 283 67<243.179 348.657> 514 68<268 398.058> 686 68<287.691 411.781>
VStem: 406 85<407.355 506.044> 418 88<589.348 680.161>
Fore
406 464 m 0xf8
 406 491 388 514 357 514 c 2
 253 514 l 1
 268 582 l 1
 375 582 l 2
 403 585 418 605 418 640 c 0
 418 671 401 686 365 686 c 2
 350 686 l 2
 304 686 255 644 235 626 c 1
 184 672 l 1
 228 715 293 754 365 754 c 2
 380 754 l 2
 486 754 506 694 506 654 c 0xf4
 506 620 493 578 463 550 c 1
 478 533 491 507 491 474 c 0
 491 378 389 283 267 283 c 0
 218 283 163 292 109 374 c 1
 181 424 l 1
 226 355 263 350 283 350 c 0
 350 350 406 416 406 464 c 0xf8
745 12 m 1
 763 96 l 1
 617 96 l 2
 582 96 565 110 565 137 c 0
 565 142 566 148 567 154 c 1
 847 457 l 1
 921 457 l 1
 858 163 l 1
 913 163 l 1
 900 96 l 1
 844 96 l 1
 826 12 l 1
 745 12 l 1
808 308 m 1
 672 163 l 1
 776 163 l 1
 808 308 l 1
244 -24 m 1
 819 754 l 1
 929 754 l 1
 357 -24 l 1
 244 -24 l 1
EndSplineSet
LCarets2: 2 0 0 
Ligature2: "'frac' Diagonal Fractions in Latin lookup 0 subtable" three fraction four
Ligature2: "'frac' Diagonal Fractions in Latin lookup 0 subtable" three slash four
EndChar
StartChar: Aring
Encoding: 197 197 134
Width: 862
VWidth: 1507
Flags: W
HStem: 0 21G<24 158.4 691.1 817> 200 83<332 624> 847 76<562.856 625.934>
VStem: 457 95<762.478 837.206> 628 97<770.056 838.809>
Fore
725 830 m 0
 725 778 692 732 632 701 c 1
 641 692 646 684 647 678 c 2
 817 0 l 1
 696 0 l 1
 647 200 l 1
 279 200 l 1
 145 0 l 1
 24 0 l 1
 499 704 l 1
 476 721 457 750 457 781 c 0
 457 846 523 923 618 923 c 0
 694 923 725 870 725 830 c 0
332 283 m 1
 624 283 l 1
 547 598 l 1
 332 283 l 1
601 847 m 0
 579 847 552 827 552 796 c 0
 552 776 565 761 583 761 c 0
 604 761 628 784 628 815 c 0
 628 828 623 847 601 847 c 0
EndSplineSet
EndChar
StartChar: AE
Encoding: 198 198 135
Width: 1028
VWidth: 1507
Flags: W
HStem: 0 84<633 993> 200 83<321 515> 344 83<628 989> 654 83<620 989>
VStem: 520 113<84 100 100 200 283 344 427 429.5>
Fore
620 654 m 1
 621 563 625 518 626 427 c 1
 1007 427 l 1
 989 344 l 1
 628 344 l 1
 633 84 l 1
 1011 84 l 1
 993 0 l 1
 520 0 l 1
 516 200 l 1
 268 200 l 1
 134 0 l 1
 14 0 l 1
 511 740 l 1
 533 740 l 2
 555 740 553 737 558 737 c 2
 1007 737 l 1
 989 654 l 1
 620 654 l 1
321 283 m 1
 515 283 l 1
 508 576 l 1
 321 283 l 1
EndSplineSet
EndChar
StartChar: Ccedilla
Encoding: 199 199 136
Width: 752
VWidth: 1507
Flags: W
HStem: -191 51<332.687 368.492> -15 84<258.246 320> 669 85<417.815 654.205>
VStem: 90 115<128.435 230.073 228.24 231.906 231.906 244 244 260.5> 237 76<-136.864 -90.9639 -91.8816 -90.0461 -90.0461 -80> 389 87<-124.855 -80.0891> 657 112<182.373 277> 701 112<500 512.988 512.988 516.651 514.82 616.594>
Fore
350 -140 m 0xfe
 364 -140 389 -134 389 -108 c 0
 389 -72 319 -76 319 -26 c 0
 319 -22 319 -19 320 -15 c 1
 303 -15 l 2
 179 -15 90 75 90 193 c 0
 90 209 92 226 96 244 c 2
 138 442 l 2
 174 613 352 754 519 754 c 2
 605 754 l 2
 726 754 819 675 819 554 c 0
 819 537 817 519 813 500 c 1
 701 500 l 1xfd
 704 513 705 526 705 538 c 0
 705 609 661 669 587 669 c 2
 501 669 l 2
 399 669 278 568 251 442 c 2
 209 244 l 2
 206 232 205 220 205 208 c 0
 205 136 251 69 321 69 c 2
 410 69 l 2
 524 69 633 166 657 277 c 1
 769 277 l 1
 731 100 565 -2 421 -14 c 1
 430 -39 437 -20 467 -63 c 0
 473 -71 476 -81 476 -91 c 0
 476 -103 469 -153 425 -173 c 0
 400 -185 370 -191 337 -191 c 2
 324 -191 l 2
 254 -182 237 -145 237 -111 c 0
 237 -100 239 -90 241 -80 c 1
 315 -80 l 1
 313 -88 313 -94 313 -100 c 0
 313 -136 339 -140 350 -140 c 0xfe
EndSplineSet
EndChar
StartChar: Eth
Encoding: 208 208 145
Width: 866
VWidth: 1507
Flags: W
HStem: 0 84<259 586.998> 333 88<149 199 332 574> 654 83<381 741.456>
VStem: 793 112<474.833 491 491 507.134 507.134 508.023 507.579 601.77>
Fore
687 737 m 2
 811 737 905 658 905 539 c 0
 905 523 903 508 900 491 c 2
 858 297 l 2
 820 127 648 -0 481 0 c 2
 216 0 l 2
 173 0 144 30 144 64 c 0
 144 68 144 73 145 77 c 2
 199 333 l 1
 130 333 l 1
 149 421 l 1
 219 421 l 1
 285 737 l 1
 687 737 l 2
793 525 m 0
 793 596 749 654 671 654 c 2
 381 654 l 1
 332 421 l 1
 594 421 l 1
 574 333 l 1
 312 333 l 1
 259 84 l 1
 497 84 l 2
 613 84 725 186 748 297 c 2
 790 491 l 2
 792 503 793 514 793 525 c 0
EndSplineSet
EndChar
StartChar: multiply
Encoding: 215 215 152
Width: 700
VWidth: 1507
Flags: W
HStem: 118 447<535 631 631 631>
Fore
488 339 m 1
 618 181 l 1
 535 118 l 1
 403 274 l 1
 209 118 l 1
 191 140 167 157 154 182 c 1
 348 341 l 1
 333 358 221 496 219 499 c 1
 304 564 l 1
 432 407 l 1
 631 565 l 1
 656 539 663 518 686 500 c 1
 488 339 l 1
EndSplineSet
EndChar
StartChar: Oslash
Encoding: 216 216 153
Width: 780
VWidth: 1507
Flags: W
HStem: -15 84<293.656 494.717> 669 85<420.715 615.912>
VStem: 91 116<165.52 227.699 225.092 230.305 230.305 246 246 261.791> 704 112<475.209 491 491 502.757 502.757 508.336 505.547 564.384>
Fore
304 -15 m 2
 258 -15 214 2 188 15 c 1
 174 1 162 -13 152 -26 c 1
 36 -26 l 1
 128 72 l 1
 100 113 91 161 91 199 c 0
 91 214 93 230 96 246 c 2
 139 440 l 2
 175 615 357 754 522 754 c 2
 607 754 l 2
 616 754 665 758 725 721 c 1
 763 760 l 1
 874 760 l 1
 784 663 l 1
 809 627 821 586 821 542 c 0
 821 526 819 509 816 491 c 2
 773 297 l 2
 738 129 561 -15 392 -15 c 2
 304 -15 l 2
210 246 m 2
 208 234 207 220 207 204 c 0
 207 189 208 175 211 164 c 1
 656 644 l 1
 636 661 614 669 589 669 c 2
 503 669 l 2
 391 669 275 553 252 440 c 2
 210 246 l 2
704 491 m 2
 707 503 708 514 708 526 c 0
 708 541 706 556 701 571 c 1
 256 90 l 1
 275 76 298 69 323 69 c 2
 410 69 l 2
 522 69 639 182 662 297 c 2
 704 491 l 2
EndSplineSet
EndChar
StartChar: Thorn
Encoding: 222 222 159
Width: 646
VWidth: 1507
Flags: W
HStem: 0 21G<84 200.217> 166 84<249 447.513> 526 84<326 513.417> 735 20G<239.762 356>
VStem: 563 114<346.707 482.505>
Fore
677 443 m 0
 677 332 592 166 308 166 c 2
 231 166 l 1
 196 0 l 1
 84 0 l 1
 244 755 l 1
 356 755 l 1
 326 610 l 1
 445 610 l 2
 587 610 677 543 677 443 c 0
563 423 m 0
 563 497 491 526 427 526 c 2
 308 526 l 1
 249 250 l 1
 326 250 l 2
 522 250 563 365 563 423 c 0
EndSplineSet
EndChar
StartChar: uni00DF
Encoding: 223 223 160
Width: 657
VWidth: 1507
Flags: W
HStem: -188 21G<20 134.248> -14 91<344.45 468.765> 660 83<364.691 531.462>
VStem: 402 111<332.607 429.597> 520 113<124.252 222.415> 552 111<543.3 558 558 567.477 567.477 570.094 568.785 638.309>
Fore
399 77 m 0xf8
 475 77 520 136 520 175 c 0xf8
 520 241 402 277 402 374 c 0
 402 439 454 494 547 537 c 1
 552 558 l 2
 553 564 554 570 554 577 c 0
 554 617 530 660 491 660 c 2
 429 660 l 2
 366 660 296 591 281 523 c 2
 130 -188 l 1
 20 -188 l 1
 171 523 l 2
 196 639 319 743 447 743 c 2
 509 743 l 2
 608 743 667 674 667 594 c 0
 667 582 666 570 663 558 c 2xf4
 646 482 l 1
 526 442 513 416 513 384 c 0
 513 307 633 289 633 193 c 0
 633 110 551 -14 380 -14 c 0
 327 -14 256 10 220 33 c 1
 280 118 l 1
 333 88 373 77 399 77 c 0xf8
EndSplineSet
EndChar
StartChar: ae
Encoding: 230 230 167
Width: 975
VWidth: 1507
Flags: W
HStem: -6 83<206.739 226 226 372.673 591.823 760.1> 264 75<272.575 481 606 868> 454 84<323.838 478.832 683.991 849.452>
VStem: 81 113<85.4638 194.96> 868 115<339 362.977 362.977 370.023 366.5 432.065>
Fore
500 369 m 2
 500 398 484 454 439 454 c 2
 344 454 l 2
 317 454 285 439 247 409 c 1
 205 484 l 1
 287 536 339 538 362 538 c 2
 457 538 l 2
 517 538 563 503 589 469 c 1
 629 499 696 537 767 537 c 2
 829 537 l 2
 918 537 986 477 986 387 c 0
 986 376 985 365 983 353 c 2
 965 264 l 1
 591 264 l 1
 571 176 l 2
 570 170 569 164 569 158 c 0
 569 114 595 75 632 75 c 2
 695 75 l 2
 760 75 826 137 841 210 c 1
 953 210 l 1
 922 79 795 -8 677 -8 c 2
 614 -8 l 2
 531 -8 493 36 476 68 c 1
 432 31 364 -6 289 -6 c 2
 226 -6 l 2
 119 -6 81 71 81 122 c 0
 81 238 223 339 351 339 c 2
 496 339 l 1
 500 359 l 1
 500 369 l 2
194 136 m 0
 194 112 204 77 243 77 c 2
 306 77 l 2
 360 77 443 126 469 211 c 2
 481 264 l 1
 336 264 l 2
 284 264 194 208 194 136 c 0
873 373 m 0
 873 419 845 452 811 452 c 2
 749 452 l 2
 683 452 627 396 606 339 c 1
 868 339 l 1
 871 353 l 2
 872 359 873 366 873 373 c 0
EndSplineSet
EndChar
StartChar: ccedilla
Encoding: 231 231 168
Width: 572
VWidth: 1507
Flags: W
HStem: -191 51<240.687 276.492> -8 83<208.184 229 328 381.273> 452 85<301.291 473.235>
VStem: 74 113<93.7831 164.703 163.906 165.5 165.5 176 176 192.217> 145 76<-136.864 -90.9639 -91.8816 -90.0461 -90.0461 -80> 297 87<-124.855 -79.6403> 456 112<126.493 203> 487 111<354 366.523 366.523 367.726 367.125 434.612>
Fore
258 -140 m 0xee
 272 -140 297 -134 297 -108 c 0
 297 -71 226 -76 226 -26 c 0
 226 -21 227 -15 229 -8 c 1
 138 -8 74 56 74 140 c 0
 74 152 75 164 78 176 c 2
 108 315 l 2
 133 431 255 537 384 537 c 2
 444 537 l 2
 536 537 603 482 603 395 c 0
 603 382 601 368 598 354 c 1
 487 354 l 1
 489 363 490 371 490 379 c 0
 490 421 465 452 426 452 c 2
 366 452 l 2
 298 452 234 385 219 315 c 2
 189 176 l 2
 188 169 187 162 187 155 c 0xf5
 187 116 207 75 250 75 c 2
 311 75 l 2
 374 75 439 123 456 203 c 1
 568 203 l 1
 541 76 431 7 328 -5 c 1
 331 -33 347 -24 375 -63 c 0
 381 -71 384 -81 384 -91 c 0
 384 -103 377 -153 333 -173 c 0
 308 -185 278 -191 245 -191 c 2
 232 -191 l 2
 162 -182 145 -145 145 -111 c 0
 145 -100 147 -90 149 -80 c 1
 223 -80 l 1
 221 -88 221 -94 221 -100 c 0
 221 -136 247 -140 258 -140 c 0xee
EndSplineSet
EndChar
StartChar: eth
Encoding: 240 240 177
Width: 679
VWidth: 1507
Flags: W
HStem: -14 80<260.255 431.641> 474 79<339.136 487.312>
VStem: 88 104<133.005 312.992> 581 115<247.669 415.872>
Fore
88 200 m 0
 88 391 267 553 448 553 c 0
 482 553 515 548 548 537 c 1
 527 570 499 606 471 633 c 1
 406 601 334 576 267 547 c 1
 250 621 l 1
 400 683 l 1
 365 703 334 718 289 733 c 1
 345 812 l 1
 459 757 476 748 505 727 c 1
 562 747 624 777 676 800 c 1
 697 724 l 1
 568 672 l 1
 671 567 696 464 696 383 c 0
 696 143 522 -14 323 -14 c 0
 185 -14 88 70 88 200 c 0
420 474 m 0
 300 474 192 342 192 214 c 0
 192 111 270 66 338 66 c 0
 484 66 581 197 581 337 c 0
 581 406 552 438 507 456 c 0
 474 470 445 474 420 474 c 0
EndSplineSet
EndChar
StartChar: divide
Encoding: 247 247 184
Width: 700
VWidth: 1507
Flags: W
HStem: 122 128<307.575 404.218> 297 86<128 629> 421 126<369.929 467.25>
VStem: 279 153<149.283 221.794> 342 153<448.283 520.088>
Fore
110 297 m 1xe0
 128 383 l 1
 647 383 l 1
 629 297 l 1
 110 297 l 1xe0
342 471 m 0xe8
 342 513 382 547 433 547 c 256
 470 547 495 527 495 498 c 0
 495 453 451 421 405 421 c 256
 370 421 342 441 342 471 c 0xe8
279 172 m 0xf0
 279 212 317 250 369 250 c 256
 407 250 432 230 432 199 c 0xf0
 432 161 396 122 342 122 c 256xe8
 306 122 279 142 279 172 c 0xf0
EndSplineSet
EndChar
StartChar: oslash
Encoding: 248 248 185
Width: 589
VWidth: 1507
Flags: W
HStem: -8 83<236.297 381.445> 452 85<306.467 451.016>
VStem: 190 1<163 168>
Fore
163 8 m 1
 146 -7 145 -12 131 -24 c 1
 17 -24 l 1
 101 66 l 1
 81 97 79 125 79 139 c 0
 79 151 80 163 83 176 c 2
 113 315 l 2
 136 431 261 537 389 537 c 2
 452 537 l 2
 483 537 508 531 526 520 c 1
 541 535 546 543 559 553 c 1
 672 553 l 1
 588 463 l 1
 602 441 608 417 608 391 c 0
 608 379 607 366 604 353 c 2
 574 213 l 2
 549 83 415 -8 298 -8 c 2
 237 -8 l 2
 200 -8 176 1 163 8 c 1
494 353 m 2
 495 357 496 361 496 364 c 2
 496 366 l 1
 232 81 l 1
 237 77 245 75 255 75 c 2
 317 75 l 2
 384 75 454 149 464 213 c 2
 494 353 l 2
194 176 m 2
 193 171 191 168 191 168 c 1
 190 168 190 168 190 170 c 1
 191 163 l 1
 457 446 l 1
 449 450 441 452 434 452 c 2
 371 452 l 2
 307 452 242 390 225 315 c 2
 194 176 l 2
EndSplineSet
EndChar
StartChar: thorn
Encoding: 254 254 191
Width: 719
VWidth: 1507
Flags: W
HStem: -8 83<288.51 458.393> 452 85<382.47 551.427>
VStem: 571 110<336.667 353 353 364 364 365.317 364.658 431.471>
Fore
529 537 m 2
 628 537 685 464 685 389 c 0
 685 378 684 365 681 353 c 2
 651 213 l 2
 626 83 492 -8 375 -8 c 2
 314 -8 l 2
 284 -8 258 -0 237 9 c 1
 187 -225 l 1
 75 -225 l 1
 277 730 l 1
 389 730 l 1
 341 503 l 1
 380 526 422 537 467 537 c 2
 529 537 l 2
270 158 m 0
 270 121 288 75 332 75 c 2
 393 75 l 2
 461 75 531 146 541 213 c 2
 571 353 l 2
 573 360 574 368 574 375 c 0
 574 403 555 452 511 452 c 2
 449 452 l 2
 388 452 317 391 303 321 c 2
 271 176 l 2
 270 170 270 164 270 158 c 0
EndSplineSet
EndChar
StartChar: Lslash
Encoding: 321 321 193
Width: 716
VWidth: 1507
Flags: W
HStem: 0 84<222 665> 517 20G<400.176 426.862> 717 20G<242.746 360>
Fore
74 315 m 1
 170 375 l 1
 247 737 l 1
 360 737 l 1
 300 452 l 1
 431 537 l 1
 407 421 l 1
 277 341 l 1
 222 84 l 1
 681 84 l 1
 665 0 l 1
 92 0 l 1
 146 259 l 1
 50 199 l 1
 74 315 l 1
EndSplineSet
EndChar
StartChar: lslash
Encoding: 322 322 194
Width: 324
VWidth: 1507
Flags: MW
HStem: 0 21G<106 220.171> 515 20G<377.794 402.772>
Fore
89 314 m 1
 185 381 l 1
 259 730 l 1
 369 730 l 1
 315 472 l 1
 407 535 l 1
 381 412 l 1
 289 350 l 1
 216 0 l 1
 106 0 l 1
 160 259 l 1
 68 196 l 1
 89 314 l 1
EndSplineSet
EndChar
StartChar: OE
Encoding: 338 338 195
Width: 1214
VWidth: 1507
Flags: W
HStem: 0 92<258.17 517.653 666 1144> 338 90<739 1138> 647 90<410.998 661.189 785 1281>
VStem: 96 113<141.595 233.182 232.68 233.684 233.684 246 246 262.167>
Fore
315 0 m 2
 168 0 96 99 96 197 c 0
 96 213 97 229 101 246 c 2
 143 440 l 2
 183 622 359 737 523 737 c 2
 1299 737 l 1
 1281 647 l 1
 785 647 l 1
 739 428 l 1
 1158 428 l 1
 1138 338 l 1
 719 338 l 1
 666 92 l 1
 1162 92 l 1
 1144 0 l 1
 315 0 l 2
209 210 m 0
 209 148 252 92 333 92 c 2
 419 92 l 2
 481 92 529 115 567 143 c 1
 668 621 l 1
 648 634 621 647 589 647 c 2
 505 647 l 2
 380 647 276 541 255 440 c 2
 213 246 l 2
 210 233 209 222 209 210 c 0
EndSplineSet
EndChar
StartChar: oe
Encoding: 339 339 196
Width: 990
VWidth: 1507
Flags: W
HStem: -8 83<213.792 381.833 586.609 758.051> 264 75<603 865> 452 85<308.903 478.102 677.51 850.439>
VStem: 81 113<95.0518 163.25 159.5 167 167 191.694> 838 112<131.266 210> 865 115<339 364 364 370.023 367.012 431.514>
Fore
826 537 m 2xf8
 915 537 983 477 983 387 c 0
 983 376 982 365 980 353 c 2xf4
 962 264 l 1
 588 264 l 1
 568 176 l 2
 567 170 566 164 566 158 c 0
 566 121 585 75 629 75 c 2
 692 75 l 2
 758 75 822 134 838 210 c 1
 950 210 l 1
 920 77 794 -8 674 -8 c 2
 610 -8 l 2
 545 -8 501 22 478 59 c 1
 434 25 371 -8 300 -8 c 2
 238 -8 l 2
 150 -8 81 54 81 143 c 0
 81 154 82 165 84 176 c 2
 115 315 l 2
 139 433 265 537 390 537 c 2
 454 537 l 2
 533 537 571 487 585 467 c 1
 629 506 683 537 764 537 c 2
 826 537 l 2xf8
194 158 m 0
 194 121 214 75 256 75 c 2
 318 75 l 2
 386 75 454 149 466 213 c 2
 496 353 l 2
 498 360 498 367 498 373 c 0
 498 411 474 452 436 452 c 2
 372 452 l 2
 301 452 240 380 226 315 c 2
 196 176 l 2
 195 170 194 164 194 158 c 0
871 375 m 0
 871 403 852 452 808 452 c 2
 746 452 l 2
 680 452 624 396 603 339 c 1
 865 339 l 1
 868 353 l 2
 870 360 871 368 871 375 c 0
EndSplineSet
EndChar
StartChar: florin
Encoding: 402 402 202
Width: 791
VWidth: 1507
Flags: W
HStem: -220 90<15 137.431> 460 69<345 443 574 666> 724 90<761.99 883>
Fore
437 74 m 2
 383 -102 196 -220 -11 -220 c 1
 15 -130 l 1
 112 -130 277 -88 327 77 c 2
 443 460 l 1
 327 460 l 1
 345 529 l 1
 464 529 l 1
 521 699 706 814 909 814 c 1
 883 724 l 1
 738 724 619 646 574 529 c 1
 684 529 l 1
 666 460 l 1
 553 460 l 1
 437 74 l 2
EndSplineSet
EndChar
StartChar: circumflex
Encoding: 710 710 203
Width: 512
VWidth: 1507
Flags: W
HStem: 736 197<493 502 416 604 416 416>
VStem: 229 375<736 736 736 924>
Fore
416 933 m 1
 502 933 l 1
 604 736 l 1
 493 736 l 1
 440 844 l 1
 341 736 l 1
 229 736 l 1
 416 933 l 1
EndSplineSet
EndChar
StartChar: caron
Encoding: 711 711 204
Width: 512
VWidth: 1507
Flags: W
HStem: 736 197<374 383 271 460 271 271>
VStem: 271 376<933 933 933 1122>
Fore
271 933 m 1
 383 933 l 1
 436 825 l 1
 535 933 l 1
 647 933 l 1
 460 736 l 1
 374 736 l 1
 271 933 l 1
EndSplineSet
EndChar
StartChar: breve
Encoding: 728 728 205
Width: 494
VWidth: 1507
Flags: W
HStem: 626 70<342.19 449.189>
VStem: 224 96<717.786 797.971 797.274 798.669 798.669 811> 506 95<739.65 811>
Fore
392 696 m 0
 450 696 494 755 506 811 c 1
 601 811 l 1
 577 707 481 626 377 626 c 0
 281 626 224 694 224 770 c 0
 224 783 226 797 229 811 c 1
 324 811 l 1
 322 800 320 790 320 780 c 0
 320 748 335 696 392 696 c 0
EndSplineSet
EndChar
StartChar: dotaccent
Encoding: 729 729 206
Width: 266
VWidth: 1507
Flags: W
HStem: 638 128<233.352 326.808>
VStem: 204 152<666.398 736.627>
Fore
204 688 m 0
 204 719 236 766 294 766 c 256
 330 766 356 747 356 718 c 0
 356 678 320 638 267 638 c 256
 230 638 204 658 204 688 c 0
EndSplineSet
EndChar
StartChar: ring
Encoding: 730 730 207
Width: 459
VWidth: 1507
Flags: W
HStem: 595 73<338.54 406.15> 758 71<348.945 412.976>
VStem: 243 93<669.559 746.072> 417 92<677.982 756.211>
Fore
243 686 m 0
 243 758 311 829 401 829 c 0
 477 829 509 777 509 736 c 0
 509 651 422 595 351 595 c 0
 270 595 243 650 243 686 c 0
386 758 m 256
 353 758 336 722 336 698 c 0
 336 680 349 668 368 668 c 256
 393 668 417 692 417 721 c 0
 417 742 405 758 386 758 c 256
EndSplineSet
EndChar
StartChar: tilde
Encoding: 732 732 209
Width: 318
VWidth: 1507
Flags: MW
HStem: 610 76<346.634 423.638> 710 74<180.522 243.733>
VStem: 59 83<635.632 709.824> 461 85<704.666 778>
Fore
59 618 m 1
 84 733 177 784 229 784 c 0
 339 784 322 686 389 686 c 0
 403 686 441 710 461 778 c 1
 546 778 l 1
 525 675 434 610 374 610 c 0
 250 610 257 710 214 710 c 0
 200 710 165 689 142 618 c 1
 59 618 l 1
EndSplineSet
EndChar
StartChar: uni0E01
Encoding: 3585 3585 212
Width: 645
VWidth: 1507
Flags: W
HStem: 0 21G<99 215.25 448 560.204> 531 83<318.766 528.074>
VStem: 168 111<303.529 326 326 329.477 327.738 376.968> 543 108<435.347 459.5 459.5 466.531 463.484 500.728>
Fore
537 614 m 2
 595 614 654 560 654 482 c 0
 654 472 653 462 651 452 c 2
 556 0 l 1
 448 0 l 1
 543 452 l 2
 544 457 544 462 544 467 c 0
 544 487 535 531 469 531 c 2
 393 531 l 2
 329 531 266 482 232 431 c 1
 247 425 280 401 280 339 c 0
 280 332 279 326 279 320 c 1
 211 0 l 1
 99 0 l 1
 167 320 l 2
 168 324 168 328 168 332 c 0
 168 357 150 386 115 390 c 1
 148 510 286 614 416 614 c 2
 537 614 l 2
EndSplineSet
EndChar
StartChar: uni0E02
Encoding: 3586 3586 213
Width: 607
VWidth: 1507
Flags: W
HStem: 2 81<380 432.271> 323 52<183.979 268.985> 547 67<265.918 356.702>
VStem: 112 66<380.389 462.806> 289 53<394.642 478.244> 385 73<415.688 517.35>
Fore
318 614 m 0
 432 611 458 539 458 485 c 0
 458 470 456 454 452 437 c 2
 380 83 l 1
 400 83 457 107 467 152 c 2
 565 614 l 1
 660 614 l 1
 564 163 l 2
 547 76 449 2 363 2 c 2
 338 2 l 2
 297 2 265 29 265 64 c 0
 265 69 266 74 267 80 c 2
 304 258 l 2
 325 340 385 387 385 456 c 0
 385 500 355 547 304 547 c 0
 281 547 267 537 265 535 c 1
 326 535 342 484 342 454 c 0
 342 396 290 323 213 323 c 0
 148 323 112 367 112 421 c 0
 112 504 189 614 318 614 c 0
246 484 m 256
 211 484 178 453 178 419 c 0
 178 396 193 375 222 375 c 256
 256 375 289 407 289 441 c 0
 289 465 272 484 246 484 c 256
EndSplineSet
EndChar
StartChar: uni0E03
Encoding: 3587 3587 214
Width: 625
VWidth: 1507
Flags: W
HStem: 0 83<389 442.688> 308 46<161.478 246.107> 463 45<215.065 260.234> 594 20G<572.758 672>
VStem: 96 60<369.73 443.386> 266 47<372.537 458.201> 458 64<462.146 530.005>
Fore
348 0 m 2
 309 0 275 29 275 64 c 0
 275 68 276 73 277 78 c 2
 318 271 l 2
 330 331 346 352 370 374 c 2
 404 404 l 2
 424 421 458 465 458 506 c 0
 458 517 456 526 452 534 c 1
 366 469 l 1
 291 546 l 1
 243 541 219 515 214 508 c 1
 234 508 l 2
 271 508 313 472 313 426 c 0
 313 383 275 308 190 308 c 0
 149 308 96 331 96 410 c 0
 96 526 224 617 321 617 c 1
 384 552 l 1
 467 617 l 1
 504 598 522 565 522 517 c 0
 522 495 517 459 500 428 c 2
 474 382 l 2
 443 328 436 306 433 286 c 2
 389 83 l 1
 424 86 470 114 479 152 c 2
 577 614 l 1
 672 614 l 1
 576 163 l 2
 561 85 467 0 374 0 c 2
 348 0 l 2
223 463 m 256
 189 463 156 434 156 396 c 0
 156 379 166 354 199 354 c 256
 235 354 266 385 266 421 c 0
 266 443 251 463 223 463 c 256
EndSplineSet
EndChar
StartChar: uni0E04
Encoding: 3588 3588 215
Width: 687
VWidth: 1507
Flags: W
HStem: 0 21G<75 213.682 494 610.204> 202 50<353.545 441.492> 360 53<368.707 454.906> 531 83<371.901 579.844>
VStem: 461 64<271.839 354.163> 589 112<435.347 452 452 462 462 464.652 463.326 518.306>
Fore
383 202 m 0
 359 202 343 206 327 214 c 1
 202 0 l 1
 75 0 l 1
 155 383 l 2
 180 498 326 614 448 614 c 2
 559 614 l 2
 652 614 705 558 705 489 c 0
 705 477 704 465 701 452 c 2
 606 0 l 1
 494 0 l 1
 589 452 l 2
 591 459 592 465 592 472 c 0
 592 502 570 531 541 531 c 2
 434 531 l 2
 367 531 282 450 267 383 c 2
 228 196 l 1
 297 339 l 2
 323 382 372 413 428 413 c 0
 495 413 525 368 525 327 c 0
 525 256 448 202 383 202 c 0
416 360 m 256
 376 360 349 323 349 292 c 0
 349 268 369 252 393 252 c 256
 431 252 461 286 461 317 c 0
 461 341 444 360 416 360 c 256
EndSplineSet
EndChar
StartChar: uni0E05
Encoding: 3589 3589 216
Width: 691
VWidth: 1507
Flags: W
HStem: 0 21G<494 610.185> 203 50<355.446 441.244> 362 53<369.627 454.941> 595 20G<371.5 432.839 566.043 613>
VStem: 461 64<273.391 356.414> 589 112<437.274 465.523 465.523 466 465.762 513.267>
Fore
383 203 m 0
 359 203 343 208 327 216 c 1
 202 2 l 1
 75 2 l 1
 157 384 l 2
 182 497 325 607 418 615 c 1
 487 522 l 1
 588 614 l 1
 638 609 703 551 703 478 c 0
 703 470 703 462 701 454 c 2
 606 0 l 1
 494 0 l 1
 589 454 l 2
 591 462 592 470 592 477 c 0
 592 501 586 517 571 526 c 1
 469 437 l 1
 399 526 l 1
 336 509 280 441 268 384 c 2
 228 197 l 1
 298 341 l 2
 322 381 369 415 428 415 c 0
 495 415 525 370 525 329 c 0
 525 251 440 203 383 203 c 0
418 362 m 256
 383 362 350 331 350 297 c 0
 350 273 366 253 393 253 c 256
 428 253 461 285 461 319 c 0
 461 343 444 362 418 362 c 256
EndSplineSet
EndChar
StartChar: uni0E06
Encoding: 3590 3590 217
Width: 771
VWidth: 1507
Flags: W
HStem: 0 21G<240.5 292 578 688.235> 308 46<162.603 248.195> 463 45<216.848 262.792> 594 20G<700.796 814>
VStem: 98 59<359.529 442.581> 167 70<57.4848 161.853> 268 46<374.293 457.766> 460 64<443.701 530.631>
Fore
469 617 m 1
 503 600 524 570 524 516 c 0
 524 420 451 369 434 286 c 2
 425 247 l 1
 499 228 557 192 606 143 c 1
 705 614 l 1
 814 614 l 1
 684 0 l 1
 583 0 l 1
 573 19 528 106 407 146 c 1
 387 54 l 1
 366 31 l 2
 341 5 313 -2 271 -2 c 256
 210 -2 167 53 167 101 c 0
 167 172 251 241 314 241 c 1
 320 271 l 2
 331 325 340 345 372 374 c 2
 405 404 l 2
 430 425 460 467 460 508 c 0
 460 518 458 527 454 534 c 1
 368 469 l 1
 292 546 l 1
 254 542 230 525 216 508 c 1
 235 508 l 2
 272 508 314 473 314 428 c 0
 314 381 274 308 191 308 c 0
 138 308 98 346 98 410 c 0
 98 526 226 617 323 617 c 1
 386 552 l 1
 469 617 l 1
225 463 m 256
 190 463 157 432 157 398 c 0
 157 374 173 354 200 354 c 256
 235 354 268 386 268 420 c 0
 268 444 251 463 225 463 c 256
304 191 m 1
 256 180 237 132 237 106 c 0
 237 77 257 55 274 45 c 1
 304 191 l 1
EndSplineSet
EndChar
StartChar: uni0E07
Encoding: 3591 3591 218
Width: 563
VWidth: 1507
Flags: W
HStem: 0 21G<351.5 485.196> 402 50<420.231 454> 561 49<432.572 518.491>
VStem: 355 59<456.762 541.828> 524 66<490.949 555.823>
Fore
496 610 m 0
 551 610 590 571 590 529 c 0
 590 523 589 516 588 510 c 2
 481 0 l 1
 390 0 l 2
 313 0 276 46 261 78 c 2
 104 410 l 1
 229 410 l 1
 368 104 l 2
 373 94 374 95 387 89 c 1
 454 402 l 1
 400 402 355 440 355 489 c 0
 355 550 426 610 496 610 c 0
481 561 m 256
 445 561 414 530 414 494 c 0
 414 472 429 452 457 452 c 256
 487 452 524 479 524 519 c 0
 524 542 507 561 481 561 c 256
EndSplineSet
EndChar
StartChar: uni0E08
Encoding: 3592 3592 219
Width: 628
VWidth: 1507
Flags: W
HStem: 0 21G<274 418> 193 50<279.351 315> 351 50<293.062 379.738> 531 83<305.761 527.496>
VStem: 217 56<248.981 330.589> 385 66<281.036 345.822> 540 98<434.888 459 459 464.5 461.75 503.383>
Fore
499 614 m 2
 577 614 641 555 641 478 c 0
 641 469 640 460 638 451 c 2
 576 157 l 2
 561 81 461 0 375 0 c 2
 274 0 l 1
 315 193 l 1
 256 193 217 236 217 279 c 0
 217 348 294 401 356 401 c 0
 413 401 451 359 451 317 c 0
 451 312 450 306 449 300 c 2
 407 101 l 1
 426 103 471 120 482 184 c 2
 540 451 l 2
 541 456 542 462 542 467 c 0
 542 486 530 531 491 531 c 2
 381 531 l 2
 308 531 234 465 199 415 c 1
 119 443 l 1
 173 527 276 611 399 614 c 2
 499 614 l 2
341 351 m 256
 303 351 273 317 273 286 c 0
 273 262 290 243 318 243 c 256
 358 243 385 280 385 311 c 0
 385 335 365 351 341 351 c 256
EndSplineSet
EndChar
StartChar: uni0E09
Encoding: 3593 3593 220
Width: 661
VWidth: 1507
Flags: W
HStem: 0 60<501.276 585.874> 128 50<143.469 199.725> 286 50<157.031 242.655> 531 83<295.315 549.421>
VStem: 79 59<183.323 267.214> 248 67<216.05 281.24> 428 67<66.2789 115.836> 563 112<449.398 505.572> 607 69<80.1811 163.093>
Fore
205 286 m 256xfe
 170 286 138 257 138 220 c 0
 138 196 156 178 182 178 c 256
 217 178 248 209 248 245 c 0
 248 269 231 286 205 286 c 256xfe
522 0 m 0
 447 0 428 48 428 79 c 0
 428 85 429 91 430 98 c 1
 361 63 330 37 262 0 c 1
 173 0 l 1
 200 131 l 1
 198 130 181 128 179 128 c 0
 133 128 79 160 79 217 c 0
 79 272 147 336 220 336 c 0
 281 336 315 291 315 251 c 0
 315 246 315 240 314 235 c 2
 285 106 l 1
 379 156 421 190 516 238 c 1
 561 449 l 2
 563 456 563 462 563 469 c 0
 563 488 553 531 511 531 c 2
 375 531 l 2
 283 531 216 451 191 410 c 1
 104 410 l 1
 135 501 244 614 393 614 c 2
 532 614 l 2
 607 614 675 559 675 478 c 0xff
 675 468 674 459 672 449 c 2
 624 222 l 1
 669 201 676 161 676 141 c 0xfe80
 676 56 583 0 522 0 c 0
562 169 m 256
 525 169 495 134 495 101 c 0
 495 78 514 60 540 60 c 256
 576 60 607 96 607 125 c 0xfe80
 607 149 590 169 562 169 c 256
EndSplineSet
EndChar
StartChar: uni0E0A
Encoding: 3594 3594 221
Width: 621
VWidth: 1507
Flags: W
HStem: 0 83<377 430.125> 323 52<183.979 268.985> 547 67<265.918 356.681>
VStem: 112 66<380.389 462.806> 289 53<394.642 478.244> 385 72<473 517.619>
Fore
516 377 m 2
 517 383 495 413 448 413 c 1
 377 83 l 1
 413 83 459 115 467 154 c 2
 516 377 l 2
112 421 m 0
 112 504 189 614 318 614 c 0
 432 611 457 537 457 483 c 2
 457 473 l 1
 556 515 595 570 632 699 c 1
 745 699 l 1
 714 622 l 2
 661 495 598 456 559 439 c 1
 589 419 607 399 612 386 c 1
 564 163 l 2
 548 77 451 0 365 0 c 2
 338 0 l 2
 293 0 265 32 265 62 c 0
 265 67 266 72 267 78 c 2
 304 258 l 2
 325 340 385 387 385 456 c 0
 385 500 355 547 304 547 c 0
 281 547 267 537 265 535 c 1
 326 535 342 484 342 454 c 0
 342 396 290 323 213 323 c 0
 148 323 112 367 112 421 c 0
246 484 m 256
 211 484 178 453 178 419 c 0
 178 396 193 375 222 375 c 256
 256 375 289 407 289 441 c 0
 289 465 272 484 246 484 c 256
EndSplineSet
EndChar
StartChar: uni0E0B
Encoding: 3595 3595 222
Width: 622
VWidth: 1507
Flags: W
HStem: 0 83<386 441.073> 308 46<159.603 245.195> 463 45<213.848 259.792>
VStem: 95 59<359.529 442.581> 265 46<374.293 457.766>
Fore
347 0 m 2
 309 0 274 28 274 62 c 0
 274 68 275 73 276 78 c 2
 317 271 l 2
 328 325 337 345 370 374 c 2
 402 404 l 2
 425 424 457 468 457 511 c 0
 457 520 455 528 451 534 c 1
 365 469 l 1
 289 546 l 1
 251 542 227 525 213 508 c 1
 232 508 l 2
 269 508 311 473 311 428 c 0
 311 381 271 308 188 308 c 0
 135 308 95 346 95 410 c 0
 95 526 223 617 320 617 c 1
 383 552 l 1
 466 617 l 1
 516 590 521 541 521 519 c 0
 521 515 520 510 520 506 c 1
 568 532 597 563 622 636 c 2
 644 704 l 1
 754 704 l 1
 717 596 689 498 583 449 c 1
 614 428 627 410 624 393 c 2
 574 163 l 2
 557 75 457 0 372 0 c 2
 347 0 l 2
488 407 m 1
 454 347 l 2
 442 327 435 307 430 286 c 2
 386 83 l 1
 422 83 468 115 476 154 c 2
 525 378 l 1
 522 386 510 407 488 407 c 1
222 463 m 256
 187 463 154 432 154 398 c 0
 154 374 170 354 197 354 c 256
 232 354 265 386 265 420 c 0
 265 444 248 463 222 463 c 256
EndSplineSet
EndChar
StartChar: uni0E0C
Encoding: 3596 3596 223
Width: 921
VWidth: 1507
Flags: W
HStem: 0 53<191.48 278.56> 161 52<255 292.319> 175 50<432.855 473.736> 531 83<324.73 528.805>
VStem: 118 68<58.8709 103.643> 167 110<303.357 326 326 329.477 327.738 376.696> 298 52<72.1913 155.28> 372 49<49.4473 151.375> 541 113<452.375 520.327>
Fore
479 175 m 1xb380
 451 172 421 131 421 98 c 0
 421 73 436 48 452 44 c 1
 479 175 l 1xb380
464 2 m 0
 389 2 372 51 372 83 c 0
 372 120 396 209 490 225 c 1
 538 452 l 2
 540 459 541 466 541 473 c 0
 541 503 521 531 491 531 c 2
 393 531 l 2
 339 531 264 475 235 431 c 1
 264 415 279 384 279 341 c 0
 279 333 279 325 277 318 c 2xb780
 255 213 l 1
 264 213 l 2
 325 213 350 163 350 126 c 0
 350 77 304 0 220 0 c 0
 165 0 118 38 118 80 c 2
 118 87 l 1xdb80
 167 320 l 2
 168 324 168 328 168 332 c 0
 168 357 150 386 115 390 c 1
 148 510 286 614 416 614 c 2
 510 614 l 2
 576 614 654 563 654 479 c 0
 654 470 653 461 651 452 c 2
 600 213 l 1xd780
 655 192 707 164 743 124 c 1
 847 614 l 1
 957 614 l 1
 828 0 l 1
 727 0 l 1
 646 102 620 116 583 130 c 1
 565 44 l 1
 513 7 484 2 464 2 c 0
253 161 m 256xdb80
 216 161 186 127 186 93 c 0
 186 69 206 53 231 53 c 256
 268 53 298 88 298 118 c 0
 298 142 281 161 253 161 c 256xdb80
EndSplineSet
EndChar
StartChar: uni0E0D
Encoding: 3597 3597 224
Width: 927
VWidth: 1507
Flags: W
HStem: -261 82<456.994 599.701> -261 73<577 654.688> -71 42<471.217 556.574> 0 53<198.442 284.833> 0 98<585 727.237> 161 52<262 297.918> 531 83<331.733 536.085>
VStem: 175 110<303.69 325.023 325.023 329.477 327.25 376.104> 305 66<72.9721 154.988> 390 61<-172.906 -91.7509> 549 111<435.594 461 461 465.5 463.25 519.602> 562 60<-160.075 -76.6165> 858 111<177.01 614>
Fore
622 -110 m 0xa7d8
 622 -149 604 -167 577 -188 c 1
 583 -188 l 2x67d8
 651 -188 719 -129 752 -56 c 1
 849 -56 l 1
 800 -171 674 -261 558 -261 c 0
 466 -261 390 -219 390 -154 c 0
 390 -93 453 -29 528 -29 c 0
 581 -29 622 -62 622 -110 c 0xa7d8
122 390 m 1
 158 510 291 614 424 614 c 2
 517 614 l 2
 584 614 663 564 663 479 c 0
 663 470 662 461 660 452 c 2
 585 98 l 1
 684 98 l 2
 720 102 756 141 766 179 c 2
 858 614 l 1
 969 614 l 1
 874 164 l 2
 854 76 762 0 665 0 c 2
 546 0 l 2x2fe8
 495 0 469 35 469 70 c 2
 469 77 l 1
 549 452 l 2
 550 458 551 464 551 470 c 0
 551 503 528 531 499 531 c 2
 401 531 l 2
 343 531 273 475 243 431 c 1
 272 415 287 384 287 341 c 0
 287 333 287 325 285 318 c 2
 262 213 l 1
 271 213 l 2
 332 213 371 159 371 123 c 0
 371 65 301 0 228 0 c 0x37e8
 181 0 122 32 125 87 c 1
 175 320 l 2
 176 324 176 327 176 330 c 0
 176 361 153 387 122 390 c 1
261 161 m 256
 222 161 194 128 194 93 c 0
 194 69 214 53 238 53 c 256x37c8
 278 53 305 91 305 119 c 0
 305 144 286 161 261 161 c 256
519 -71 m 256
 484 -71 451 -102 451 -136 c 0
 451 -153 462 -179 494 -179 c 256
 528 -179 562 -150 562 -114 c 0xa7d8
 562 -90 545 -71 519 -71 c 256
EndSplineSet
Substitution2: "Single Substitution lookup 22 subtable" uni0E0D.alt1
Substitution2: "Single Substitution lookup 22 subtable" uni0E0D.alt1
EndChar
StartChar: uni0E0E
Encoding: 3598 3598 225
Width: 666
VWidth: 1507
Flags: W
HStem: -292 55<116.819 202.042> -128 48<129.376 215.377> 0 53<120.685 207.34> 161 52<135.154 200> 531 83<349.621 552.805>
VStem: 48 63<-232.18 -146.47 69.6761 137.385> 565 110<435.412 461.523 461.523 465.5 463.512 519.479>
Fore
137 393 m 1
 176 517 311 614 440 614 c 2
 534 614 l 2
 600 614 678 563 678 479 c 0
 678 470 677 461 675 452 c 2
 552 -134 l 1
 460 -261 354 -295 336 -301 c 1
 253 -228 l 1
 238 -267 192 -292 146 -292 c 0
 94 -292 48 -252 48 -204 c 0
 48 -139 121 -80 191 -80 c 0
 225 -80 252 -92 270 -109 c 2
 371 -182 l 1
 394 -168 419 -145 446 -112 c 1
 565 452 l 2
 567 459 568 465 568 471 c 0
 568 500 547 531 516 531 c 2
 418 531 l 2
 373 531 288 483 255 437 c 1
 311 430 337 371 337 333 c 0
 337 328 337 324 336 320 c 2
 289 101 l 2
 279 51 211 0 149 0 c 0
 83 0 53 50 53 90 c 0
 53 156 135 213 194 213 c 2
 200 213 l 1
 223 318 l 2
 229 352 173 391 137 393 c 1
182 161 m 256
 145 161 116 128 116 93 c 0
 116 79 125 53 160 53 c 256
 198 53 227 89 227 119 c 0
 227 143 209 161 182 161 c 256
176 -128 m 256
 143 -128 111 -158 111 -195 c 0
 111 -218 127 -237 154 -237 c 256
 187 -237 221 -207 221 -170 c 0
 221 -145 201 -128 176 -128 c 256
EndSplineSet
Substitution2: "Single Substitution lookup 22 subtable" uni0E0E.alt1
Substitution2: "Single Substitution lookup 22 subtable" uni0E0E.alt1
EndChar
StartChar: uni0E0F
Encoding: 3599 3599 226
Width: 664
VWidth: 1507
Flags: W
HStem: -265 54<72.2546 158.791> -103 53<87.2607 173.224> 0 53<120.685 207.34> 161 52<135.154 200> 531 83<349.621 552.805>
VStem: 4 63<-204.949 -123.136> 53 63<68.2908 142.462> 565 110<435.433 461.523 461.523 465.5 463.512 519.479>
Fore
137 393 m 1xfb
 176 517 311 614 440 614 c 2
 534 614 l 2
 600 614 678 563 678 479 c 0
 678 470 677 461 675 452 c 2
 555 -119 l 2
 535 -198 507 -235 393 -301 c 1
 338 -167 l 1
 320 -187 290 -233 256 -275 c 2
 234 -303 l 1
 200 -222 l 1
 181 -247 146 -265 104 -265 c 0
 36 -265 4 -212 4 -179 c 0xfd
 4 -103 87 -50 149 -50 c 0
 209 -50 250 -101 256 -132 c 2
 262 -167 l 1
 362 -33 l 1
 419 -167 l 1
 435 -148 438 -144 445 -116 c 2
 565 452 l 2
 567 459 568 465 568 471 c 0
 568 500 547 531 516 531 c 2
 418 531 l 2
 373 531 288 483 255 437 c 1
 311 430 337 371 337 333 c 0
 337 328 337 324 336 320 c 2
 289 101 l 2
 279 51 211 0 149 0 c 0
 83 0 53 50 53 90 c 0
 53 156 135 213 194 213 c 2
 200 213 l 1
 223 318 l 2
 229 352 173 391 137 393 c 1xfb
182 161 m 256
 145 161 116 128 116 93 c 0xfb
 116 79 125 53 160 53 c 256
 198 53 227 89 227 119 c 0
 227 143 209 161 182 161 c 256
134 -103 m 256
 97 -103 67 -139 67 -169 c 0xfd
 67 -194 87 -211 112 -211 c 256
 148 -211 178 -178 178 -143 c 0
 178 -129 169 -103 134 -103 c 256
EndSplineSet
Substitution2: "Single Substitution lookup 22 subtable" uni0E0F.alt1
Substitution2: "Single Substitution lookup 22 subtable" uni0E0F.alt1
EndChar
StartChar: uni0E10
Encoding: 3600 3600 227
Width: 584
VWidth: 1507
Flags: MW
HStem: -252 59<-19 64.5> -84 49<7 97> -35 33<371.5 456.752> 0 21G<207 298 207 207 207 298 207 207> 283 53<211.5 305> 481 84<465 554.5> 537 77<286 407.5>
VStem: -65 59<-187 -108.5> 126 66<183 262.5> 302 67<225 284.5> 313 41<-127.95 -54> 451 32<-88.3461 -36.236>
Fore
241 466 m 1
 334 450 434 420 541 354 c 1
 500 163 l 2
 482 80 391 -0 298 0 c 2
 207 0 l 1
 231 119 l 1
 225 119 l 2
 155 119 126 170 126 208 c 0
 126 274 202 336 271 336 c 0
 327 336 369 303 369 253 c 0
 369 245 368 237 366 228 c 2
 336 90 l 1
 387 109 398 126 405 163 c 2
 439 318 l 1
 363 364 227 392 119 407 c 1
 155 574 281 614 345 614 c 0
 419 614 473 571 531 565 c 0
 560 565 602 590 674 645 c 1
 671 562 l 1
 588 496 549 481 519 481 c 0
 457 481 396 537 329 537 c 0
 291 537 251 498 241 466 c 1
415 -2 m 256
 456 -2 483 -24 483 -58 c 0
 483 -63 482 -69 481 -75 c 2
 476 -93 l 2
 457 -179 422 -261 283 -300 c 1
 225 -182 l 1
 131 -300 l 1
 107 -211 l 1
 89 -229 58 -252 26 -252 c 0
 -47 -252 -65 -201 -65 -167 c 0
 -65 -109 -17 -35 69 -35 c 0
 105 -35 151 -51 152 -80 c 2
 166 -170 l 1
 249 -66 l 1
 323 -213 l 1
 348 -207 374 -190 378 -164 c 1
 342 -164 313 -140 313 -99 c 0
 313 -45 363 -2 415 -2 c 256
258 283 m 256
 221 283 192 251 192 217 c 0
 192 196 207 175 235 175 c 256
 269 175 302 205 302 241 c 0
 302 266 283 283 258 283 c 256
60 -84 m 256
 31 -84 -6 -108 -6 -150 c 0
 -6 -173 9 -193 36 -193 c 256
 71 -193 104 -162 104 -128 c 0
 104 -105 89 -84 60 -84 c 256
413 -35 m 256
 380 -35 354 -63 354 -93 c 0
 354 -107 364 -128 392 -128 c 256
 427 -128 451 -96 451 -69 c 0
 451 -57 443 -35 413 -35 c 256
241 466 m 1
 334 450 434 420 541 354 c 1
 500 163 l 2
 482 80 391 -0 298 0 c 2
 207 0 l 1
 231 119 l 1
 225 119 l 2
 155 119 126 170 126 208 c 0
 126 274 202 336 271 336 c 0
 327 336 369 303 369 253 c 0
 369 245 368 237 366 228 c 2
 336 90 l 1
 387 109 398 126 405 163 c 2
 439 318 l 1
 363 364 227 392 119 407 c 1
 155 574 281 614 345 614 c 0
 419 614 473 571 531 565 c 0
 560 565 602 590 674 645 c 1
 671 562 l 1
 588 496 549 481 519 481 c 0
 457 481 396 537 329 537 c 0
 291 537 251 498 241 466 c 1
415 -2 m 256
 456 -2 483 -24 483 -58 c 0
 483 -63 482 -69 481 -75 c 2
 476 -93 l 2
 457 -179 422 -261 283 -300 c 1
 225 -182 l 1
 131 -300 l 1
 107 -211 l 1
 89 -229 58 -252 26 -252 c 0
 -47 -252 -65 -201 -65 -167 c 0
 -65 -109 -17 -35 69 -35 c 0
 105 -35 151 -51 152 -80 c 2
 166 -170 l 1
 249 -66 l 1
 323 -213 l 1
 348 -207 374 -190 378 -164 c 1
 342 -164 313 -140 313 -99 c 0
 313 -45 363 -2 415 -2 c 256
258 283 m 256
 221 283 192 251 192 217 c 0
 192 196 207 175 235 175 c 256
 269 175 302 205 302 241 c 0
 302 266 283 283 258 283 c 256
60 -84 m 256
 31 -84 -6 -108 -6 -150 c 0
 -6 -173 9 -193 36 -193 c 256
 71 -193 104 -162 104 -128 c 0
 104 -105 89 -84 60 -84 c 256
413 -35 m 256
 380 -35 354 -63 354 -93 c 0
 354 -107 364 -128 392 -128 c 256
 427 -128 451 -96 451 -69 c 0
 451 -57 443 -35 413 -35 c 256
EndSplineSet
Substitution2: "Single Substitution lookup 22 subtable" uni0E10.alt1
Substitution2: "Single Substitution lookup 22 subtable" uni0E10.alt1
EndChar
StartChar: uni0E11
Encoding: 3601 3601 228
Width: 842
VWidth: 1507
Flags: W
HStem: 0 21G<261 385.28 647 759.232> 308 46<161.478 246.107> 463 45<215.065 260.234> 594 20G<683.969 738.5>
VStem: 96 60<369.73 443.386> 266 47<372.537 458.201> 458 64<462.146 530.005> 647 108<22.0069 426.958> 736 118<433.945 511.51>
Fore
698 614 m 1xfe80
 779 614 854 569 854 486 c 0xfe80
 854 474 853 462 850 449 c 2
 755 0 l 1
 647 0 l 1xff
 734 418 l 2
 736 424 736 429 736 435 c 0
 736 452 728 470 713 479 c 1
 371 0 l 1
 261 0 l 1
 318 271 l 2
 330 331 346 352 370 374 c 2
 404 404 l 2
 424 421 458 465 458 506 c 0
 458 517 456 526 452 534 c 1
 366 469 l 1
 291 546 l 1
 243 541 219 515 214 508 c 1
 234 508 l 2
 271 508 313 472 313 426 c 0
 313 383 275 308 190 308 c 0
 149 308 96 331 96 410 c 0
 96 526 224 617 321 617 c 1
 384 552 l 1
 467 617 l 1
 504 598 522 565 522 517 c 0
 522 495 517 459 500 428 c 2
 474 382 l 2
 443 328 436 306 433 286 c 2
 407 167 l 1
 416 200 421 206 430 232 c 1
 698 614 l 1xfe80
223 463 m 256
 189 463 156 434 156 396 c 0
 156 379 166 354 199 354 c 256
 235 354 266 385 266 421 c 0
 266 443 251 463 223 463 c 256
EndSplineSet
EndChar
StartChar: uni0E12
Encoding: 3602 3602 229
Width: 970
VWidth: 1507
Flags: MW
HStem: 2 94<75 199> 175 50<518.005 558.908> 294 53<342.297 428.499> 594 20G<353.5 410.605 556.118 619 893.755 1010>
VStem: 268 54<190.873 273.301> 433 45<205.098 287.968> 456 49<49.9715 150.788> 623 96<434.857 455.023 455.023 465.5 460.262 505.326>
Fore
582 614 m 1
 656 614 722 560 722 480 c 0
 722 470 721 461 719 451 c 2
 671 226 l 1
 707 213 740 196 794 124 c 1
 898 614 l 1
 1010 614 l 1
 880 0 l 1
 764 0 l 1
 721 104 668 123 651 130 c 1
 633 44 l 1
 592 14 l 2
 580 6 566 2 549 2 c 0
 473 2 456 50 456 81 c 0
 456 112 475 208 574 225 c 1
 623 451 l 2
 624 454 624 457 624 459 c 0
 624 481 603 517 577 517 c 1
 448 418 l 1
 357 519 l 1
 341 508 274 454 258 375 c 2
 199 96 l 1
 246 103 274 114 311 143 c 1
 298 150 268 172 268 215 c 0
 268 289 341 347 398 347 c 0
 445 347 478 306 478 264 c 0
 478 159 324 2 167 2 c 2
 75 2 l 1
 155 378 l 2
 180 497 315 615 392 615 c 1
 472 529 l 1
 582 614 l 1
389 294 m 256
 350 294 322 256 322 228 c 0
 322 208 336 185 366 185 c 256
 406 185 433 222 433 254 c 0
 433 276 415 294 389 294 c 256
564 175 m 1
 535 172 505 131 505 98 c 0
 505 74 520 49 537 44 c 1
 564 175 l 1
EndSplineSet
EndChar
StartChar: uni0E13
Encoding: 3603 3603 230
Width: 924
VWidth: 1507
Flags: W
HStem: 0 53<191.48 278.06 759.345 833.887> 161 52<255 291.295> 531 83<324.73 528.805>
VStem: 118 68<58.8709 103.643> 167 110<303.357 326 326 329.477 327.738 376.696> 298 66<71.9306 155.28> 545 109<452.352 517.134> 681 69<65.2281 102.588> 862 69<80.1311 163.093>
Fore
253 161 m 256xf780
 216 161 186 127 186 93 c 0
 186 69 206 53 231 53 c 256
 268 53 298 88 298 118 c 0
 298 142 281 161 253 161 c 256xf780
776 0 m 0
 700 0 681 57 681 85 c 0
 681 91 682 97 683 103 c 1
 666 92 646 77 624 58 c 2
 555 0 l 1
 448 0 l 1
 543 452 l 2
 544 458 545 464 545 469 c 0
 545 499 523 531 491 531 c 2
 393 531 l 2
 339 531 264 475 235 431 c 1
 264 415 279 384 279 341 c 0
 279 333 279 325 277 318 c 2xef80
 255 213 l 1
 264 213 l 2
 319 213 364 167 364 122 c 0
 364 67 296 0 220 0 c 0
 165 0 118 38 118 80 c 2
 118 87 l 1xf780
 167 320 l 2xef80
 168 324 168 328 168 332 c 0
 168 357 150 386 115 390 c 1
 148 510 286 614 416 614 c 2
 510 614 l 2
 576 614 654 563 654 479 c 0
 654 470 653 461 651 452 c 2
 582 125 l 1
 619 154 695 212 776 258 c 1
 852 614 l 1
 962 614 l 1
 879 222 l 1
 924 201 931 161 931 141 c 0
 931 56 838 0 776 0 c 0
817 169 m 256
 777 169 750 132 750 101 c 0
 750 76 770 60 794 60 c 256
 835 60 862 99 862 125 c 0
 862 149 845 169 817 169 c 256
EndSplineSet
EndChar
StartChar: uni0E14
Encoding: 3604 3604 231
Width: 691
VWidth: 1507
Flags: W
HStem: 0 95<199 274.724> 294 50<356.953 443.482> 531 83<370.911 578.049>
VStem: 269 68<190.676 273.978> 448 58<204.224 288.703> 588 113<437.274 462.5 462.5 464 463.25 520.162>
Fore
590 471 m 0
 590 499 571 531 541 531 c 2
 440 531 l 2
 367 531 275 449 258 374 c 2
 199 95 l 1
 250 101 280 113 317 142 c 1
 300 150 269 171 269 215 c 0
 269 287 348 344 413 344 c 0
 466 344 506 306 506 260 c 0
 506 145 314 -0 167 0 c 2
 75 0 l 1
 155 377 l 2
 180 501 338 614 461 614 c 2
 559 614 l 2
 642 614 704 556 704 479 c 0
 704 469 703 459 701 449 c 2
 606 0 l 1
 493 0 l 1
 588 454 l 2
 589 460 590 465 590 471 c 0
404 294 m 256
 365 294 337 256 337 228 c 0
 337 208 351 185 381 185 c 256
 421 185 448 222 448 254 c 0
 448 276 430 294 404 294 c 256
EndSplineSet
EndChar
StartChar: uni0E15
Encoding: 3605 3605 232
Width: 690
VWidth: 1507
Flags: MW
HStem: 2 94<75 199> 295 50<357.44 443.591> 595 20G<353.5 410.605 556.118 618>
VStem: 269 68<192.616 275.415> 449 57<207.327 288.827> 589 112<434.384 451 451 465.523 465.523 469.523 467.523 512.938>
Fore
506 262 m 0
 506 150 320 2 167 2 c 2
 75 2 l 1
 155 378 l 2
 180 497 315 615 392 615 c 1
 472 529 l 1
 582 614 l 1
 654 614 704 565 704 488 c 0
 704 476 703 464 701 451 c 2
 606 0 l 1
 494 0 l 1
 589 451 l 2
 591 460 595 478 595 496 c 0
 595 510 589 517 577 517 c 1
 448 418 l 1
 357 519 l 1
 341 508 274 454 258 375 c 2
 199 96 l 1
 250 104 280 114 318 143 c 1
 301 151 269 173 269 217 c 0
 269 286 344 345 413 345 c 0
 466 345 506 307 506 262 c 0
404 295 m 256
 364 295 337 258 337 228 c 0
 337 203 358 187 381 187 c 256
 418 187 449 222 449 252 c 0
 449 276 432 295 404 295 c 256
EndSplineSet
EndChar
StartChar: uni0E16
Encoding: 3606 3606 233
Width: 643
VWidth: 1507
Flags: W
HStem: 0 53<191.48 278.06> 161 52<255 291.295> 531 83<324.73 528.805>
VStem: 118 68<58.8709 103.643> 167 110<303.357 326 326 329.477 327.738 376.696> 298 66<71.9306 155.28> 543 108<435.347 460.523 460.523 465.5 463.012 517.134>
Fore
510 614 m 2xee
 576 614 654 563 654 479 c 0
 654 470 653 461 651 452 c 2
 556 0 l 1
 448 0 l 1
 543 452 l 2
 544 458 545 464 545 469 c 0
 545 499 523 531 491 531 c 2
 393 531 l 2
 339 531 264 475 235 431 c 1
 264 415 279 384 279 341 c 0
 279 333 279 325 277 318 c 2xee
 255 213 l 1
 264 213 l 2
 319 213 364 167 364 122 c 0
 364 67 296 0 220 0 c 0
 165 0 118 38 118 80 c 2
 118 87 l 1xf6
 167 320 l 2
 168 324 168 328 168 332 c 0
 168 357 150 386 115 390 c 1
 148 510 286 614 416 614 c 2
 510 614 l 2xee
253 161 m 256
 216 161 186 127 186 93 c 0xf6
 186 69 206 53 231 53 c 256
 268 53 298 88 298 118 c 0
 298 142 281 161 253 161 c 256
EndSplineSet
EndChar
StartChar: uni0E17
Encoding: 3607 3607 234
Width: 729
VWidth: 1507
Flags: W
HStem: 0 21G<154 274.36 534 649.232> 402 50<204.354 238> 561 49<216.964 302.957>
VStem: 140 58<457.616 541.674> 309 65<491.016 555.85> 626 114<432.458 439 439 444.523 444.523 463.351 453.937 491.991>
Fore
280 610 m 0
 335 610 374 571 374 529 c 0
 374 523 373 516 372 510 c 2
 303 179 l 1
 307 194 320 239 329 250 c 2
 570 614 l 1
 659 614 743 561 743 480 c 0
 743 470 742 460 740 449 c 2
 645 0 l 1
 534 0 l 1
 626 439 l 2
 627 443 627 447 627 450 c 0
 627 474 610 492 595 500 c 1
 261 0 l 1
 154 0 l 1
 238 402 l 1
 184 402 140 440 140 488 c 0
 140 557 218 610 280 610 c 0
265 561 m 256
 232 561 198 532 198 494 c 0
 198 473 213 452 241 452 c 256
 276 452 309 483 309 517 c 0
 309 540 294 561 265 561 c 256
EndSplineSet
EndChar
StartChar: uni0E18
Encoding: 3608 3608 235
Width: 569
VWidth: 1507
Flags: W
HStem: 0 90<223 375.141> 479 79<468.403 576.526> 531 83<271.318 417.764>
Fore
124 407 m 1xa0
 167 605 322 614 363 614 c 0xa0
 441 614 479 558 526 558 c 0
 555 558 588 570 671 653 c 1
 671 574 l 1
 639 537 561 479 506 479 c 0xc0
 437 479 417 531 344 531 c 0
 313 531 251 514 238 469 c 1
 359 452 473 409 565 356 c 1
 523 163 l 2
 507 75 400 0 311 0 c 2
 185 0 l 2
 146 0 108 26 108 65 c 0
 108 70 109 75 110 80 c 2
 167 351 l 1
 274 329 l 1
 223 90 l 1
 332 90 l 2
 369 90 405 137 415 172 c 2
 445 317 l 1
 389 349 296 379 124 407 c 1xa0
EndSplineSet
EndChar
StartChar: uni0E19
Encoding: 3609 3609 236
Width: 663
VWidth: 1507
Flags: W
HStem: 0 60<501.161 585.874> 402 50<205.414 240> 561 49<218.713 304.491>
VStem: 141 58<467.612 541.181> 310 66<490.755 555.823> 428 67<66.2793 124.379> 607 69<80.1811 163.093>
Fore
442 133 m 1
 362 94 259 0 259 0 c 1
 155 0 l 1
 240 402 l 1
 178 402 141 446 141 488 c 0
 141 551 213 610 282 610 c 0
 337 610 376 571 376 529 c 0
 376 523 375 516 374 510 c 2
 292 127 l 1
 320 154 438 227 516 246 c 1
 594 614 l 1
 707 614 l 1
 624 222 l 1
 669 201 676 161 676 141 c 0
 676 56 583 0 522 0 c 0
 446 0 428 56 428 89 c 0
 428 107 430 121 442 133 c 1
267 561 m 256
 232 561 199 529 199 495 c 0
 199 480 208 452 243 452 c 256
 277 452 310 484 310 519 c 0
 310 542 293 561 267 561 c 256
562 169 m 256
 525 169 495 134 495 101 c 0
 495 78 514 60 540 60 c 256
 576 60 607 96 607 125 c 0
 607 149 590 169 562 169 c 256
EndSplineSet
EndChar
StartChar: uni0E1A
Encoding: 3610 3610 237
Width: 706
VWidth: 1507
Flags: W
HStem: 0 98<289 509.516> 402 50<208.414 243> 561 49<221.713 307.491>
VStem: 144 58<467.612 541.181> 313 66<490.949 555.823>
Fore
244 0 m 2
 199 0 172 33 172 64 c 0
 172 68 172 73 173 77 c 2
 243 402 l 1
 181 402 144 446 144 488 c 0
 144 551 216 610 285 610 c 0
 340 610 379 571 379 529 c 0
 379 523 378 516 377 510 c 2
 289 98 l 1
 463 98 l 2
 495 98 536 133 544 175 c 2
 638 614 l 1
 748 614 l 1
 650 155 l 2
 626 64 532 0 443 0 c 2
 244 0 l 2
270 561 m 256
 235 561 202 529 202 495 c 0
 202 480 211 452 246 452 c 256
 276 452 313 479 313 519 c 0
 313 542 296 561 270 561 c 256
EndSplineSet
EndChar
StartChar: uni0E1B
Encoding: 3611 3611 238
Width: 706
VWidth: 1507
Flags: W
HStem: 0 98<289 509.516> 402 50<208.414 243> 561 49<221.713 307.491>
VStem: 144 58<467.612 541.181> 313 66<490.949 555.823>
Fore
244 0 m 2
 199 0 172 33 172 64 c 0
 172 68 172 73 173 77 c 2
 243 402 l 1
 181 402 144 446 144 488 c 0
 144 551 216 610 285 610 c 0
 340 610 379 571 379 529 c 0
 379 523 378 516 377 510 c 2
 289 98 l 1
 463 98 l 2
 495 98 536 133 544 175 c 2
 699 907 l 1
 809 907 l 1
 650 155 l 2
 626 64 532 0 443 0 c 2
 244 0 l 2
270 561 m 256
 235 561 202 529 202 495 c 0
 202 480 211 452 246 452 c 256
 276 452 313 479 313 519 c 0
 313 542 296 561 270 561 c 256
EndSplineSet
EndChar
StartChar: uni0E1C
Encoding: 3612 3612 239
Width: 688
VWidth: 1507
Flags: W
HStem: -2 21G<148 200.579 478.958 547.5> 401 53<273 343.625> 562 52<270.343 357.272>
VStem: 362 63<472.427 557.055>
Fore
425 524 m 0
 425 462 348 401 281 401 c 2
 273 401 l 1
 219 146 l 1
 407 324 l 1
 425 324 430 310 446 277 c 2
 523 143 l 1
 624 614 l 1
 735 614 l 1
 630 122 l 2
 622 86 605 11 490 -2 c 1
 384 190 l 1
 179 0 l 1
 117 0 94 41 94 74 c 0
 94 79 94 83 95 87 c 2
 185 510 l 2
 196 561 262 614 327 614 c 256
 372 614 425 579 425 524 c 0
296 454 m 256
 335 454 362 488 362 520 c 0
 362 546 344 562 318 562 c 256
 279 562 252 528 252 496 c 0
 252 470 270 454 296 454 c 256
EndSplineSet
EndChar
StartChar: uni0E1D
Encoding: 3613 3613 240
Width: 691
VWidth: 1507
Flags: W
HStem: -2 21G<148 200.579 478.958 547.5> 401 53<273 343.625> 562 52<270.343 357.272>
VStem: 362 63<472.427 557.055>
Fore
425 524 m 0
 425 462 348 401 281 401 c 2
 273 401 l 1
 219 146 l 1
 407 324 l 1
 425 324 430 310 446 277 c 2
 523 143 l 1
 686 907 l 1
 797 907 l 1
 630 122 l 2
 622 86 605 11 490 -2 c 1
 384 190 l 1
 179 0 l 1
 117 0 94 41 94 74 c 0
 94 79 94 83 95 87 c 2
 185 510 l 2
 196 561 262 614 327 614 c 256
 372 614 425 579 425 524 c 0
296 454 m 256
 335 454 362 488 362 520 c 0
 362 546 344 562 318 562 c 256
 279 562 252 528 252 496 c 0
 252 470 270 454 296 454 c 256
EndSplineSet
EndChar
StartChar: uni0E1E
Encoding: 3614 3614 241
Width: 762
VWidth: 1507
Flags: W
HStem: -6 21G<251.5 298 535.462 581> 405 50<199.353 242.531> 564 50<212.37 297.273>
VStem: 136 57<461.261 545.301> 303 67<493.443 558.647>
Fore
136 491 m 0
 136 561 212 614 276 614 c 0
 325 614 370 579 370 530 c 0
 370 525 369 519 368 513 c 2
 288 136 l 1
 292 150 306 194 314 207 c 2
 531 612 l 1
 580 607 585 574 586 562 c 2
 614 207 l 2
 614 204 615 200 615 196 c 0
 615 179 612 153 609 136 c 1
 711 614 l 1
 809 614 l 1
 712 161 l 2
 696 86 625 9 537 -6 c 1
 505 410 l 1
 422 253 l 2
 379 172 320 68 276 -6 c 1
 227 -6 172 19 172 65 c 0
 172 69 172 73 173 77 c 2
 244 407 l 1
 234 405 l 1
 183 405 136 440 136 491 c 0
237 455 m 256
 277 455 303 492 303 521 c 0
 303 545 288 564 260 564 c 256
 229 564 193 536 193 499 c 0
 193 473 211 455 237 455 c 256
EndSplineSet
EndChar
StartChar: uni0E1F
Encoding: 3615 3615 242
Width: 762
VWidth: 1507
Flags: W
HStem: -6 21G<251.5 298 535.462 581> 405 50<199.353 242.531> 564 50<212.37 297.273>
VStem: 136 57<461.261 545.301> 303 67<493.443 558.647>
Fore
136 491 m 0
 136 561 212 614 276 614 c 0
 325 614 370 579 370 530 c 0
 370 525 369 519 368 513 c 2
 288 136 l 1
 292 150 306 194 314 207 c 2
 531 612 l 1
 580 607 585 574 586 562 c 2
 614 207 l 2
 614 204 615 200 615 195 c 0
 615 179 612 156 610 139 c 1
 773 907 l 1
 871 907 l 1
 712 161 l 2
 696 86 625 9 537 -6 c 1
 505 410 l 1
 422 253 l 2
 379 172 320 68 276 -6 c 1
 227 -6 172 19 172 65 c 0
 172 69 172 73 173 77 c 2
 244 407 l 1
 234 405 l 1
 183 405 136 440 136 491 c 0
237 455 m 256
 277 455 303 492 303 521 c 0
 303 545 288 564 260 564 c 256
 229 564 193 536 193 499 c 0
 193 473 211 455 237 455 c 256
EndSplineSet
EndChar
StartChar: uni0E20
Encoding: 3616 3616 243
Width: 664
VWidth: 1507
Flags: W
HStem: 0 53<122.334 209.009> 161 52<138.694 202> 531 83<352.698 554.498>
VStem: 54 63<58.8123 141.893> 567 110<435.347 461 461 465.023 463.012 518.787>
Fore
54 88 m 0
 54 162 141 213 196 213 c 2
 202 213 l 1
 225 318 l 2
 228 352 176 391 139 393 c 1
 180 521 315 614 442 614 c 2
 535 614 l 2
 604 614 679 561 679 478 c 0
 679 470 679 461 677 452 c 2
 582 0 l 1
 472 0 l 1
 567 452 l 2
 568 458 569 464 569 470 c 0
 569 503 546 531 517 531 c 2
 419 531 l 2
 374 531 289 483 256 437 c 1
 318 429 339 364 339 332 c 0
 339 328 339 324 338 320 c 2
 291 101 l 2
 278 51 214 0 151 0 c 0
 87 0 54 48 54 88 c 0
184 161 m 256
 144 161 117 124 117 93 c 0
 117 69 137 53 161 53 c 256
 199 53 229 87 229 118 c 0
 229 142 212 161 184 161 c 256
EndSplineSet
EndChar
StartChar: uni0E21
Encoding: 3617 3617 244
Width: 676
VWidth: 1507
Flags: W
HStem: 0 21G<147.5 213.5 470 598.235> 402 50<222.354 256> 561 49<235.356 320.957>
VStem: 73 71<57.7948 161.423> 158 58<457.785 541.742> 327 65<491.016 555.85>
Fore
213 193 m 1
 162 181 144 130 144 104 c 0
 144 75 164 56 181 47 c 1
 213 193 l 1
298 610 m 0
 353 610 392 571 392 529 c 0
 392 523 391 516 390 510 c 2
 336 249 l 1
 410 228 465 191 513 145 c 1
 612 614 l 1
 724 614 l 1
 594 0 l 1
 490 0 l 1
 450 75 385 124 314 148 c 1
 294 56 l 1
 263 20 248 -0 179 0 c 256
 116 0 73 53 73 106 c 0
 73 171 159 244 225 249 c 1
 256 402 l 1
 202 402 158 440 158 488 c 0
 158 557 236 610 298 610 c 0
283 561 m 256
 249 561 216 529 216 495 c 0
 216 472 233 452 259 452 c 256
 294 452 327 483 327 517 c 0
 327 540 312 561 283 561 c 256
EndSplineSet
EndChar
StartChar: uni0E22
Encoding: 3618 3618 245
Width: 687
VWidth: 1507
Flags: W
HStem: 0 83<222 493.969> 240 86<307.61 418> 401 54<310.583 395.976> 564 50<325.375 409.909>
VStem: 167 89<367.385 440.338> 417 64<476.231 558.083>
Fore
256 417 m 0
 256 381 281 326 436 326 c 1
 418 240 l 1
 334 240 250 216 237 149 c 2
 222 83 l 1
 449 83 l 2
 483 83 517 120 525 154 c 2
 623 614 l 1
 734 614 l 1
 636 154 l 2
 616 60 514 0 428 0 c 2
 193 0 l 2
 147 0 109 24 109 67 c 0
 109 70 110 74 110 77 c 1
 127 149 l 2
 133 183 172 274 256 282 c 1
 170 299 167 366 167 396 c 0
 167 510 272 614 371 614 c 2
 381 614 l 2
 434 614 481 574 481 526 c 0
 481 463 408 401 336 401 c 0
 323 401 277 404 259 443 c 1
 257 434 256 425 256 417 c 0
372 564 m 256
 337 564 305 530 305 498 c 0
 305 474 323 455 350 455 c 256
 388 455 417 493 417 523 c 0
 417 546 398 564 372 564 c 256
EndSplineSet
EndChar
StartChar: uni0E23
Encoding: 3619 3619 246
Width: 584
VWidth: 1507
Flags: W
HStem: 0 50<322.422 408.914> 158 50<337.313 413> 482 82<466.345 586.182> 527 85<276.051 417.196>
VStem: 259 58<55.7564 138.647>
Fore
116 398 m 1xd8
 133 486 207 612 359 612 c 0xd8
 434 612 497 564 530 564 c 0
 554 564 591 582 677 650 c 1
 678 567 l 1
 638 521 561 482 519 482 c 0xe8
 422 491 388 527 337 527 c 0
 297 527 257 498 237 460 c 1
 362 442 458 398 540 350 c 1
 487 104 l 2
 473 47 411 0 351 0 c 0
 291 0 259 43 259 85 c 0
 259 152 336 208 395 208 c 2
 413 208 l 1
 433 304 l 1
 379 338 285 370 116 398 c 1xd8
384 158 m 256
 353 158 317 130 317 93 c 0
 317 69 334 50 362 50 c 256
 396 50 428 81 428 115 c 0
 428 138 413 158 384 158 c 256
EndSplineSet
EndChar
StartChar: uni0E24
Encoding: 3620 3620 247
Width: 643
VWidth: 1507
Flags: W
HStem: 0 53<194.48 281.06> 161 52<258 294.295> 531 83<327.73 533.734>
VStem: 121 68<58.8709 103.643> 170 110<303.357 326 326 329.477 327.738 376.696> 301 66<71.9306 155.28> 544 109<435.493 461.523 461.523 465.023 463.273 518.222>
Fore
118 390 m 1xee
 151 510 289 614 419 614 c 2
 511 614 l 2
 580 614 655 560 655 478 c 0
 655 470 655 461 653 452 c 2
 505 -246 l 1
 396 -246 l 1
 544 452 l 2
 546 459 547 465 547 471 c 0
 547 500 525 531 493 531 c 2
 396 531 l 2
 342 531 267 475 238 431 c 1
 267 415 282 384 282 341 c 0
 282 333 282 325 280 318 c 2xee
 258 213 l 1
 267 213 l 2
 322 213 367 167 367 122 c 0
 367 67 299 0 223 0 c 0
 168 0 121 38 121 80 c 2
 121 87 l 1xf6
 170 320 l 2
 171 324 171 328 171 332 c 0
 171 357 153 386 118 390 c 1xee
256 161 m 256
 219 161 189 127 189 93 c 0xf6
 189 69 209 53 234 53 c 256
 271 53 301 88 301 118 c 0
 301 142 284 161 256 161 c 256
EndSplineSet
EndChar
StartChar: uni0E25
Encoding: 3621 3621 248
Width: 652
VWidth: 1507
Flags: W
HStem: 0 53<167.64 254.208> 161 53<232 267.943> 318 91<340.967 449.301> 531 83<336.615 544.476>
VStem: 97 65<58.7974 141.207> 121 101<407.022 469.533> 274 58<72.707 155.434> 559 103<434.384 458 458 466 462 516.039>
Fore
522 614 m 2xf7
 604 614 665 561 665 481 c 0
 665 471 664 461 662 451 c 2
 567 0 l 1
 455 0 l 1
 494 187 l 2
 495 192 495 198 495 203 c 0
 495 270 442 318 389 318 c 0
 326 318 254 270 232 214 c 1
 241 214 l 2
 297 214 332 174 332 129 c 0
 332 65 269 0 196 0 c 256
 126 0 97 54 97 91 c 0xfb
 97 135 130 308 309 387 c 0
 342 402 376 409 410 409 c 0
 465 409 523 383 537 344 c 1
 559 451 l 2
 560 456 561 460 561 465 c 0
 561 486 545 531 503 531 c 2
 404 531 l 2
 337 531 240 455 222 387 c 1
 121 387 l 1
 139 476 280 614 422 614 c 2
 522 614 l 2xf7
229 161 m 256
 192 161 162 127 162 93 c 0
 162 69 182 53 207 53 c 256
 244 53 274 88 274 118 c 0
 274 142 257 161 229 161 c 256
EndSplineSet
EndChar
StartChar: uni0E26
Encoding: 3622 3622 249
Width: 670
VWidth: 1507
Flags: W
HStem: 0 53<126.685 213.34> 161 52<141.154 207> 531 83<355.621 557.498>
VStem: 59 63<68.2908 142.462> 570 110<435.493 461 461 465.023 463.012 518.787>
Fore
143 393 m 1
 182 517 317 614 446 614 c 2
 538 614 l 2
 607 614 682 561 682 478 c 0
 682 470 682 461 680 452 c 2
 532 -246 l 1
 422 -246 l 1
 570 452 l 2
 571 458 572 464 572 470 c 0
 572 503 549 531 520 531 c 2
 424 531 l 2
 379 531 294 483 261 437 c 1
 317 430 343 371 343 333 c 0
 343 328 343 324 342 320 c 2
 295 101 l 2
 285 51 217 0 155 0 c 0
 89 0 59 50 59 90 c 0
 59 156 141 213 200 213 c 2
 207 213 l 1
 229 318 l 2
 235 352 179 391 143 393 c 1
188 161 m 256
 151 161 122 128 122 93 c 0
 122 79 131 53 166 53 c 256
 204 53 233 89 233 119 c 0
 233 143 215 161 188 161 c 256
EndSplineSet
EndChar
StartChar: uni0E27
Encoding: 3623 3623 250
Width: 569
VWidth: 1507
Flags: W
HStem: 0 50<341.412 426.63> 158 55<354.508 421> 531 81<294.408 466.198>
VStem: 271 64<55.7935 139.062> 475 111<460.328 512.314>
Fore
271 87 m 0
 271 163 360 213 413 213 c 2
 421 213 l 1
 473 460 l 2
 475 466 475 471 475 477 c 0
 475 499 465 527 439 531 c 1
 362 531 l 2
 288 531 229 459 199 416 c 1
 119 443 l 1
 178 536 276 612 380 612 c 2
 458 612 l 2
 547 603 586 536 586 485 c 0
 586 476 585 468 583 460 c 2
 508 106 l 2
 497 56 437 0 369 0 c 0
 301 0 271 50 271 87 c 0
402 158 m 256
 371 158 335 130 335 93 c 0
 335 69 352 50 380 50 c 256
 414 50 446 81 446 115 c 0
 446 138 431 158 402 158 c 256
EndSplineSet
EndChar
StartChar: uni0E28
Encoding: 3624 3624 251
Width: 687
VWidth: 1507
Flags: W
HStem: 0 21G<75 213.682 493 608.204> 202 50<353.545 441.492> 360 53<368.707 454.906> 531 83<371.901 577.777>
VStem: 461 64<271.839 354.163> 588 111<435.347 452 452 461 461 463.98 462.49 519.861>
Fore
416 360 m 256
 376 360 349 323 349 292 c 0
 349 268 369 252 393 252 c 256
 431 252 461 286 461 317 c 0
 461 341 444 360 416 360 c 256
590 470 m 0
 590 499 570 531 540 531 c 2
 434 531 l 2
 367 531 282 450 267 383 c 2
 228 196 l 1
 297 339 l 2
 323 382 372 413 428 413 c 0
 495 413 525 368 525 327 c 0
 525 256 448 202 383 202 c 0
 359 202 343 206 327 214 c 1
 202 0 l 1
 75 0 l 1
 155 383 l 2
 180 498 326 614 448 614 c 2
 559 614 l 2
 572 614 585 612 597 609 c 1
 615 634 633 665 651 701 c 1
 763 701 l 1
 720 632 l 2
 705 609 689 588 672 567 c 1
 688 550 703 523 703 487 c 0
 703 476 702 464 699 452 c 2
 604 0 l 1
 493 0 l 1
 588 452 l 2
 589 458 590 464 590 470 c 0
EndSplineSet
EndChar
StartChar: uni0E29
Encoding: 3625 3625 252
Width: 722
VWidth: 1507
Flags: W
HStem: 2 97<289 510.152> 223 69<416.361 496.065> 223 60<519 553> 389 51<425.78 507.266> 402 50<207.354 241> 561 49<222.216 305.957>
VStem: 143 58<457.616 539.975> 312 65<491.016 555.85> 357 55<296.01 375.437> 511 47<323.41 384.567>
Fore
243 2 m 2xaec0
 192 2 171 39 171 63 c 0
 171 68 172 73 173 78 c 2
 241 402 l 1
 187 402 143 440 143 488 c 0
 143 557 221 610 283 610 c 0
 338 610 377 571 377 529 c 0
 377 523 376 516 375 510 c 2
 289 99 l 1
 463 99 l 2
 499 99 535 138 543 176 c 2
 553 223 l 1xaf40
 484 223 l 2
 385 223 357 278 357 315 c 0
 357 384 417 440 482 440 c 256xd6c0
 543 440 558 395 558 364 c 0
 558 340 544 293 519 283 c 1
 565 283 l 1
 636 615 l 1
 746 615 l 1
 684 326 l 1
 713 346 731 381 739 402 c 1
 812 402 l 1
 775 285 697 246 665 234 c 1
 650 157 l 2
 631 81 543 2 442 2 c 2
 243 2 l 2xaec0
268 561 m 256
 233 561 201 527 201 494 c 0
 201 473 216 452 244 452 c 256
 279 452 312 483 312 517 c 0
 312 540 297 561 268 561 c 256
470 389 m 256xd6c0
 439 389 412 365 412 330 c 0
 412 307 428 292 451 292 c 256
 486 292 511 324 511 350 c 0
 511 373 494 389 470 389 c 256xd6c0
EndSplineSet
EndChar
StartChar: uni0E2A
Encoding: 3626 3626 253
Width: 652
VWidth: 1507
Flags: W
HStem: 0 53<167.64 254.208> 161 53<232 267.943> 318 91<340.967 449.301> 531 83<336.615 545.009>
VStem: 97 65<58.7974 141.207> 121 101<407.022 469.533> 274 58<72.707 155.434> 559 103<434.384 458 458 467.5 462.75 515.74>
Fore
229 161 m 256xfb
 192 161 162 127 162 93 c 0
 162 69 182 53 207 53 c 256
 244 53 274 88 274 118 c 0
 274 142 257 161 229 161 c 256xfb
561 465 m 0
 561 486 545 531 503 531 c 2
 404 531 l 2
 337 531 240 455 222 387 c 1
 121 387 l 1xf7
 139 476 280 614 422 614 c 2
 522 614 l 2
 534 614 547 613 556 610 c 1
 578 645 580 656 606 702 c 1
 721 702 l 1
 679 630 l 2
 666 607 651 585 636 564 c 1
 655 542 665 515 665 484 c 0
 665 473 664 462 662 451 c 2
 567 0 l 1
 455 0 l 1
 494 187 l 2
 495 192 495 198 495 203 c 0
 495 270 442 318 389 318 c 0
 326 318 254 270 232 214 c 1
 241 214 l 2
 297 214 332 174 332 129 c 0
 332 65 269 0 196 0 c 256
 126 0 97 54 97 91 c 0
 97 135 130 308 309 387 c 0
 342 402 376 409 410 409 c 0
 465 409 523 383 537 344 c 1
 559 451 l 2
 560 456 561 460 561 465 c 0
EndSplineSet
EndChar
StartChar: uni0E2B
Encoding: 3627 3627 254
Width: 729
VWidth: 1507
Flags: W
HStem: 0 21G<154 316.5 534 648.194> 402 50<204.354 238> 561 49<216.964 302.957 618.222 704.05>
VStem: 140 58<457.616 541.674> 309 65<491.016 555.85> 534 65<457.224 541.648> 709 63<486.806 545.783>
Fore
606 345 m 1
 558 308 372 157 261 0 c 1
 154 0 l 1
 238 402 l 1
 184 402 140 440 140 488 c 0
 140 557 218 610 280 610 c 0
 335 610 374 571 374 529 c 0
 374 523 373 516 372 510 c 2
 297 151 l 1
 303 173 315 210 324 222 c 0
 451 360 510 397 564 427 c 1
 547 443 534 467 534 494 c 0
 534 550 601 614 675 614 c 0
 729 614 772 571 772 527 c 0
 772 511 765 461 704 424 c 1
 716 411 722 393 722 372 c 1
 644 0 l 1
 534 0 l 1
 606 345 l 1
265 561 m 256
 232 561 198 532 198 494 c 0
 198 473 213 452 241 452 c 256
 276 452 309 483 309 517 c 0
 309 540 294 561 265 561 c 256
666 561 m 256
 633 561 599 532 599 494 c 0
 599 473 614 452 642 452 c 256
 676 452 709 481 709 519 c 0
 709 536 699 561 666 561 c 256
EndSplineSet
EndChar
StartChar: uni0E2C
Encoding: 3628 3628 255
Width: 771
VWidth: 1507
Flags: W
HStem: -6 21G<257.5 311.5 544.413 593> 405 50<206.496 251.282> 564 50<222.332 307.694> 633 53<659.583 722.886> 794 50<672.91 757.977>
VStem: 144 57<460.756 543.854> 313 65<494.273 558.326> 589 64<691.374 774.785>
Fore
737 844 m 0
 785 844 833 805 835 770 c 1
 856 795 l 2
 866 806 873 816 879 825 c 1
 953 825 l 1
 919 773 878 722 832 683 c 1
 721 161 l 2
 706 92 640 11 546 -6 c 1
 513 410 l 1
 430 253 l 1
 430 253 338 81 285 -6 c 1
 230 -6 179 23 179 62 c 0
 179 67 180 72 181 77 c 2
 252 407 l 1
 243 405 l 1
 182 405 144 448 144 490 c 0
 144 558 221 614 283 614 c 0
 338 614 378 573 378 528 c 0
 378 523 378 518 377 513 c 2
 297 136 l 1
 301 158 313 194 323 207 c 1
 540 612 l 1
 591 607 595 568 595 562 c 2
 623 207 l 2
 625 194 621 159 618 139 c 1
 724 635 l 1
 721 634 715 633 706 633 c 2
 689 633 l 2
 628 633 589 672 589 719 c 0
 589 785 665 844 737 844 c 0
268 564 m 256
 233 564 201 530 201 498 c 0
 201 474 219 455 246 455 c 256
 284 455 313 493 313 523 c 0
 313 546 294 564 268 564 c 256
721 794 m 256
 687 794 653 765 653 729 c 0
 653 705 670 686 696 686 c 256
 731 686 764 717 764 751 c 0
 764 768 753 794 721 794 c 256
EndSplineSet
Substitution2: "Single Substitution lookup 22 subtable" uni0E2C.alt1
Substitution2: "Single Substitution lookup 22 subtable" uni0E2C.alt1
EndChar
StartChar: uni0E2D
Encoding: 3629 3629 256
Width: 642
VWidth: 1507
Flags: W
HStem: 0 83<220 449.559> 197 53<244 321.681> 359 51<249.869 335.167> 531 83<311.046 533.294>
VStem: 341 62<269.957 353.557> 546 110<458.828 519.077>
Fore
403 320 m 0
 403 262 332 197 259 197 c 2
 244 197 l 1
 220 83 l 1
 405 83 l 2
 438 83 471 121 479 154 c 2
 544 457 l 2
 545 462 546 467 546 472 c 0
 546 502 525 531 493 531 c 2
 396 531 l 2
 324 531 266 485 240 455 c 1
 131 455 l 1
 188 536 301 614 415 614 c 2
 511 614 l 2
 592 614 656 559 656 486 c 0
 656 478 655 469 653 460 c 2
 588 155 l 2
 571 72 474 -0 389 0 c 2
 185 0 l 2
 133 0 114 38 114 63 c 0
 114 68 115 73 116 78 c 2
 164 306 l 2
 179 365 248 410 304 410 c 256
 361 410 403 366 403 320 c 0
297 359 m 256
 258 359 230 321 230 292 c 0
 230 268 248 250 274 250 c 256
 312 250 341 284 341 318 c 0
 341 341 323 359 297 359 c 256
EndSplineSet
EndChar
StartChar: uni0E2E
Encoding: 3630 3630 257
Width: 631
VWidth: 1507
Flags: W
HStem: 0 83<213 441.938> 127 52<222 298.611> 288 51<227.224 313.785> 369 74<256.243 437.37> 535 77<265.005 515.577>
VStem: 154 95<452.182 517.641> 319 61<199.689 281.965>
Fore
249 482 m 0
 249 460 276 443 312 443 c 0
 434 443 490 490 516 519 c 1
 507 528 497 533 484 535 c 1
 327 535 l 2
 292 534 249 515 249 482 c 0
380 251 m 0
 380 189 309 127 237 127 c 2
 222 127 l 1
 213 83 l 1
 398 83 l 2
 436 83 463 125 470 161 c 2
 529 436 l 1
 475 389 388 369 292 369 c 256
 225 369 154 402 154 460 c 0
 154 532 249 612 353 612 c 2
 500 612 l 2
 521 612 536 611 552 607 c 1
 568 645 571 659 574 672 c 1
 674 672 l 1
 671 660 660 622 626 553 c 1
 644 531 647 493 647 477 c 0
 647 468 646 458 644 449 c 2
 582 157 l 2
 558 59 460 -0 380 0 c 2
 181 0 l 2
 130 0 106 37 106 63 c 0
 106 67 106 71 107 75 c 2
 142 235 l 2
 152 285 214 339 282 339 c 256
 337 339 380 296 380 251 c 0
274 288 m 256
 239 288 207 254 207 222 c 0
 207 198 225 179 252 179 c 256
 290 179 319 217 319 247 c 0
 319 270 300 288 274 288 c 256
EndSplineSet
EndChar
StartChar: uni0E2F
Encoding: 3631 3631 258
Width: 624
VWidth: 1507
Flags: W
HStem: 0 101<360 418.53> 333 91<330 415.774> 333 115<210.999 357.554> 556 51<225.738 311.485>
VStem: 137 69<453.649 535.948> 317 63<466.801 550.772>
Fore
510 402 m 1xdc
 468 373 389 333 308 333 c 0xbc
 210 333 137 388 137 469 c 0
 137 559 229 607 285 607 c 0
 350 607 380 560 380 521 c 0
 380 492 365 443 330 424 c 1
 350 425 l 2
 420 425 530 506 555 615 c 1
 669 615 l 1
 579 188 l 2
 553 63 473 -0 339 0 c 1
 360 101 l 1
 414 104 456 145 466 197 c 2
 510 402 l 1xdc
273 556 m 256
 233 556 206 518 206 490 c 0
 206 465 225 448 250 448 c 256
 289 448 317 481 317 516 c 0
 317 540 297 556 273 556 c 256
EndSplineSet
EndChar
StartChar: uni0E30
Encoding: 3632 3632 259
Width: 584
VWidth: 1507
Flags: W
HStem: 32 83<270 357.093> 241 53<163.43 249.685> 318 83<335 422.606> 528 52<227.919 313.189>
VStem: 75 69<137.618 221.631> 140 69<425.732 508.64> 254 65<166.457 236.16> 319 64<451.883 522.692>
Fore
342 401 m 2xf3
 436 401 541 488 561 588 c 1
 657 588 l 1
 632 461 480 318 320 318 c 0
 222 318 140 370 140 444 c 0xf7
 140 531 230 580 288 580 c 0
 343 580 383 540 383 493 c 0
 383 470 373 423 335 401 c 1
 342 401 l 2xf3
277 115 m 2
 368 115 475 198 496 301 c 1
 592 301 l 1
 566 170 414 32 255 32 c 0
 160 32 75 83 75 158 c 0xfb
 75 241 162 294 223 294 c 0
 284 294 319 248 319 207 c 0
 319 182 305 135 270 115 c 1
 277 115 l 2
276 528 m 256
 240 528 209 497 209 461 c 0xf7
 209 437 227 419 253 419 c 256
 288 419 319 450 319 486 c 0
 319 509 302 528 276 528 c 256
211 241 m 256
 176 241 144 212 144 174 c 0xfb
 144 150 161 133 187 133 c 256
 222 133 254 162 254 200 c 0
 254 224 237 241 211 241 c 256
EndSplineSet
EndChar
StartChar: uni0E31
Encoding: 3633 3633 260
Width: 0
VWidth: 1507
Flags: W
HStem: 687 83<-27 61.2352> 897 53<-132.622 -46.6597>
VStem: -222 69<793.353 876.648> -42 62<821.358 891.687> 197 97<881.472 957>
Fore
-20 770 m 2
 68 770 178 854 197 957 c 1
 294 957 l 1
 264 820 108 687 -42 687 c 0
 -136 687 -222 738 -222 814 c 0
 -222 897 -135 950 -74 950 c 0
 -18 950 20 908 20 863 c 0
 20 847 14 793 -27 770 c 1
 -20 770 l 2
-86 897 m 256
 -125 897 -153 859 -153 831 c 0
 -153 811 -139 788 -109 788 c 256
 -69 788 -42 825 -42 857 c 0
 -42 879 -60 897 -86 897 c 256
EndSplineSet
Substitution2: "Single Substitution lookup 22 subtable" uni0E31.alt1
Substitution2: "Single Substitution lookup 22 subtable" uni0E31.alt1
EndChar
StartChar: uni0E32
Encoding: 3634 3634 261
Width: 572
VWidth: 1507
Flags: W
HStem: 0 21G<375 491.204> 523 91<304.891 462.794>
VStem: 470 112<435.347 462 462 467 464.5 511.401>
Fore
443 614 m 2
 530 614 585 550 585 482 c 0
 585 472 584 462 582 452 c 2
 487 0 l 1
 375 0 l 1
 470 452 l 2
 472 459 473 465 473 472 c 0
 473 501 449 520 424 523 c 2
 372 523 l 2
 350 520 261 505 207 412 c 1
 118 445 l 1
 172 526 266 614 395 614 c 2
 443 614 l 2
EndSplineSet
EndChar
StartChar: uni0E34
Encoding: 3636 3636 263
Width: 0
VWidth: 1507
Flags: MW
HStem: 731 62<-324 -245.006> 874 64<-244.768 -74.9653>
Fore
-437 731 m 1
 -394 826 -288 938 -131 938 c 0
 15 938 65 802 65 671 c 1
 -141 724 -236 731 -437 731 c 1
-18 754 m 1
 -26 799 -59 874 -140 874 c 0
 -205 874 -284 849 -324 793 c 1
 -278 793 -104 784 -18 754 c 1
EndSplineSet
Substitution2: "Single Substitution lookup 22 subtable" uni0E34.alt1
Substitution2: "Single Substitution lookup 22 subtable" uni0E34.alt1
EndChar
StartChar: uni0E35
Encoding: 3637 3637 264
Width: 0
VWidth: 1507
Flags: W
HStem: 731 62<-324 -245.006> 874 64<-244.768 -75.391>
Fore
-131 938 m 0
 -69 938 15 904 15 847 c 0
 15 843 15 839 14 835 c 1
 36 942 l 1
 118 942 l 1
 65 690 l 1
 65 671 l 1
 -141 724 -236 731 -437 731 c 1
 -394 826 -288 938 -131 938 c 0
-18 754 m 1
 -26 799 -59 874 -140 874 c 0
 -205 874 -284 849 -324 793 c 1
 -278 793 -104 784 -18 754 c 1
EndSplineSet
Substitution2: "Single Substitution lookup 22 subtable" uni0E35.alt1
Substitution2: "Single Substitution lookup 22 subtable" uni0E35.alt1
EndChar
StartChar: uni0E36
Encoding: 3638 3638 265
Width: 0
VWidth: 1507
Flags: MW
HStem: 716 62<-327 -252.161> 859 64<-248.528 -89.464> 923 46<7.72391 92.975>
VStem: 99 52<834.275 917.289>
Fore
151 887 m 0
 151 822 90 780 48 766 c 1
 51 756 62 722 62 656 c 1
 -97 697 -203 716 -442 716 c 1
 -401 807 -293 923 -134 923 c 0
 -107 923 -82 918 -60 907 c 1
 -37 942 1 969 57 969 c 0
 116 969 151 927 151 887 c 0
56 923 m 256
 20 923 -11 891 -11 855 c 0
 -11 841 -2 814 32 814 c 256
 66 814 99 846 99 881 c 0
 99 904 82 923 56 923 c 256
-21 739 m 1
 -29 784 -62 859 -143 859 c 0
 -208 859 -287 834 -327 778 c 1
 -297 778 -116 771 -21 739 c 1
EndSplineSet
Substitution2: "Single Substitution lookup 22 subtable" uni0E36.alt1
Substitution2: "Single Substitution lookup 22 subtable" uni0E36.alt1
EndChar
StartChar: uni0E37
Encoding: 3639 3639 266
Width: 0
VWidth: 1507
Flags: MW
HStem: 731 62<-324 -245.006> 874 64<-244.768 -91.7142>
Fore
-437 731 m 1
 -394 826 -288 938 -131 938 c 0
 -120 938 -106 936 -89 933 c 1
 -81 969 l 1
 0 969 l 1
 -14 901 l 1
 4 887 22 864 17 847 c 1
 42 969 l 1
 124 969 l 1
 65 690 l 1
 65 671 l 1
 -141 724 -236 731 -437 731 c 1
-18 754 m 1
 -26 799 -59 874 -140 874 c 0
 -205 874 -284 849 -324 793 c 1
 -278 793 -104 784 -18 754 c 1
EndSplineSet
Substitution2: "Single Substitution lookup 22 subtable" uni0E37.alt1
Substitution2: "Single Substitution lookup 22 subtable" uni0E37.alt1
EndChar
StartChar: uni0E38
Encoding: 3640 3640 267
Width: 0
VWidth: 1507
Flags: W
HStem: -244 44<-322.493 -289> -92 42<-308.683 -223.014>
VStem: -384 56<-195.253 -111.876> -218 62<-163.665 -97.0201>
Fore
-253 -50 m 0
 -197 -50 -156 -88 -156 -128 c 0
 -156 -134 -157 -140 -158 -146 c 2
 -199 -339 l 1
 -309 -339 l 1
 -289 -244 l 1
 -295 -244 l 2
 -353 -244 -384 -201 -384 -163 c 0
 -384 -118 -335 -50 -253 -50 c 0
-261 -92 m 256
 -291 -92 -328 -119 -328 -159 c 0
 -328 -183 -311 -200 -285 -200 c 256
 -249 -200 -218 -170 -218 -134 c 0
 -218 -112 -233 -92 -261 -92 c 256
EndSplineSet
Substitution2: "Single Substitution lookup 21 subtable" a
Substitution2: "Single Substitution lookup 22 subtable" uni0E38.alt1
Substitution2: "Single Substitution lookup 21 subtable" a
Substitution2: "Single Substitution lookup 22 subtable" uni0E38.alt1
EndChar
StartChar: uni0E39
Encoding: 3641 3641 268
Width: 0
VWidth: 1507
Flags: W
HStem: -347 85<-315 -262> -244 44<-455.894 -422> -92 42<-442.726 -357.15>
VStem: -517 55<-195.027 -110.25> -352 63<-163.665 -97.235>
Fore
-386 -50 m 0
 -327 -50 -289 -89 -289 -128 c 0
 -289 -134 -290 -140 -291 -146 c 2
 -315 -262 l 1
 -262 -262 l 1
 -219 -51 l 1
 -115 -51 l 1
 -158 -262 l 2
 -173 -319 -208 -347 -274 -347 c 2
 -443 -347 l 1
 -422 -244 l 1
 -428 -244 l 2
 -481 -244 -517 -204 -517 -163 c 0
 -517 -114 -463 -50 -386 -50 c 0
-395 -92 m 256
 -429 -92 -462 -121 -462 -159 c 0
 -462 -183 -445 -200 -419 -200 c 256
 -383 -200 -352 -170 -352 -134 c 0
 -352 -112 -367 -92 -395 -92 c 256
EndSplineSet
Substitution2: "Single Substitution lookup 21 subtable" b
Substitution2: "Single Substitution lookup 22 subtable" uni0E39.alt1
Substitution2: "Single Substitution lookup 21 subtable" b
Substitution2: "Single Substitution lookup 22 subtable" uni0E39.alt1
EndChar
StartChar: uni0E3A
Encoding: 3642 3642 269
Width: 0
VWidth: 1507
Flags: W
HStem: -250 141<-232.922 -151.443>
VStem: -266 146<-218.125 -141.767>
Fore
-266 -195 m 0
 -266 -155 -228 -109 -178 -109 c 256
 -144 -109 -120 -130 -120 -162 c 0
 -120 -207 -158 -250 -208 -250 c 256
 -243 -250 -266 -228 -266 -195 c 0
EndSplineSet
Substitution2: "Single Substitution lookup 21 subtable" c
Substitution2: "Single Substitution lookup 22 subtable" uni0E3A.alt1
Substitution2: "Single Substitution lookup 21 subtable" c
Substitution2: "Single Substitution lookup 22 subtable" uni0E3A.alt1
EndChar
StartChar: uni0E3F
Encoding: 3647 3647 270
Width: 646
VWidth: 1507
Flags: W
HStem: 0 83<193 268 390 452.462> 341 81<265 341 464 501.333> 648 82<314 405 528 556.553>
VStem: 528 115<167.386 313.033> 579 99<490.717 623.968>
Fore
643 249 m 0xf0
 643 123 504 -0 384 0 c 2
 374 0 l 1
 356 -78 l 1
 250 -78 l 1
 268 0 l 1
 65 0 l 1
 219 730 l 1
 422 730 l 1
 439 805 l 1
 544 805 l 1
 528 730 l 1xf0
 605 720 678 666 678 572 c 0xe8
 678 477 596 406 568 393 c 1
 613 374 643 308 643 249 c 0xf0
528 242 m 0
 528 300 495 341 457 341 c 2
 446 341 l 1
 390 83 l 1
 401 83 l 2
 455 83 528 163 528 242 c 0
193 83 m 1
 285 83 l 1
 341 341 l 1
 249 341 l 1
 193 83 l 1
265 422 m 1
 357 422 l 1
 405 648 l 1
 314 648 l 1
 265 422 l 1
464 427 m 1
 522 427 579 498 579 559 c 0xe8
 579 603 558 644 510 644 c 1
 464 427 l 1
EndSplineSet
EndChar
StartChar: uni0E40
Encoding: 3648 3648 271
Width: 360
VWidth: 1507
Flags: W
HStem: -2 53<165.46 249.217> 160 53<228 264.063> 594 20G<198.748 314>
VStem: 93 66<57.1452 122.783> 270 65<69.91 154.686>
Fore
190 -2 m 0
 131 -2 93 39 93 85 c 0
 93 92 94 99 95 106 c 2
 203 614 l 1
 314 614 l 1
 228 213 l 1
 235 213 l 2
 295 213 335 171 335 126 c 0
 335 54 252 -2 190 -2 c 0
226 160 m 256
 187 160 159 122 159 94 c 0
 159 74 173 51 203 51 c 256
 243 51 270 88 270 120 c 0
 270 142 252 160 226 160 c 256
EndSplineSet
EndChar
StartChar: uni0E42
Encoding: 3650 3650 273
Width: 345
VWidth: 1507
Flags: W
HStem: -2 53<189.402 274.546> 160 53<252 288.417> 945 83<351.265 492.77> 981 85<222.617 325.79>
VStem: 117 66<56.9417 122.916> 294 65<70.9178 154.686>
Fore
214 -2 m 0xdc
 146 -2 117 47 117 85 c 0
 117 92 118 99 119 106 c 2
 264 784 l 1
 239 813 178 836 53 858 c 1
 65 923 116 1000 151 1028 c 0xec
 161 1035 203 1066 280 1066 c 0xdc
 348 1060 387 1028 437 1028 c 0
 464 1028 525 1067 573 1106 c 1
 583 1027 l 1
 527 969 453 945 421 945 c 0xec
 316 945 302 981 259 981 c 0
 242 981 191 967 179 920 c 1
 307 890 353 846 380 814 c 1
 252 213 l 1
 259 213 l 2
 320 213 359 171 359 126 c 0
 359 51 274 -2 214 -2 c 0xdc
250 160 m 256
 215 160 183 126 183 94 c 0
 183 70 201 51 228 51 c 256
 265 51 294 86 294 120 c 0
 294 142 276 160 250 160 c 256
EndSplineSet
EndChar
StartChar: uni0E43
Encoding: 3651 3651 274
Width: 346
VWidth: 1507
Flags: W
HStem: -2 53<191.48 277.329> 160 53<255 290.435> 790 53<135.023 221.032> 951 53<187.46 234.675> 1019 62<204.135 307.089>
VStem: 62 68<847.519 932.306> 119 67<56.3491 123.682> 240 52<861.465 945.22> 297 66<71.2306 153.706> 337 99<853.837 989.365>
Fore
363 124 m 0xf980
 363 60 289 -2 217 -2 c 0
 153 -2 119 43 119 87 c 0xfb80
 119 94 120 100 121 106 c 2
 252 725 l 2
 267 798 337 853 337 929 c 0
 337 986 295 1019 247 1019 c 0
 222 1019 204 1015 187 1001 c 1
 192 1003 199 1004 208 1004 c 0
 258 1004 292 958 292 914 c 0
 292 861 238 790 163 790 c 0
 93 790 62 841 62 891 c 0
 62 963 131 1081 283 1081 c 0
 372 1081 436 1012 436 933 c 0xfd40
 436 852 374 770 364 725 c 2
 255 213 l 1
 262 213 l 2
 320 213 363 174 363 124 c 0xf980
230 51 m 256
 269 51 297 88 297 116 c 0
 297 142 278 160 253 160 c 256
 216 160 186 127 186 94 c 0
 186 68 205 51 230 51 c 256
173 843 m 256
 213 843 240 879 240 908 c 0
 240 934 222 951 196 951 c 256
 160 951 130 920 130 884 c 0xfd
 130 859 147 843 173 843 c 256
EndSplineSet
EndChar
StartChar: uni0E44
Encoding: 3652 3652 275
Width: 349
VWidth: 1507
Flags: W
HStem: -2 53<190.998 275.657> 160 53<253 290.063>
VStem: 117 67<57.4532 122.848> 296 65<70.6857 154.652>
Fore
330 1076 m 1
 381 1076 422 1049 422 1010 c 0
 422 1005 422 1001 421 996 c 2
 253 213 l 1
 261 213 l 2
 321 213 361 171 361 126 c 0
 361 57 280 -2 216 -2 c 0
 147 -2 117 48 117 86 c 0
 117 92 118 99 119 106 c 2
 289 906 l 1
 172 757 l 1
 160 757 124 756 110 784 c 2
 6 1066 l 1
 106 1066 l 1
 173 870 l 1
 330 1076 l 1
252 160 m 256
 215 160 184 125 184 96 c 0
 184 73 200 51 229 51 c 256
 269 51 296 89 296 119 c 0
 296 144 275 160 252 160 c 256
EndSplineSet
EndChar
StartChar: uni0E45
Encoding: 3653 3653 276
Width: 553
VWidth: 1507
Flags: W
HStem: 523 91<304.891 462.794>
VStem: 470 112<435.463 462 462 467 464.5 511.401>
Fore
443 614 m 2
 530 614 585 550 585 482 c 0
 585 472 584 462 582 452 c 2
 433 -252 l 1
 321 -252 l 1
 470 452 l 2
 472 459 473 465 473 472 c 0
 473 501 449 520 424 523 c 2
 372 523 l 2
 350 520 261 505 207 412 c 1
 118 445 l 1
 172 526 266 614 395 614 c 2
 443 614 l 2
EndSplineSet
EndChar
StartChar: uni0E46
Encoding: 3654 3654 277
Width: 584
VWidth: 1507
Flags: MW
HStem: -253 90<267 336.287> 262 47<169.415 254.976> 418 45<235 268.956> 511 86<304 304>
VStem: 105 59<315.071 398.076> 275 45<329.609 412.204> 486 111<448.153 497.326>
Fore
479 600 m 1
 557 592 597 520 597 473 c 0
 597 466 596 460 595 454 c 2
 481 -90 l 2
 472 -129 434 -253 247 -253 c 1
 267 -163 l 1
 329 -163 364 -125 371 -90 c 2
 475 399 l 2
 481 431 486 460 486 474 c 0
 486 490 479 500 466 506 c 1
 375 402 l 1
 304 511 l 1
 260 507 241 477 235 463 c 1
 243 463 l 2
 280 463 320 427 320 382 c 0
 320 339 282 262 197 262 c 0
 142 262 105 302 105 360 c 0
 105 472 219 597 348 597 c 1
 398 508 l 1
 479 600 l 1
231 418 m 256
 191 418 164 381 164 349 c 0
 164 327 182 309 208 309 c 256
 247 309 275 347 275 375 c 0
 275 395 261 418 231 418 c 256
EndSplineSet
EndChar
StartChar: uni0E47
Encoding: 3655 3655 278
Width: 0
VWidth: 1507
Flags: W
HStem: 675 44<-120.199 -75.8391> 832 38<-53.5294 18.8536> 907 61<-201.97 34.7155>
VStem: -339 71<762.193 850.284> -110 45<750.439 821.1> 21 46<758.725 830.356> 75 73<989.569 1048>
Fore
-110 780 m 0
 -110 834 -50 870 -2 870 c 0
 40 870 67 847 67 806 c 0
 67 750 13 675 -90 675 c 0
 -152 675 -185 722 -188 745 c 1
 -243 677 l 1
 -300 677 -339 727 -339 787 c 0
 -339 896 -222 968 -93 968 c 2
 -38 968 l 2
 28 968 67 1008 75 1048 c 1
 148 1048 l 1
 126 955 37 907 -23 907 c 2
 -109 907 l 2
 -218 907 -268 838 -268 806 c 0
 -268 784 -256 760 -238 760 c 1
 -173 834 l 1
 -164 802 -132 719 -72 719 c 1
 -80 723 -110 744 -110 780 c 0
-12 832 m 0
 -43 832 -65 805 -65 779 c 0
 -65 760 -49 748 -30 748 c 256
 0 748 21 777 21 799 c 0
 21 819 8 832 -12 832 c 0
EndSplineSet
Substitution2: "Single Substitution lookup 22 subtable" uni0E47.alt1
Substitution2: "Single Substitution lookup 22 subtable" uni0E47.alt1
EndChar
StartChar: uni0E48
Encoding: 3656 3656 279
Width: 0
VWidth: 1507
Flags: W
HStem: 1010 194<89 137 89 137 89 89>
Fore
89 1204 m 1
 178 1204 l 1
 137 1010 l 1
 48 1010 l 1
 89 1204 l 1
EndSplineSet
Substitution2: "Single Substitution lookup 22 subtable" uni0E48.alt2
Substitution2: "Single Substitution lookup 22 subtable" uni0E48.alt2
EndChar
StartChar: uni0E49
Encoding: 3657 3657 280
Width: 0
VWidth: 1507
Flags: MW
HStem: 978 41<-2.93697 62.0835 115 159.005> 1162 42<74.0196 140.046>
VStem: 20 47<1090.6 1155.8> 141 46<1106.76 1154.74> 280 67<1120.4 1197>
Fore
347 1197 m 1
 322 1088 196 978 86 978 c 0
 45 978 17 981 -29 1019 c 1
 51 1019 68 1044 75 1055 c 1
 71 1054 67 1054 63 1055 c 1
 46 1055 20 1075 20 1113 c 0
 20 1149 64 1204 121 1204 c 256
 164 1204 187 1171 187 1142 c 0
 187 1098 139 1039 115 1024 c 1
 171 1024 264 1138 280 1197 c 1
 347 1197 l 1
112 1162 m 256
 85 1162 67 1141 67 1117 c 0
 67 1099 78 1090 96 1090 c 256
 132 1090 141 1120 141 1134 c 0
 141 1145 135 1162 112 1162 c 256
EndSplineSet
Substitution2: "Single Substitution lookup 22 subtable" uni0E49.alt2
Substitution2: "Single Substitution lookup 22 subtable" uni0E49.alt2
EndChar
StartChar: uni0E4A
Encoding: 3658 3658 281
Width: 0
VWidth: 1507
Flags: W
HStem: 983 33<-53.4917 14.5983> 1090 33<-3 18.9705> 1156 47<5.85283 51>
VStem: -88 34<1016.81 1067.19> 21 33<1033.87 1088.91> 176 51<1078.8 1148.44> 277 47<1086.35 1206>
Fore
128 986 m 1
 150 1021 176 1083 176 1122 c 0
 176 1131 175 1140 173 1149 c 1
 92 1052 l 1
 51 1156 l 1
 28 1156 1 1137 -3 1123 c 1
 42 1123 54 1087 54 1067 c 0
 54 1058 49 983 -35 983 c 0
 -59 983 -88 1008 -88 1038 c 0
 -88 1042 -88 1047 -87 1051 c 2
 -78 1094 l 2
 -63 1175 33 1203 89 1203 c 1
 109 1137 l 1
 126 1165 143 1182 155 1203 c 1
 213 1203 227 1168 227 1134 c 0
 227 1110 216 1069 208 1057 c 2
 199 1043 l 1
 233 1063 265 1141 277 1206 c 1
 324 1206 l 1
 278 998 167 986 128 986 c 1
-9 1090 m 0
 -36 1090 -54 1068 -54 1043 c 0
 -54 1026 -42 1016 -24 1016 c 256
 -0 1016 21 1034 21 1060 c 0
 21 1078 9 1090 -9 1090 c 0
EndSplineSet
Substitution2: "Single Substitution lookup 22 subtable" uni0E4A.alt2
Substitution2: "Single Substitution lookup 22 subtable" uni0E4A.alt2
EndChar
StartChar: uni0E4B
Encoding: 3659 3659 282
Width: 0
VWidth: 1507
Flags: MW
HStem: 1067 67<-14 62 160 243 -27 256 -14 -14>
Fore
256 1134 m 1
 243 1067 l 1
 146 1067 l 1
 128 984 l 1
 44 984 l 1
 62 1067 l 1
 -27 1067 l 1
 -14 1134 l 1
 75 1134 l 1
 90 1204 l 1
 175 1204 l 1
 160 1134 l 1
 256 1134 l 1
EndSplineSet
Substitution2: "Single Substitution lookup 22 subtable" uni0E4B.alt2
Substitution2: "Single Substitution lookup 22 subtable" uni0E4B.alt2
EndChar
StartChar: uni0E4C
Encoding: 3660 3660 283
Width: 0
VWidth: 1507
Flags: MW
HStem: 915 48<67.0895 148.248> 1042 69<228 315.75> 1064 47<80.3202 161.158>
VStem: 1 62<966.733 1047.9> 165 63<979.805 1041.75>
Fore
255 1111 m 2
 287 1111 348 1138 374 1206 c 1
 463 1206 l 1
 448 1157 418 1123 381 1094 c 0
 341 1059 294 1042 240 1042 c 2
 228 1042 l 1
 233 986 177 915 93 915 c 0
 36 915 1 957 1 996 c 0
 1 1051 63 1111 134 1111 c 2
 255 1111 l 2
125 1064 m 256
 93 1064 63 1039 63 1001 c 0
 63 979 79 963 103 963 c 256
 133 963 165 990 165 1023 c 0
 165 1040 157 1064 125 1064 c 256
EndSplineSet
Substitution2: "Single Substitution lookup 22 subtable" uni0E4C.alt2
Substitution2: "Single Substitution lookup 22 subtable" uni0E4C.alt2
EndChar
StartChar: uni0E4D
Encoding: 3661 3661 284
Width: 0
VWidth: 1507
Flags: W
HStem: 696 56<-106.15 -21.0188> 861 49<-92.5391 -7.38227>
VStem: -180 67<758.76 840.646> -2 66<771.488 856.09>
Fore
64 825 m 0
 64 761 -9 696 -80 696 c 0
 -145 696 -180 747 -180 786 c 0
 -180 843 -116 910 -35 910 c 0
 36 910 64 859 64 825 c 0
-45 861 m 256
 -83 861 -113 827 -113 796 c 0
 -113 776 -98 752 -68 752 c 256
 -30 752 -2 787 -2 815 c 0
 -2 843 -19 861 -45 861 c 256
EndSplineSet
Substitution2: "Single Substitution lookup 22 subtable" uni0E4D.alt1
Substitution2: "Single Substitution lookup 22 subtable" uni0E4D.alt1
EndChar
StartChar: uni0E4E
Encoding: 3662 3662 285
Width: 0
VWidth: 1507
Flags: W
HStem: 745 71<-22.2049 48.6868> 892 59<-18.2904 2 84.4312 142> 1036 63<93.4045 285>
VStem: -118 88<816.792 883.518> -5 88<965.982 1024.27>
Fore
83 984 m 0
 83 973 88 951 109 951 c 2
 155 951 l 1
 142 892 l 1
 12 892 l 2
 -5 892 -30 870 -30 842 c 0
 -30 821 -11 816 -2 816 c 0
 22 816 32 824 38 829 c 1
 83 782 l 1
 50 757 16 745 -17 745 c 0
 -76 745 -118 785 -118 832 c 0
 -118 881 -73 949 2 954 c 1
 -4 971 -5 980 -5 983 c 0
 -5 1025 52 1099 139 1099 c 2
 297 1099 l 1
 285 1036 l 1
 134 1036 l 2
 112 1036 83 1015 83 984 c 0
EndSplineSet
Substitution2: "Single Substitution lookup 22 subtable" uni0E4E.alt1
Substitution2: "Single Substitution lookup 22 subtable" uni0E4E.alt1
EndChar
StartChar: uni0E4F
Encoding: 3663 3663 286
Width: 688
VWidth: 1507
Flags: W
HStem: -12 83<267.708 448.073> 131 71<335.92 439.416> 369 71<361.103 467.682> 503 85<351.831 528.405>
VStem: 80 105<155.391 332.967> 240 80<216.845 327.147> 483 78<245.213 353.546> 616 103<237.214 413.758>
Fore
80 226 m 0
 80 399 258 588 464 588 c 0
 621 588 719 471 719 343 c 0
 719 164 534 -12 338 -12 c 0
 179 -12 80 98 80 226 c 0
616 328 m 0
 616 423 547 503 446 503 c 0
 305 503 185 366 185 240 c 0
 185 135 263 71 354 71 c 0
 485 71 616 198 616 328 c 0
240 255 m 0
 240 348 332 440 434 440 c 256
 509 440 561 391 561 317 c 0
 561 233 476 131 368 131 c 256
 279 131 240 198 240 255 c 0
419 369 m 256
 364 369 320 317 320 266 c 0
 320 231 344 202 383 202 c 0
 435 202 483 254 483 305 c 0
 483 340 459 369 419 369 c 256
EndSplineSet
EndChar
StartChar: uni0E50
Encoding: 3664 3664 287
Width: 679
VWidth: 1507
Flags: W
HStem: -12 92<281.514 453.264> 452 94<350.963 523.374>
VStem: 98 114<151.078 311.054> 593 114<219.158 384.123>
Fore
707 319 m 0
 707 152 529 -12 344 -12 c 256
 185 -12 98 102 98 214 c 0
 98 388 284 546 461 546 c 256
 615 546 707 434 707 319 c 0
442 452 m 256
 305 452 212 327 212 224 c 0
 212 154 266 80 363 80 c 256
 489 80 593 196 593 306 c 0
 593 382 542 452 442 452 c 256
EndSplineSet
EndChar
StartChar: uni0E51
Encoding: 3665 3665 288
Width: 648
VWidth: 1507
Flags: W
HStem: -60 84<280 388.574> 104 75<232.248 378.678> 288 62<319.828 405.097> 458 91<335.279 502.267>
VStem: 106 114<243.384 354.192> 237 62<229 268.16> 411 69<200.762 281.601> 569 111<228.447 391.899>
Fore
448 549 m 256
 576 549 680 449 680 327 c 0
 680 172 508 -20 294 -60 c 1
 280 24 l 1
 445 60 569 203 569 315 c 0
 569 385 518 458 430 458 c 256
 304 458 220 362 220 281 c 0
 220 261 226 244 237 229 c 1
 237 284 299 350 380 350 c 0
 450 350 480 300 480 263 c 0
 480 186 391 104 288 104 c 0
 160 104 106 198 106 268 c 0
 106 413 273 549 448 549 c 256
366 288 m 256
 331 288 299 254 299 222 c 0
 299 198 317 179 344 179 c 256
 382 179 411 217 411 247 c 0
 411 270 392 288 366 288 c 256
EndSplineSet
EndChar
StartChar: uni0E52
Encoding: 3666 3666 289
Width: 824
VWidth: 1507
Flags: W
HStem: 0 90<239.967 614.64> 185 53<335.917 421.986> 347 52<401 435.851> 451 90<423.353 527.189>
VStem: 90 113<126.175 191.626> 182 114<619.81 742.092> 263 68<243.725 313.886> 443 66<258.009 341.06> 725 113<375.305 432.485>
Fore
182 651 m 0xf580
 182 719 158 758 119 790 c 1
 193 870 l 1
 270 807 296 756 296 680 c 0xf580
 296 642 287 586 268 494 c 2
 205 194 l 2
 204 188 203 183 203 177 c 0
 203 136 246 90 292 90 c 2
 550 90 l 2
 608 90 674 145 684 191 c 2
 724 375 l 2
 725 378 725 382 725 385 c 0
 725 408 708 434 693 442 c 1
 577 348 l 1
 562 384 525 451 491 451 c 0
 444 451 414 434 401 399 c 1
 410 399 l 2
 468 399 509 359 509 315 c 0
 509 248 430 185 365 185 c 256
 305 185 263 232 263 278 c 0
 263 288 267 304 276 338 c 2
 283 375 l 2
 301 452 374 541 511 541 c 0
 572 541 576 492 604 452 c 1
 704 538 l 1
 761 538 838 479 838 404 c 0
 838 395 837 385 835 375 c 2
 796 190 l 2
 774 85 648 0 534 0 c 2
 274 0 l 2
 183 0 90 67 90 162 c 0xfb80
 90 171 91 180 93 190 c 2
 158 494 l 2
 177 587 182 619 182 651 c 0xf580
398 347 m 256
 358 347 331 309 331 279 c 0xf380
 331 254 352 238 375 238 c 256
 412 238 443 273 443 303 c 0
 443 327 426 347 398 347 c 256
EndSplineSet
EndChar
StartChar: uni0E53
Encoding: 3667 3667 290
Width: 752
VWidth: 1507
Flags: W
HStem: -5 59<190.976 275.398> 163 53<202.788 288.029>
VStem: 76 112<81.9132 221.052 194 298.104> 295 64<74.0564 156.538> 656 107<360.506 384.5 384.5 388.5 386.5 439.155>
Fore
262 216 m 0
 334 216 359 164 359 130 c 0
 359 57 282 -5 216 -5 c 1
 84 14 76 146 76 192 c 0
 76 391 241 541 419 541 c 1
 458 386 l 1
 564 541 l 1
 641 541 l 2
 721 541 766 476 766 405 c 0
 766 394 765 383 763 372 c 2
 684 0 l 1
 576 0 l 1
 656 377 l 2
 657 382 658 387 658 392 c 0
 658 420 640 449 612 449 c 1
 413 166 l 1
 330 440 l 1
 257 422 188 297 188 201 c 2
 188 194 l 1
 207 205 233 216 262 216 c 0
250 163 m 256
 216 163 184 131 184 98 c 0
 184 75 199 54 228 54 c 256
 262 54 295 86 295 119 c 0
 295 143 278 163 250 163 c 256
EndSplineSet
EndChar
StartChar: uni0E54
Encoding: 3668 3668 291
Width: 764
VWidth: 1507
Flags: W
HStem: -6 90<258.78 473.318> 9 86<345.049 475> 300 51<448.219 533.405> 443 89<319.908 528.5 528.5 547.5 547.5 680.454>
VStem: 74 114<153.147 309.378> 364 65<206.255 281.101> 539 67<225.632 295.092> 858 105<680.016 809>
Fore
589 534 m 0xbf
 755 534 831 703 858 809 c 1
 963 808 l 1
 930 645 802 442 570 442 c 0
 537 442 520 443 487 443 c 2
 410 443 l 2
 277 443 188 321 188 226 c 0
 188 142 257 84 342 84 c 0xbf
 408 84 412 95 475 95 c 1
 412 129 364 167 364 225 c 0
 364 290 438 351 506 351 c 0
 566 351 606 310 606 268 c 0
 606 250 601 204 550 167 c 1
 574 150 612 129 643 114 c 2
 701 88 l 2
 720 79 737 73 752 69 c 1
 708 -20 l 1
 647 -4 567 9 496 9 c 0x7f
 425 9 410 -6 324 -6 c 0
 177 -6 74 78 74 204 c 0
 74 367 222 532 430 532 c 2
 506 532 l 2
 539 532 556 534 589 534 c 0xbf
496 300 m 256
 462 300 429 271 429 233 c 0
 429 216 439 191 472 191 c 256
 505 191 539 220 539 258 c 0
 539 280 524 300 496 300 c 256
EndSplineSet
EndChar
StartChar: uni0E55
Encoding: 3669 3669 292
Width: 764
VWidth: 1507
Flags: W
HStem: -6 90<258.751 474.167> 9 86<343.917 476> 300 51<447.695 533.368> 442 81<568.12 653.342> 443 89<317.721 486.292 486.292 504.086> 632 55<582.188 667.473>
VStem: 74 112<152.748 308.156> 363 66<206.148 280.866> 539 66<210.259 294.754> 673 67<591 596.5 574.25 617.286> 858 104<681.558 809>
Fore
74 204 m 0xa7e0
 74 364 219 532 428 532 c 2
 468 532 l 2xafe0
 482 532 482 534 505 534 c 1
 496 560 492 581 518 621 c 0
 541 657 592 687 642 687 c 0
 697 687 741 649 741 602 c 0
 741 598 740 595 740 591 c 1
 797 642 835 723 858 809 c 1
 962 808 l 1
 930 649 802 442 570 442 c 0x37e0
 537 442 520 443 487 443 c 2
 409 443 l 2
 275 443 186 319 186 225 c 0
 186 154 245 84 341 84 c 0xafe0
 404 84 417 95 476 95 c 1
 415 129 363 168 363 224 c 0
 363 296 443 351 506 351 c 0
 559 351 605 317 605 265 c 0
 605 230 585 195 550 167 c 1
 574 150 612 129 643 114 c 2
 701 88 l 2
 720 79 737 73 752 69 c 1
 708 -20 l 1
 648 -4 565 9 496 9 c 0x67e0
 427 9 410 -6 323 -6 c 0
 178 -6 74 78 74 204 c 0xa7e0
496 300 m 256
 462 300 429 271 429 233 c 0
 429 216 439 191 472 191 c 256
 505 191 539 220 539 258 c 0
 539 280 524 300 496 300 c 256
630 632 m 256
 594 632 563 601 563 565 c 0
 563 543 578 523 606 523 c 256x37e0
 640 523 673 552 673 590 c 0
 673 607 663 632 630 632 c 256
EndSplineSet
EndChar
StartChar: uni0E56
Encoding: 3670 3670 293
Width: 700
VWidth: 1507
Flags: W
HStem: -9 89<306.985 448.577> 232 56<204.812 290.694> 463 89<280.594 505.047>
VStem: 113 72<129.435 212.454> 144 114<525 622.704> 296 66<143.293 226.021> 594 111<222.317 388.863>
Fore
144 475 m 0xee
 144 603 102 708 38 776 c 1
 122 837 l 1
 251 693 255 578 258 525 c 1xee
 303 540 352 552 415 552 c 0
 622 552 705 438 705 325 c 0
 705 140 511 -9 345 -9 c 0
 145 -9 113 79 113 138 c 0xf6
 113 241 198 288 262 288 c 0
 320 288 362 244 362 198 c 0
 362 155 330 113 289 90 c 1
 311 84 339 80 368 80 c 0
 444 80 594 165 594 312 c 0
 594 416 506 463 396 463 c 0
 345 463 216 428 139 390 c 1
 142 420 144 448 144 475 c 0xee
252 232 m 256
 214 232 185 198 185 164 c 0xf6
 185 140 205 124 229 124 c 256
 269 124 296 162 296 190 c 0
 296 214 278 232 252 232 c 256
EndSplineSet
EndChar
StartChar: uni0E57
Encoding: 3671 3671 294
Width: 936
VWidth: 1507
Flags: W
HStem: -5 59<189.893 274.153> 163 53<216.404 288.734>
VStem: 74 110<82.044 224.581 196 235.542> 295 73<73.4623 156.689> 653 108<360.765 384.977 384.977 389.023 387 440.474>
Fore
261 216 m 0
 330 216 368 168 368 127 c 0
 368 57 281 -5 214 -5 c 1
 81 14 74 151 74 195 c 0
 74 384 233 541 418 541 c 1
 457 386 l 1
 561 541 l 1
 639 541 l 2
 714 541 764 482 764 406 c 0
 764 395 763 384 761 372 c 2
 718 169 l 1
 788 254 835 352 859 463 c 2
 926 778 l 1
 1036 778 l 1
 969 463 l 2
 941 317 846 121 654 -8 c 1
 570 -8 l 1
 653 377 l 2
 654 382 655 387 655 393 c 0
 655 420 638 449 610 449 c 1
 412 166 l 1
 329 440 l 1
 277 422 208 339 193 261 c 0
 187 229 184 209 185 196 c 1
 227 216 246 216 261 216 c 0
250 163 m 256
 216 163 184 131 184 98 c 0
 184 75 199 54 228 54 c 256
 262 54 295 86 295 119 c 0
 295 143 278 163 250 163 c 256
EndSplineSet
EndChar
StartChar: uni0E58
Encoding: 3672 3672 295
Width: 795
VWidth: 1507
Flags: W
HStem: -9 90<491.783 603.477> 298 53<645.78 731.622> 445 89<342.178 549.523 549.523 669.95>
VStem: 90 112<138.365 301.763> 559 67<195.721 278.194> 737 67<210.524 292.53> 886 104<700.403 811>
Fore
421 326 m 1
 447 229 453 81 538 81 c 0
 580 81 619 109 639 136 c 1
 582 145 559 187 559 221 c 0
 559 292 636 351 704 351 c 0
 752 351 804 322 804 265 c 0
 804 202 717 -9 519 -9 c 0
 424 -9 379 79 368 136 c 1
 237 -15 l 1
 158 12 90 65 90 186 c 0
 90 364 233 534 445 534 c 2
 529 534 l 2
 543 534 557 534 570 535 c 0
 716 535 853 667 886 811 c 1
 990 811 l 1
 946 609 754 445 550 445 c 2
 425 445 l 2
 299 445 202 326 202 217 c 0
 202 173 224 131 238 118 c 1
 267 158 324 219 345 244 c 2
 421 326 l 1
693 298 m 256
 661 298 626 270 626 233 c 0
 626 209 643 190 669 190 c 256
 704 190 737 221 737 255 c 0
 737 278 722 298 693 298 c 256
EndSplineSet
EndChar
StartChar: uni0E59
Encoding: 3673 3673 296
Width: 868
VWidth: 1507
Flags: W
HStem: -8 59<265.887 349.986> 160 53<278.787 365.118> 318 105<663.491 768.052> 418 88<285.872 393.406> 451 90<542.891 661.93>
VStem: 91 109<163.596 308.076> 371 69<71.5347 154.359> 412 108<291.365 398>
Fore
91 201 m 0xd6
 91 355 226 506 354 506 c 0xd6
 406 506 429 501 461 488 c 1
 527 540 570 541 599 541 c 0
 722 541 707 423 739 423 c 0
 772 423 827 529 849 629 c 2
 884 797 l 1
 992 797 l 1
 957 629 l 2
 932 515 855 318 710 318 c 0
 607 318 618 451 580 451 c 0
 558 451 538 441 520 422 c 1
 521 301 561 214 643 161 c 1
 574 86 l 1
 467 157 416 248 412 398 c 1xed
 380 417 362 418 345 418 c 0
 261 418 200 303 200 214 c 0
 200 193 202 170 210 149 c 1
 231 181 279 213 336 213 c 0
 401 213 440 166 440 121 c 0
 440 60 361 -8 289 -8 c 0
 168 -8 91 86 91 201 c 0xd6
303 51 m 256
 342 51 371 88 371 117 c 0
 371 141 354 160 326 160 c 256
 294 160 260 131 260 93 c 0
 260 68 278 51 303 51 c 256
EndSplineSet
EndChar
StartChar: uni0E5A
Encoding: 3674 3674 297
Width: 892
VWidth: 1507
Flags: W
HStem: 0 21G<460 578.219 693 812.228> 360 79<246.689 405.6 380 477.307> 553 54<260.05 346.902>
VStem: 172 70<450.392 534.002> 352 65<479.223 547.545>
Fore
668 443 m 1
 749 464 807 536 823 615 c 1
 938 615 l 1
 808 0 l 1
 693 0 l 1
 781 415 l 1
 758 400 718 378 651 365 c 1
 574 0 l 1
 460 0 l 1
 547 416 l 1
 483 372 404 360 350 360 c 0
 252 360 172 409 172 475 c 0
 172 550 255 607 320 607 c 0
 387 607 417 559 417 521 c 0
 417 513 416 473 380 439 c 1
 390 439 l 2
 495 440 569 517 589 615 c 1
 704 615 l 1
 668 443 l 1
309 553 m 256
 274 553 242 524 242 486 c 0
 242 462 259 445 285 445 c 256
 320 445 352 474 352 512 c 0
 352 536 335 553 309 553 c 256
EndSplineSet
EndChar
StartChar: uni0E5B
Encoding: 3675 3675 298
Width: 1129
VWidth: 1507
Flags: W
HStem: -30 77<254.482 445.135> 104 80<321.621 404.511> 241 21<1079.52 1132.67> 292 53<335.023 421.112> 457 86<320.091 486.051>
VStem: 74 107<123.665 315> 250 66<188.853 272.714> 426 62<226.986 250.5 235.28 286.602> 536 95<261.114 410.237>
Fore
315 -30 m 0
 164 -30 74 66 74 201 c 0
 74 424 290 543 425 543 c 0
 581 543 631 448 631 366 c 0
 631 220 518 104 383 104 c 0
 281 104 250 169 250 213 c 0
 250 283 319 345 393 345 c 0
 466 345 490 294 490 261 c 0
 490 254 490 247 488 240 c 2
 488 236 485 227 481 219 c 1
 504 227 536 287 536 343 c 0
 536 417 481 457 405 457 c 0
 319 457 181 374 181 216 c 0
 181 119 236 47 341 47 c 0
 491 47 637 167 668 301 c 256
 677 341 682 375 682 394 c 0
 682 412 677 428 668 442 c 1
 717 404 763 314 769 241 c 1
 796 301 806 357 806 386 c 0
 806 391 806 396 805 401 c 1
 834 379 859 340 883 256 c 1
 894 286 l 2
 901 302 909 339 909 374 c 1
 953 347 980 295 987 273 c 1
 1001 315 993 303 996 351 c 1
 1064 278 1098 270 1174 262 c 0
 1179 262 1177 261 1182 261 c 1
 1153 248 1126 241 1102 241 c 0
 1086 241 1064 240 1022 265 c 1
 1019 250 1012 237 1004 224 c 2
 978 188 l 1
 965 209 955 236 939 259 c 1
 936 250 932 240 926 230 c 2
 906 196 l 2
 888 168 874 153 864 145 c 1
 859 160 854 174 850 188 c 2
 838 226 l 2
 834 238 831 248 829 256 c 1
 806 196 763 146 739 128 c 1
 737 154 728 219 715 255 c 1
 652 60 463 -30 315 -30 c 0
383 292 m 256
 347 292 316 262 316 226 c 0
 316 204 331 184 359 184 c 256
 392 184 426 213 426 251 c 0
 426 273 409 292 383 292 c 256
EndSplineSet
EndChar
StartChar: zerowidthnonjoiner
Encoding: 8204 8204 299
Width: 0
VWidth: 1507
Flags: MW
Fore
-49 -458 m 1
 -144 -458 l 1
 34 381 l 1
 129 381 l 1
 -49 -458 l 1
EndSplineSet
EndChar
StartChar: zerowidthjoiner
Encoding: 8205 8205 300
Width: 0
VWidth: 1507
Flags: MW
Fore
83 164 m 1
 -49 -458 l 1
 -144 -458 l 1
 -12 164 l 1
 -55 130 l 1
 -120 200 l 1
 -13 286 l 1
 -84 371 l 1
 9 446 l 1
 77 360 l 1
 182 446 l 1
 243 371 l 1
 137 286 l 1
 207 200 l 1
 113 130 l 1
 83 164 l 1
EndSplineSet
EndChar
StartChar: lefttorightmark
Encoding: 8206 8206 301
Width: 0
VWidth: 1507
Flags: MW
HStem: 250 77<101 201>
Fore
-49 -458 m 1
 -144 -458 l 1
 23 327 l 1
 216 327 l 1
 204 342 l 1
 262 393 l 1
 346 289 l 1
 217 185 l 1
 183 237 l 1
 201 250 l 1
 101 250 l 1
 -49 -458 l 1
EndSplineSet
EndChar
StartChar: righttoleftmark
Encoding: 8207 8207 302
Width: 0
VWidth: 1507
Flags: MW
HStem: 250 77<-75 6>
Fore
-49 -458 m 1
 -144 -458 l 1
 6 250 l 1
 -92 250 l 1
 -79 238 l 1
 -137 185 l 1
 -222 289 l 1
 -92 393 l 1
 -57 342 l 1
 -75 327 l 1
 118 327 l 1
 -49 -458 l 1
EndSplineSet
EndChar
StartChar: endash
Encoding: 8211 8211 303
Width: 590
VWidth: 1507
Flags: W
HStem: 246 83<93 606>
Fore
75 246 m 1
 93 329 l 1
 624 329 l 1
 606 246 l 1
 75 246 l 1
EndSplineSet
EndChar
StartChar: emdash
Encoding: 8212 8212 304
Width: 1165
VWidth: 1507
Flags: W
HStem: 246 83<99 1165>
Fore
81 246 m 1
 99 329 l 1
 1183 329 l 1
 1165 246 l 1
 81 246 l 1
EndSplineSet
EndChar
StartChar: quoteleft
Encoding: 8216 8216 305
Width: 197
VWidth: 1507
Flags: W
HStem: 549 245<225 306 306 306>
VStem: 121 223<549 725 549 549>
Fore
225 549 m 1
 121 549 l 1
 131 601 l 2
 153 700 218 742 234 752 c 2
 306 794 l 1
 344 725 l 1
 318 705 l 2
 257 668 243 641 235 601 c 2
 225 549 l 1
EndSplineSet
EndChar
StartChar: quoteright
Encoding: 8217 8217 306
Width: 197
VWidth: 1507
Flags: W
HStem: 535 249<170 250 250 250>
VStem: 133 221<610 784 610 610>
Fore
250 784 m 1
 354 784 l 1
 344 733 l 2
 331 669 296 621 245 586 c 2
 208 562 l 1
 208 564 l 1
 201 557 200 559 170 535 c 1
 133 610 l 1
 166 635 l 2
 220 667 233 697 240 733 c 2
 250 784 l 1
EndSplineSet
EndChar
StartChar: quotesinglbase
Encoding: 8218 8218 307
Width: 206
VWidth: 1507
Flags: W
HStem: -130 246<33 116 116 116>
VStem: -2 222<-59 116 -59 -59>
Fore
116 116 m 1
 220 116 l 1
 210 65 l 2
 195 8 165 -47 110 -82 c 2
 33 -130 l 1
 -2 -59 l 1
 32 -35 l 2
 86 1 97 30 106 65 c 2
 116 116 l 1
EndSplineSet
EndChar
StartChar: quotedblleft
Encoding: 8220 8220 308
Width: 435
VWidth: 1507
Flags: W
HStem: 549 245<404 485 485 485>
VStem: 122 401<549 725 549 549>
Fore
404 549 m 1
 298 549 l 1
 309 601 l 2
 334 713 406 748 439 767 c 2
 439 767 472 786 485 794 c 1
 523 725 l 1
 497 705 l 2
 437 667 423 641 415 601 c 2
 404 549 l 1
226 549 m 1
 122 549 l 1
 133 601 l 2
 155 700 219 742 235 752 c 2
 308 794 l 1
 345 725 l 1
 318 705 l 2
 260 667 246 643 237 601 c 2
 226 549 l 1
EndSplineSet
EndChar
StartChar: quotedblright
Encoding: 8221 8221 309
Width: 435
VWidth: 1507
Flags: W
HStem: 535 249<172 252 252 252>
VStem: 134 400<610 784 610 610>
Fore
252 784 m 1
 356 784 l 1
 345 733 l 2
 332 663 292 617 246 586 c 2
 210 562 l 1
 210 564 l 1
 203 557 194 554 172 535 c 1
 134 610 l 1
 167 635 l 2
 221 665 233 696 241 733 c 2
 252 784 l 1
430 784 m 1
 534 784 l 1
 523 733 l 2
 511 669 476 620 426 586 c 2
 387 562 l 1
 387 564 l 1
 380 557 375 556 350 535 c 1
 311 610 l 1
 345 633 l 2
 398 668 411 694 419 733 c 2
 430 784 l 1
EndSplineSet
EndChar
StartChar: quotedblbase
Encoding: 8222 8222 310
Width: 401
VWidth: 1507
Flags: W
HStem: -130 246<34 117 117 117>
VStem: -2 418<-59 116 -59 -59>
Fore
117 116 m 1
 221 116 l 1
 210 65 l 2
 197 4 164 -48 111 -82 c 2
 34 -130 l 1
 -2 -59 l 1
 32 -35 l 2
 81 -5 97 23 106 65 c 2
 117 116 l 1
312 116 m 1
 416 116 l 1
 405 65 l 2
 392 4 359 -48 306 -82 c 2
 229 -130 l 1
 193 -59 l 1
 227 -35 l 2
 276 -5 292 23 301 65 c 2
 312 116 l 1
EndSplineSet
EndChar
StartChar: dagger
Encoding: 8224 8224 311
Width: 646
VWidth: 1507
Flags: W
HStem: 401 83<161 353 481 666>
Fore
353 401 m 1
 143 401 l 1
 161 484 l 1
 371 484 l 1
 422 730 l 1
 532 730 l 1
 481 484 l 1
 684 484 l 1
 666 401 l 1
 463 401 l 1
 354 -110 l 1
 285 -181 l 1
 244 -110 l 1
 353 401 l 1
EndSplineSet
EndChar
StartChar: daggerdbl
Encoding: 8225 8225 312
Width: 645
VWidth: 1507
Flags: W
HStem: 122 83<101 294 421 607> 401 83<161 353 481 666>
Fore
353 401 m 1
 143 401 l 1
 161 484 l 1
 371 484 l 1
 422 730 l 1
 532 730 l 1
 481 484 l 1
 684 484 l 1
 666 401 l 1
 463 401 l 1
 421 205 l 1
 624 205 l 1
 607 122 l 1
 404 122 l 1
 354 -110 l 1
 285 -181 l 1
 244 -110 l 1
 294 122 l 1
 84 122 l 1
 101 205 l 1
 311 205 l 1
 353 401 l 1
EndSplineSet
EndChar
StartChar: bullet
Encoding: 8226 8226 313
Width: 572
VWidth: 1507
Flags: W
HStem: 149 430<121 211 211 211>
VStem: 121 462<149 363 149 149>
Fore
121 149 m 1
 211 579 l 1
 583 363 l 1
 121 149 l 1
EndSplineSet
EndChar
StartChar: ellipsis
Encoding: 8230 8230 314
Width: 1214
VWidth: 1507
Flags: W
HStem: -8 127<170.299 265.744 559.973 656.082 947.786 1043.33>
VStem: 142 154<22.4985 90.7846> 532 154<20.851 91.0331> 919 155<22.3482 90.9982>
Fore
142 40 m 0
 142 74 172 119 231 119 c 0
 270 119 296 99 296 70 c 0
 296 39 263 -8 203 -8 c 0
 169 -8 142 11 142 40 c 0
532 41 m 0
 532 78 565 119 621 119 c 0
 660 119 686 99 686 70 c 0
 686 39 655 -8 594 -8 c 0
 559 -8 532 11 532 41 c 0
919 41 m 0
 919 79 954 119 1008 119 c 0
 1047 119 1074 99 1074 70 c 0
 1074 39 1040 -8 981 -8 c 0
 946 -8 919 12 919 41 c 0
EndSplineSet
EndChar
StartChar: perthousand
Encoding: 8240 8240 315
Width: 1214
VWidth: 1507
Flags: W
HStem: 6 84<649.263 678 684 727.04 998.263 1027 1033 1076.55> 288 84<692.953 733 769 769.64 1042.95 1083 1119 1119.64> 324 86<263.263 292 298 342.061> 608 84<305.595 347 353 383.64> 734 20G<752.219 876>
VStem: 155 108<381.266 434.644 425.788 443.5 443.5 451 451 452.827> 384 108<576.782 627.67> 541 108<68.7656 122.695> 770 108<257.305 308.67> 891 107<68.7656 122.695> 1120 107<257.282 307.67>
Fore
361 466 m 2xbfe0
 355 436 326 410 298 410 c 2
 292 410 l 2
 273 410 263 419 263 436 c 0
 263 441 264 446 265 451 c 2
 286 549 l 2
 292 580 319 608 347 608 c 2
 353 608 l 2
 374 608 384 599 384 581 c 0
 384 578 384 574 383 570 c 2
 361 466 l 2xbfe0
192 -24 m 1
 767 754 l 1
 876 754 l 1
 304 -24 l 1
 192 -24 l 1
489 583 m 2
 491 591 492 601 492 611 c 0
 492 648 473 692 384 692 c 2
 347 692 l 2
 281 692 200 634 184 561 c 2
 158 436 l 2
 156 425 155 415 155 406 c 0
 155 352 193 324 260 324 c 2
 295 324 l 2
 374 324 448 390 462 454 c 2
 489 583 l 2
875 264 m 2
 877 273 878 282 878 293 c 0
 878 330 859 372 769 372 c 2
 733 372 l 2xdfe0
 653 372 584 300 571 241 c 2
 544 115 l 2
 542 107 541 98 541 89 c 0
 541 47 565 6 646 6 c 2
 679 6 l 2
 760 6 834 70 847 134 c 2
 875 264 l 2
747 146 m 2
 741 116 712 90 684 90 c 2
 678 90 l 2
 659 90 649 99 649 116 c 0
 649 121 650 126 651 131 c 2
 672 229 l 2
 678 260 705 288 733 288 c 2
 739 288 l 2
 760 288 770 279 770 261 c 0
 770 258 770 254 769 250 c 2
 747 146 l 2
1224 264 m 2
 1226 272 1227 281 1227 291 c 0
 1227 328 1208 372 1119 372 c 2
 1083 372 l 2
 1003 372 934 300 921 241 c 2
 894 115 l 2
 892 107 891 98 891 89 c 0
 891 47 915 6 996 6 c 2
 1029 6 l 2
 1109 6 1183 69 1196 134 c 2
 1224 264 l 2
1097 146 m 2
 1090 115 1062 90 1033 90 c 2
 1027 90 l 2
 1008 90 998 99 998 116 c 0
 998 121 999 126 1000 131 c 2
 1021 229 l 2
 1027 260 1055 288 1083 288 c 2
 1089 288 l 2
 1110 288 1120 279 1120 261 c 0
 1120 258 1120 254 1119 250 c 2
 1097 146 l 2
EndSplineSet
EndChar
StartChar: guilsinglleft
Encoding: 8249 8249 318
Width: 363
VWidth: 1507
Flags: W
VStem: 77 386<283 586 283 283>
Fore
463 586 m 1
 436 458 l 1
 214 283 l 1
 362 107 l 1
 333 -23 l 1
 77 283 l 1
 463 586 l 1
EndSplineSet
EndChar
StartChar: guilsinglright
Encoding: 8250 8250 319
Width: 363
VWidth: 1507
Flags: W
VStem: 15 386<-23 283 -23 -23>
Fore
401 283 m 1
 15 -23 l 1
 44 107 l 1
 264 283 l 1
 118 458 l 1
 145 588 l 1
 401 283 l 1
EndSplineSet
EndChar
StartChar: fraction
Encoding: 8260 8260 320
Width: 183
VWidth: 1507
Flags: W
HStem: 734 20G<392.193 496>
Fore
-169 -24 m 1
 407 754 l 1
 496 754 l 1
 -75 -24 l 1
 -169 -24 l 1
EndSplineSet
EndChar
StartChar: Euro
Encoding: 8364 8364 321
Width: 578
VWidth: 1507
Flags: W
HStem: 0 90<292.376 547> 244 92<87 131 262 519> 395 92<119 163 300 550> 641 89<440.688 681>
VStem: 131 112<137.819 229.41 227.578 231.242 231.242 244>
Fore
187 487 m 1
 254 632 404 730 549 730 c 2
 699 730 l 1
 681 641 l 1
 531 641 l 2
 431 641 337 568 300 487 c 1
 570 487 l 1
 550 395 l 1
 274 395 l 1
 262 336 l 1
 538 336 l 1
 519 244 l 1
 243 244 l 1
 243 243 l 1
 240 231 238 219 238 208 c 0
 238 145 287 90 360 90 c 2
 565 90 l 1
 547 0 l 1
 342 0 l 2
 220 0 126 79 126 197 c 0
 126 212 128 227 131 243 c 1
 131 244 l 1
 68 244 l 1
 87 336 l 1
 151 336 l 1
 163 395 l 1
 99 395 l 1
 119 487 l 1
 187 487 l 1
EndSplineSet
EndChar
StartChar: uni2113
Encoding: 8467 8467 322
Width: 355
VWidth: 1507
Flags: W
HStem: -9 89<185.086 290.696> 662 62<343.244 399.394>
VStem: 123 110<55.0007 107.746> 401 78<594.745 661.679>
Fore
369 724 m 0
 457 724 479 697 479 656 c 0
 479 635 459 496 352 390 c 0
 331 370 308 350 283 329 c 1
 237 112 l 2
 234 102 233 91 233 86 c 0
 233 82 234 80 235 80 c 0
 258 80 297 102 360 146 c 1
 338 36 l 1
 262 -7 228 -9 196 -9 c 0
 137 -9 123 30 123 67 c 0
 123 76 124 95 128 113 c 2
 161 267 l 1
 101 237 l 1
 71 314 l 1
 185 377 l 1
 228 580 l 2
 238 635 274 724 369 724 c 0
401 629 m 0
 401 650 391 662 375 662 c 0
 349 662 327 621 315 574 c 2
 282 416 l 1
 379 515 401 586 401 629 c 0
EndSplineSet
EndChar
StartChar: trademark
Encoding: 8482 8482 323
Width: 1002
VWidth: 1507
Flags: W
HStem: 674 75<181 303 384 519>
Fore
746 271 m 1
 644 568 l 1
 586 300 l 1
 505 300 l 1
 601 752 l 1
 675 752 l 1
 782 445 l 1
 1021 752 l 1
 1096 752 l 1
 999 300 l 1
 916 300 l 1
 972 567 l 1
 746 271 l 1
303 674 m 1
 166 674 l 1
 181 749 l 1
 534 749 l 1
 519 674 l 1
 384 674 l 1
 304 300 l 1
 223 300 l 1
 303 674 l 1
EndSplineSet
EndChar
StartChar: Ohm
Encoding: 8486 8486 324
Width: 797
VWidth: 1507
Flags: W
HStem: 0 83<50 259 561 755> 620 82<368.051 698.944>
VStem: 133 117<257.296 320.242 311.461 329.023 329.023 339 339 340.652> 718 110<500.968 526.977 526.977 534.023 530.5 598.993>
Fore
675 702 m 2
 764 702 831 642 831 551 c 0
 831 540 830 529 828 517 c 2
 797 375 l 2
 781 294 696 188 577 160 c 1
 561 83 l 1
 772 83 l 1
 755 0 l 1
 443 0 l 1
 493 237 l 1
 538 237 l 2
 614 237 677 316 687 375 c 2
 718 517 l 2
 720 523 720 530 720 537 c 0
 720 573 699 620 657 620 c 2
 433 620 l 2
 373 620 301 558 282 481 c 2
 252 339 l 2
 251 333 250 326 250 319 c 0
 250 273 276 237 314 237 c 2
 392 237 l 1
 342 0 l 1
 33 0 l 1
 50 83 l 1
 259 83 l 1
 274 154 l 1
 194 162 133 213 133 288 c 0
 133 299 134 311 137 324 c 2
 170 481 l 2
 191 583 309 702 451 702 c 2
 675 702 l 2
EndSplineSet
EndChar
StartChar: estimated
Encoding: 8494 8494 325
Width: 524
VWidth: 1507
Flags: W
HStem: -8 83<216.101 329.511> 292 76<237 436> 523 83<322.231 426.616>
VStem: 81 113<96.7005 163.25 159.5 167 167 191.615> 445 113<399.643 504.895>
Fore
405 606 m 0
 500 606 558 540 558 447 c 0
 558 427 555 404 550 380 c 2
 532 292 l 1
 222 292 l 1
 196 176 l 2
 195 170 194 164 194 158 c 0
 194 115 221 75 261 75 c 0
 327 75 391 134 407 210 c 1
 519 210 l 1
 491 83 369 -8 243 -8 c 0
 161 -8 81 47 81 143 c 0
 81 154 82 165 84 176 c 2
 121 344 l 2
 159 521 289 606 405 606 c 0
445 432 m 0
 445 466 433 523 387 523 c 0
 327 523 260 465 237 368 c 1
 436 368 l 1
 439 380 l 2
 443 399 445 416 445 432 c 0
EndSplineSet
EndChar
StartChar: partialdiff
Encoding: 8706 8706 326
Width: 530
VWidth: 1507
Flags: W
HStem: -8 91<205.739 305.735> 380 83<291.187 439> 630 88<376.192 464.769>
VStem: 80 111<93.9708 162.752 162.004 163.5 163.5 176 176 190.656> 473 112<538.111 621.914>
Fore
443 718 m 0
 522 718 585 693 585 595 c 0
 585 552 575 498 573 487 c 2
 525 258 l 2
 483 75 326 -8 231 -8 c 2
 222 -8 l 2
 133 -8 80 51 80 135 c 0
 80 148 81 162 84 176 c 2
 99 243 l 2
 128 366 253 463 375 463 c 2
 457 463 l 1
 461 487 l 2
 470 527 473 552 473 568 c 0
 473 614 454 630 424 630 c 0
 379 630 334 568 311 519 c 1
 220 562 l 1
 264 632 320 718 443 718 c 0
191 151 m 0
 191 122 202 83 244 83 c 0
 311 83 384 156 412 255 c 2
 439 380 l 1
 357 380 l 2
 287 380 221 306 210 243 c 2
 194 176 l 2
 192 168 191 159 191 151 c 0
EndSplineSet
EndChar
StartChar: Delta
Encoding: 8710 8710 327
Width: 649
VWidth: 1507
Flags: W
HStem: 0 87<160 568>
Fore
721 0 m 1
 -21 0 l 1
 493 665 l 1
 721 0 l 1
568 87 m 1
 451 461 l 1
 160 87 l 1
 568 87 l 1
EndSplineSet
EndChar
StartChar: product
Encoding: 8719 8719 328
Width: 862
VWidth: 1507
Flags: W
HStem: 612 86<190 261 374 737 850 939>
Fore
190 698 m 1
 957 698 l 1
 939 612 l 1
 850 612 l 1
 687 -155 l 1
 574 -155 l 1
 737 612 l 1
 374 612 l 1
 211 -155 l 1
 98 -155 l 1
 261 612 l 1
 172 612 l 1
 190 698 l 1
EndSplineSet
EndChar
StartChar: summation
Encoding: 8721 8721 329
Width: 842
VWidth: 1507
Flags: W
HStem: -172 85<203 743> 612 86<381 912>
Fore
743 -172 m 1
 -23 -172 l 1
 484 295 l 1
 164 698 l 1
 930 698 l 1
 912 612 l 1
 381 612 l 1
 626 298 l 1
 203 -87 l 1
 761 -87 l 1
 743 -172 l 1
EndSplineSet
EndChar
StartChar: minus
Encoding: 8722 8722 330
Width: 612
VWidth: 1507
Flags: W
HStem: 297 86<128 629>
Fore
110 297 m 1
 128 383 l 1
 647 383 l 1
 629 297 l 1
 110 297 l 1
EndSplineSet
EndChar
StartChar: radical
Encoding: 8730 8730 331
Width: 577
VWidth: 1507
Flags: W
HStem: 332 87<103 178>
Fore
261 -60 m 1
 178 332 l 1
 85 332 l 1
 103 419 l 1
 280 419 l 1
 320 217 l 1
 633 730 l 1
 746 730 l 1
 261 -60 l 1
EndSplineSet
EndChar
StartChar: infinity
Encoding: 8734 8734 332
Width: 1022
VWidth: 1507
Flags: W
HStem: 163 81<277.826 375.577 724.483 844.516> 511 78<328.976 439.361 770.657 894.082>
VStem: 146 103<272.553 422.636> 921 104<333.869 484.087>
Fore
249 337 m 0
 249 280 284 244 335 244 c 0
 410 244 494 344 523 378 c 1
 457 486 427 511 389 511 c 0
 328 511 249 436 249 337 c 0
565 304 m 1
 438 166 347 163 314 163 c 0
 215 163 146 222 146 327 c 0
 146 460 246 589 405 589 c 0
 515 589 562 513 597 446 c 1
 721 576 806 589 858 589 c 0
 974 589 1025 513 1025 432 c 0
 1025 303 911 163 766 163 c 0
 686 163 626 198 565 304 c 1
784 243 m 0
 864 243 921 340 921 419 c 0
 921 475 889 511 838 511 c 0
 767 511 674 419 638 371 c 1
 681 302 726 243 784 243 c 0
EndSplineSet
EndChar
StartChar: integral
Encoding: 8747 8747 333
Width: 443
VWidth: 1507
Flags: W
HStem: -154 91<-45.6523 40.7616> 739 83<464.74 558.462>
Fore
586 730 m 1
 545 735 524 739 517 739 c 0
 470 739 444 700 430 665 c 2
 173 -3 l 2
 148 -64 99 -154 -12 -154 c 0
 -31 -154 -70 -150 -107 -139 c 1
 -71 -54 l 1
 -52 -58 -19 -63 -6 -63 c 0
 35 -63 58 -26 69 6 c 2
 323 672 l 2
 356 751 415 822 520 822 c 0
 560 822 591 817 620 809 c 1
 586 730 l 1
EndSplineSet
EndChar
StartChar: notequal
Encoding: 8800 8800 335
Width: 574
VWidth: 1507
Flags: W
HStem: 182 92<101 188 360 556> 374 92<142 330 500 597>
Fore
294 182 m 1
 199 56 l 1
 95 56 l 1
 188 182 l 1
 81 182 l 1
 101 274 l 1
 256 274 l 1
 330 374 l 1
 122 374 l 1
 142 466 l 1
 399 466 l 1
 502 604 l 1
 603 604 l 1
 500 466 l 1
 617 466 l 1
 597 374 l 1
 436 374 l 1
 393 312 403 336 360 274 c 1
 576 274 l 1
 556 182 l 1
 294 182 l 1
EndSplineSet
EndChar
StartChar: lessequal
Encoding: 8804 8804 336
Width: 798
VWidth: 1507
Flags: W
Fore
822 647 m 1
 800 549 l 1
 390 386 l 1
 731 225 l 1
 710 127 l 1
 178 386 l 1
 822 647 l 1
146 283 m 1
 695 -6 l 1
 674 -103 l 1
 125 182 l 1
 146 283 l 1
EndSplineSet
EndChar
StartChar: greaterequal
Encoding: 8805 8805 337
Width: 798
VWidth: 1507
Flags: W
Fore
769 386 m 1
 125 127 l 1
 146 225 l 1
 556 386 l 1
 216 549 l 1
 237 647 l 1
 769 386 l 1
755 283 m 1
 86 -6 l 1
 65 -103 l 1
 734 182 l 1
 755 283 l 1
EndSplineSet
EndChar
StartChar: lozenge
Encoding: 9674 9674 338
Width: 645
VWidth: 1507
Flags: W
Fore
544 345 m 1
 440 579 l 1
 235 345 l 1
 341 113 l 1
 544 345 l 1
663 345 m 1
 303 -71 l 1
 118 345 l 1
 478 758 l 1
 663 345 l 1
EndSplineSet
EndChar
StartChar: dottedcircle
Encoding: 9676 9676 339
Width: 699
VWidth: 1507
Flags: W
HStem: 32 75<327.113 390.528> 50 77<230.616 293.958 430.356 493.237> 106 76<158.875 224.219 525.232 589.52> 191 77<122.963 185.875 598.629 662.255> 289 77<123 185.835 642.699 705.226> 387 77<164.241 225.557 641.741 704.002> 472 77<238.436 302.049 605.101 667.52> 529 75<332.75 396.271 530.939 595.564> 547 77<435.436 498.062>
VStem: 115 77<218.68 260.312 297.681 336.02> 153 79<113.857 154.645 394.887 453.697> 224 78<57.533 98.877> 231 79<503.308 541.892> 319 78<38.9082 99.0898 535.218 591.173> 423 78<61.6448 119.564 555.648 596.273> 519 79<114.749 153.759 557.03 593.055> 591 79<203.5 260.219 480.645 541.659> 635 79<322.58 358.932 396.675 434.104>
Fore
319 57 m 0x9c06
 319 87 341 107 366 107 c 256
 385 107 397 96 397 78 c 0
 397 49 375 32 350 32 c 0
 329 32 319 40 319 57 c 0x9c06
635 318 m 0x1c0640
 635 344 655 366 681 366 c 0
 703 366 714 357 714 340 c 0
 714 325 704 289 665 289 c 0
 641 289 635 306 635 318 c 0x1c0640
116 317 m 0
 116 325 119 366 163 366 c 0
 188 366 195 347 195 337 c 0
 195 315 175 289 146 289 c 256
 128 289 116 300 116 317 c 0
429 578 m 0
 429 593 437 624 475 624 c 0
 492 624 507 613 507 596 c 0
 507 570 485 547 460 547 c 256x1c86
 435 547 429 565 429 578 c 0
231 500 m 0x1e0e
 231 527 250 549 277 549 c 0
 297 549 310 538 310 519 c 0
 310 506 300 472 261 472 c 0
 243 472 231 482 231 500 c 0x1e0e
597 500 m 0
 597 526 616 549 644 549 c 256
 663 549 676 537 676 519 c 0
 676 492 651 472 627 472 c 256
 609 472 597 482 597 500 c 0
153 136 m 0x3c26
 153 154 162 182 199 182 c 0
 221 182 232 173 232 155 c 0
 232 126 210 106 182 106 c 0
 159 106 153 124 153 136 c 0x3c26
519 136 m 0x3c07
 519 152 528 182 565 182 c 0
 585 182 598 170 598 153 c 0
 598 126 573 106 549 106 c 256
 530 106 519 118 519 136 c 0x3c07
423 81 m 0
 423 108 446 127 470 127 c 0
 490 127 501 119 501 103 c 0
 501 72 483 50 455 50 c 256x5c06
 436 50 423 62 423 81 c 0
224 80 m 0x5c16
 224 98 234 127 271 127 c 0
 290 127 302 116 302 98 c 0
 302 74 283 50 256 50 c 0
 236 50 224 61 224 80 c 0x5c16
591 218 m 0x1c0680
 591 246 610 268 639 268 c 0
 657 268 670 254 670 237 c 0
 670 209 644 191 623 191 c 0
 602 191 591 200 591 218 c 0x1c0680
115 220 m 0x1c46
 115 246 136 268 161 268 c 0
 186 268 192 252 192 238 c 0
 192 219 182 191 145 191 c 0
 121 191 115 209 115 220 c 0x1c46
156 417 m 0
 156 438 175 464 203 464 c 0
 224 464 234 455 234 438 c 0
 234 412 216 387 187 387 c 0
 169 387 156 399 156 417 c 0
634 417 m 0
 634 431 644 464 681 464 c 0
 700 464 713 453 713 437 c 0
 713 411 691 387 665 387 c 256
 647 387 634 399 634 417 c 0
524 559 m 0
 524 586 548 604 573 604 c 256
 596 604 602 587 602 576 c 0
 602 560 594 529 556 529 c 0x1d06
 538 529 524 540 524 559 c 0
325 555 m 0
 325 584 347 604 374 604 c 0
 397 604 403 587 403 576 c 0
 403 550 385 529 357 529 c 0
 335 529 325 538 325 555 c 0
EndSplineSet
EndChar
StartChar: uni0E10.alt1
Encoding: 63232 63232 340
Width: 584
VWidth: 1507
Flags: W
HStem: 0 21G<207 344.5> 119 56<197.868 231> 283 53<209.947 296.474> 481 84<457.986 586.597> 537 77<278.604 411.675>
VStem: 126 66<179.983 264.601> 302 67<210.905 277.51>
Fore
241 466 m 1xee
 334 450 434 420 541 354 c 1
 500 163 l 2
 482 80 391 -0 298 0 c 2
 207 0 l 1
 231 119 l 1
 225 119 l 2
 155 119 126 170 126 208 c 0
 126 274 202 336 271 336 c 0
 327 336 369 303 369 253 c 0
 369 245 368 237 366 228 c 2
 336 90 l 1
 387 109 398 126 405 163 c 2
 439 318 l 1
 363 364 227 392 119 407 c 1
 155 574 281 614 345 614 c 0xee
 419 614 473 571 531 565 c 0
 560 565 602 590 674 645 c 1
 671 562 l 1
 588 496 549 481 519 481 c 0xf6
 457 481 396 537 329 537 c 0
 291 537 251 498 241 466 c 1xee
258 283 m 256
 221 283 192 251 192 217 c 0
 192 196 207 175 235 175 c 256
 269 175 302 205 302 241 c 0
 302 266 283 283 258 283 c 256
EndSplineSet
EndChar
StartChar: uni0E48.alt2
Encoding: 63242 63242 350
Width: 0
VWidth: 1507
Flags: W
HStem: 724 257<-24 20 -78 74 -24 -24>
Fore
-24 981 m 1
 74 981 l 1
 20 724 l 1
 -78 724 l 1
 -24 981 l 1
EndSplineSet
Substitution2: "Single Substitution lookup 20 subtable" uni0E48.alt3
Substitution2: "Single Substitution lookup 21 subtable" uni0E48
Substitution2: "Single Substitution lookup 22 subtable" uni0E48.alt1
Substitution2: "Single Substitution lookup 20 subtable" uni0E48.alt3
Substitution2: "Single Substitution lookup 21 subtable" uni0E48
Substitution2: "Single Substitution lookup 22 subtable" uni0E48.alt1
EndChar
StartChar: uni0E49.alt2
Encoding: 63243 63243 351
Width: 0
VWidth: 1507
Flags: MW
HStem: 710 45<-218.969 -174.201> 947 57<-130.066 -57.022>
VStem: -204 63<871.785 936.388> -55 60<873.08 937.301> 122 85<914.193 995>
Fore
207 995 m 1
 180 873 33 710 -118 710 c 0
 -167 710 -206 715 -253 755 c 1
 -216 759 -162 772 -134 809 c 1
 -192 820 -204 867 -204 888 c 0
 -204 935 -147 1004 -77 1004 c 0
 -11 1004 5 950 5 923 c 0
 5 865 -41 803 -84 778 c 1
 -9 781 105 929 122 995 c 1
 207 995 l 1
-89 947 m 256
 -116 947 -141 925 -141 895 c 0
 -141 882 -134 862 -107 862 c 256
 -86 862 -55 878 -55 913 c 0
 -55 927 -62 947 -89 947 c 256
EndSplineSet
Substitution2: "Single Substitution lookup 20 subtable" uni0E49.alt3
Substitution2: "Single Substitution lookup 21 subtable" uni0E49
Substitution2: "Single Substitution lookup 22 subtable" uni0E49.alt1
Substitution2: "Single Substitution lookup 20 subtable" uni0E49.alt3
Substitution2: "Single Substitution lookup 21 subtable" uni0E49
Substitution2: "Single Substitution lookup 22 subtable" uni0E49.alt1
EndChar
StartChar: uni0E4A.alt2
Encoding: 63244 63244 352
Width: 0
VWidth: 1507
Flags: W
HStem: 708 44<-271.434 -197.088> 837 48<-216 -189.787> 926 60<-194.986 -145>
VStem: -322 49<754.795 810.564> -186 44<762.088 834.525> 13 63<840.23 914.417> 137 59<844.595 989>
Fore
-48 711 m 1
 -1 796 13 852 13 887 c 0
 13 898 12 907 9 916 c 1
 -93 796 l 1
 -145 926 l 1
 -172 926 -210 900 -216 885 c 1
 -152 885 -142 834 -142 813 c 0
 -142 778 -168 708 -255 708 c 256
 -286 708 -322 739 -322 778 c 0
 -322 783 -321 789 -320 794 c 2
 -309 849 l 2
 -284 955 -165 986 -95 986 c 1
 -72 901 l 1
 -64 914 -54 928 -42 944 c 2
 -11 986 l 1
 59 986 76 944 76 903 c 0
 76 878 62 826 60 820 c 0
 58 810 50 798 39 784 c 1
 71 802 109 869 137 989 c 1
 196 989 l 1
 174 889 111 711 -48 711 c 1
-222 837 m 256
 -256 837 -273 805 -273 783 c 0
 -273 764 -257 752 -238 752 c 256
 -209 752 -186 777 -186 802 c 0
 -186 823 -201 837 -222 837 c 256
EndSplineSet
Substitution2: "Single Substitution lookup 20 subtable" uni0E4A.alt3
Substitution2: "Single Substitution lookup 21 subtable" uni0E4A
Substitution2: "Single Substitution lookup 22 subtable" uni0E4A.alt1
Substitution2: "Single Substitution lookup 20 subtable" uni0E4A.alt3
Substitution2: "Single Substitution lookup 21 subtable" uni0E4A
Substitution2: "Single Substitution lookup 22 subtable" uni0E4A.alt1
EndChar
StartChar: uni0E4B.alt2
Encoding: 63245 63245 353
Width: 0
VWidth: 1507
Flags: MW
HStem: 835 88<-176 -89 27 115 -196 134 -176 -176>
Fore
134 923 m 1
 115 835 l 1
 8 835 l 1
 -15 719 l 1
 -113 719 l 1
 -89 835 l 1
 -196 835 l 1
 -176 923 l 1
 -69 923 l 1
 -45 1036 l 1
 51 1036 l 1
 27 923 l 1
 134 923 l 1
EndSplineSet
Substitution2: "Single Substitution lookup 20 subtable" uni0E4B.alt3
Substitution2: "Single Substitution lookup 21 subtable" uni0E4B
Substitution2: "Single Substitution lookup 22 subtable" uni0E4B.alt1
Substitution2: "Single Substitution lookup 20 subtable" uni0E4B.alt3
Substitution2: "Single Substitution lookup 21 subtable" uni0E4B
Substitution2: "Single Substitution lookup 22 subtable" uni0E4B.alt1
EndChar
StartChar: uni0E4C.alt2
Encoding: 63246 63246 354
Width: 0
VWidth: 1507
Flags: W
HStem: 731 53<-92.4575 -8.42777> 868 76<80 173.024> 892 52<-78.2262 7.23315>
VStem: -166 68<789.792 872.325> 12 68<804.101 867.234>
Fore
110 944 m 2xd8
 156 944 220 988 238 1048 c 1
 335 1048 l 1
 328 1021 314 982 247 926 c 0
 204 887 152 868 93 868 c 2
 80 868 l 1xd8
 80 802 22 731 -65 731 c 0
 -132 731 -166 779 -166 819 c 0
 -166 885 -89 944 -20 944 c 2xb8
 110 944 l 2xd8
-32 892 m 256xb8
 -73 892 -98 854 -98 823 c 0
 -98 800 -78 784 -54 784 c 256
 -19 784 12 819 12 849 c 0
 12 874 -5 892 -32 892 c 256xb8
EndSplineSet
Substitution2: "Single Substitution lookup 20 subtable" uni0E4C.alt3
Substitution2: "Single Substitution lookup 21 subtable" uni0E4C
Substitution2: "Single Substitution lookup 22 subtable" uni0E4C.alt1
Substitution2: "Single Substitution lookup 20 subtable" uni0E4C.alt3
Substitution2: "Single Substitution lookup 21 subtable" uni0E4C
Substitution2: "Single Substitution lookup 22 subtable" uni0E4C.alt1
EndChar
StartChar: uni0E0D.alt1
Encoding: 63247 63247 355
Width: 927
VWidth: 1507
Flags: W
HStem: 0 53<198.442 284.833> 0 98<585 727.237> 161 52<262 297.918> 531 83<331.733 536.085>
VStem: 175 110<303.69 325.023 325.023 329.477 327.25 376.104> 305 66<72.9721 154.988> 549 111<435.594 461 461 465.5 463.25 519.602> 858 111<177.01 614>
Fore
122 390 m 1xbf
 158 510 291 614 424 614 c 2
 517 614 l 2
 584 614 663 564 663 479 c 0
 663 470 662 461 660 452 c 2
 585 98 l 1
 684 98 l 2
 720 102 756 141 766 179 c 2
 858 614 l 1
 969 614 l 1
 874 164 l 2
 854 76 762 0 665 0 c 2
 546 0 l 2x7f
 495 0 469 35 469 70 c 2
 469 77 l 1
 549 452 l 2
 550 458 551 464 551 470 c 0
 551 503 528 531 499 531 c 2
 401 531 l 2
 343 531 273 475 243 431 c 1
 272 415 287 384 287 341 c 0
 287 333 287 325 285 318 c 2
 262 213 l 1
 271 213 l 2
 332 213 371 159 371 123 c 0
 371 65 301 0 228 0 c 0
 181 0 122 32 125 87 c 1
 175 320 l 2
 176 324 176 327 176 330 c 0
 176 361 153 387 122 390 c 1xbf
261 161 m 256
 222 161 194 128 194 93 c 0
 194 69 214 53 238 53 c 256xbf
 278 53 305 91 305 119 c 0
 305 144 286 161 261 161 c 256
EndSplineSet
EndChar
StartChar: uni0E38.alt1
Encoding: 63256 63256 364
Width: 0
VWidth: 1507
Flags: W
HStem: -219 37<-267.666 -221.215> -92 35<-259.017 -184.279>
VStem: -318 46<-170.352 -104.779> -181 52<-153.614 -103.385>
Fore
-210 -57 m 0
 -168 -57 -129 -83 -129 -122 c 0
 -129 -127 -130 -132 -131 -137 c 2
 -166 -300 l 1
 -238 -300 l 1
 -220 -216 l 1
 -243 -219 l 2
 -286 -219 -318 -185 -318 -151 c 0
 -318 -109 -269 -57 -210 -57 c 0
-216 -92 m 0
 -244 -92 -272 -118 -272 -145 c 0
 -272 -160 -264 -182 -235 -182 c 0
 -208 -182 -181 -158 -181 -127 c 0
 -181 -115 -188 -92 -216 -92 c 0
EndSplineSet
EndChar
StartChar: uni0E39.alt1
Encoding: 63257 63257 365
Width: 0
VWidth: 1507
Flags: W
HStem: -300 60<-279 -229> -222 37<-395.653 -347.527> -95 35<-385.724 -311.489>
VStem: -445 46<-182.728 -107.766> -308 52<-151.63 -97.8581>
Fore
-336 -60 m 0
 -296 -60 -256 -86 -256 -124 c 0
 -256 -129 -257 -135 -258 -140 c 2
 -279 -240 l 1
 -229 -240 l 1
 -191 -59 l 1
 -116 -59 l 1
 -154 -240 l 2
 -167 -298 -219 -300 -243 -300 c 2
 -365 -300 l 1
 -347 -219 l 1
 -371 -222 l 2
 -419 -222 -445 -184 -445 -157 c 0
 -445 -115 -400 -60 -336 -60 c 0
-344 -95 m 0
 -372 -95 -399 -120 -399 -150 c 0
 -399 -171 -385 -185 -363 -185 c 0
 -335 -185 -308 -157 -308 -132 c 0
 -308 -113 -321 -95 -344 -95 c 0
EndSplineSet
EndChar
StartChar: uni0E0E.alt1
Encoding: 63259 63259 367
Width: 666
VWidth: 1507
Flags: W
HStem: -140 56<86.9207 172.888> 2 70<249 348.378> 24 48<102.852 188.502> 90 53<142.556 228.284> 252 51<156 222> 531 83<349.621 552.805>
VStem: 21 61<-77.7206 3.31858> 74 62<149.4 230.926> 193 57<-64.1915 1.5806> 565 110<435.585 461.523 461.523 465.5 463.512 519.479>
Fore
137 393 m 1xddc0
 176 517 311 614 440 614 c 2
 534 614 l 2
 600 614 678 563 678 479 c 0
 678 470 677 461 675 452 c 2
 604 119 l 1
 512 -8 414 -40 390 -48 c 1
 355 -29 343 2 249 2 c 1xddc0
 250 -1 250 -4 250 -8 c 0
 250 -70 189 -140 119 -140 c 0
 63 -140 21 -97 21 -52 c 0
 21 12 94 72 164 72 c 2xbec0
 265 72 l 2
 306 72 381 51 402 39 c 1
 449 70 465 73 493 107 c 1
 565 452 l 2
 567 459 568 465 568 471 c 0
 568 500 547 531 516 531 c 2
 418 531 l 2
 373 531 288 483 255 437 c 1
 311 430 337 371 337 333 c 0
 337 328 337 324 336 320 c 2
 309 191 l 2
 294 134 224 90 169 90 c 0
 103 90 74 142 74 180 c 0
 74 241 148 303 216 303 c 2
 222 303 l 1
 223 318 l 2
 229 352 173 391 137 393 c 1xddc0
203 252 m 256
 167 252 136 216 136 187 c 0
 136 163 153 143 181 143 c 256
 218 143 248 178 248 211 c 0
 248 234 229 252 203 252 c 256
149 24 m 256xbec0
 114 24 82 -10 82 -42 c 0
 82 -66 100 -84 127 -84 c 256
 164 -84 193 -50 193 -16 c 0
 193 6 175 24 149 24 c 256xbec0
EndSplineSet
EndChar
StartChar: uni0E0F.alt1
Encoding: 63260 63260 368
Width: 664
VWidth: 1507
Flags: W
HStem: -143 54<83.5 167.897> -20 20G<242 243.5> 20 60<98.3958 182.525> 90 53<141.107 226.83> 252 51<156.586 220> 531 83<349.621 552.805>
VStem: 12 66<-83.3872 0.0556126> 72 63<149.084 231.767> 189 55<-69.2982 -0.443724> 565 110<435.521 461.523 461.523 465.5 463.512 519.479>
Fore
137 393 m 1xfdc0
 176 517 311 614 440 614 c 2
 534 614 l 2
 600 614 678 563 678 479 c 0
 678 470 677 461 675 452 c 2
 607 130 l 2
 598 90 581 44 495 -10 c 2
 427 -53 l 1
 398 81 l 1
 390 72 384 65 380 58 c 2
 356 20 l 2
 332 -17 316 -39 304 -51 c 1
 310 -34 246 -5 241 0 c 1
 243 -6 244 -13 244 -20 c 0
 244 -62 193 -143 112 -143 c 0
 41 -143 12 -90 12 -54 c 0xfec0
 12 15 98 80 163 80 c 0
 218 80 290 70 311 39 c 1
 427 216 l 1
 463 39 l 1
 476 54 488 86 493 113 c 2
 565 452 l 2
 567 459 568 465 568 471 c 0
 568 500 547 531 516 531 c 2
 418 531 l 2
 373 531 288 483 255 437 c 1
 311 430 337 371 337 333 c 0
 337 328 337 324 336 320 c 2
 308 191 l 2
 293 133 223 90 167 90 c 0
 95 90 72 148 72 178 c 0
 72 246 152 303 214 303 c 2
 220 303 l 1
 223 318 l 2
 229 352 173 391 137 393 c 1xfdc0
202 252 m 256
 163 252 135 214 135 185 c 0xfdc0
 135 161 153 143 179 143 c 256
 217 143 246 177 246 211 c 0
 246 234 228 252 202 252 c 256
145 20 m 256
 105 20 78 -17 78 -49 c 0xfec0
 78 -71 96 -89 122 -89 c 256
 161 -89 189 -51 189 -23 c 0
 189 -3 175 20 145 20 c 256
EndSplineSet
EndChar
StartChar: uni0E2C.alt1
Encoding: 63261 63261 369
Width: 771
VWidth: 1507
Flags: W
HStem: -6 21G<257.5 298.695 542 593> 405 50<206.496 251.282> 469 53<624.013 688.078> 564 50<222.332 307.694> 630 50<637.021 723.494>
VStem: 144 57<460.756 543.854> 313 65<494.273 558.326> 553 65<536.519 611.271>
Fore
701 680 m 0
 749 680 798 641 800 606 c 1
 822 631 l 2
 830 642 838 651 844 660 c 1
 918 660 l 1
 883 608 844 557 797 519 c 1
 721 161 l 2
 706 92 640 11 546 -6 c 1
 487 289 l 1
 285 -6 l 1
 230 -6 179 23 179 62 c 0
 179 67 180 72 181 77 c 2
 252 407 l 1
 243 405 l 1
 182 405 144 448 144 490 c 0
 144 558 221 614 283 614 c 0
 338 614 378 573 378 528 c 0
 378 523 378 518 377 513 c 2
 289 99 l 1
 293 114 304 157 315 170 c 2
 503 442 l 1
 556 437 559 396 559 392 c 1
 615 170 l 2
 618 158 614 122 610 103 c 1
 689 470 l 1
 686 469 680 469 672 469 c 2
 654 469 l 2
 584 469 553 516 553 554 c 0
 553 623 633 680 701 680 c 0
268 564 m 256
 233 564 201 530 201 498 c 0
 201 474 219 455 246 455 c 256
 284 455 313 493 313 523 c 0
 313 546 294 564 268 564 c 256
684 630 m 256
 648 630 618 597 618 562 c 0
 618 548 627 522 662 522 c 256
 699 522 729 558 729 588 c 0
 729 613 709 630 684 630 c 256
EndSplineSet
EndChar
StartChar: uni0E24.liga
Encoding: 63617 63617 371
Width: 999
VWidth: 1507
Flags: W
HStem: 0 53<210.442 298.477> 161 52<274 309.918> 523 91<746.381 901.189> 531 83<343.733 549.355>
VStem: 187 110<303.69 325.023 325.023 329.477 327.25 376.104> 318 65<72.2149 154.627> 910 114<435.573 461.523 461.523 467 464.262 510.637>
Fore
563 469 m 0xee
 563 498 542 531 510 531 c 2
 415 531 l 2
 351 531 282 471 255 431 c 1
 284 415 299 384 299 341 c 0
 299 333 299 325 297 318 c 2
 274 213 l 1
 283 213 l 2
 344 213 383 159 383 123 c 0
 383 66 316 0 240 0 c 0
 193 0 134 32 137 87 c 1
 187 320 l 2
 188 324 188 327 188 330 c 0
 188 361 165 387 134 390 c 1
 170 510 303 614 436 614 c 2
 529 614 l 2xde
 585 614 629 583 653 547 c 1
 712 592 780 612 835 614 c 2
 883 614 l 2
 962 614 1027 561 1027 482 c 0
 1027 472 1026 462 1024 452 c 2
 874 -252 l 1
 761 -252 l 1
 910 452 l 2
 912 459 913 465 913 471 c 0
 913 502 884 519 864 523 c 1
 812 523 l 2
 751 518 694 470 666 430 c 1
 523 -246 l 1
 413 -246 l 1
 561 452 l 2
 562 458 563 464 563 469 c 0xee
273 161 m 256
 233 161 206 124 206 93 c 0
 206 69 226 53 250 53 c 256
 288 53 318 87 318 117 c 0
 318 141 300 161 273 161 c 256
EndSplineSet
LCarets2: 1 0 
Ligature2: "'liga' Standard Ligatures in Latin lookup 19 subtable" uni0E24 uni0E45
Ligature2: "'liga' Standard Ligatures in Latin lookup 19 subtable" uni0E24 uni0E32
EndChar
StartChar: uni0E26.liga
Encoding: 63618 63618 372
Width: 999
VWidth: 1507
Flags: W
HStem: 0 53<116.215 203.576> 161 52<132.694 196> 523 91<745.5 901.235> 531 83<346.698 548.711>
VStem: 48 63<58.848 141.893> 910 114<435.573 462 462 467 464.5 511.575>
Fore
133 393 m 1xdc
 174 521 309 614 436 614 c 2
 528 614 l 2xdc
 585 614 628 583 653 547 c 1
 712 592 780 612 835 614 c 2
 883 614 l 2
 962 614 1027 561 1027 482 c 0
 1027 472 1026 462 1024 452 c 2
 874 -252 l 1
 761 -252 l 1
 910 452 l 2
 912 459 913 465 913 472 c 0
 913 502 889 520 862 523 c 2
 814 523 l 2xec
 754 521 692 470 665 428 c 1
 522 -246 l 1
 412 -246 l 1
 559 452 l 2
 561 459 562 465 562 471 c 0
 562 500 541 531 510 531 c 2
 413 531 l 2
 368 531 283 483 250 437 c 1
 312 429 333 364 333 332 c 0
 333 328 333 324 332 320 c 2
 285 101 l 2
 272 51 208 0 145 0 c 0
 72 0 48 57 48 88 c 0
 48 162 135 213 190 213 c 2
 196 213 l 1
 219 318 l 2
 222 352 170 391 133 393 c 1xdc
178 161 m 256
 138 161 111 124 111 93 c 0
 111 69 131 53 155 53 c 256
 193 53 223 87 223 117 c 0
 223 141 205 161 178 161 c 256
EndSplineSet
LCarets2: 1 0 
Ligature2: "'liga' Standard Ligatures in Latin lookup 19 subtable" uni0E26 uni0E45
Ligature2: "'liga' Standard Ligatures in Latin lookup 19 subtable" uni0E26 uni0E32
EndChar
StartChar: fi
Encoding: 64257 64257 373
Width: 601
VWidth: 1507
Flags: W
HStem: 0 21G<122 236.204 404 517.197> 452 77<133 217 344 499> 639 91<425.953 506>
Fore
217 452 m 1
 116 452 l 1
 133 529 l 1
 234 529 l 1
 264 634 388 730 525 730 c 1
 506 639 l 1
 425 639 363 581 344 529 c 1
 624 529 l 1
 513 0 l 1
 404 0 l 1
 499 452 l 1
 327 452 l 1
 232 0 l 1
 122 0 l 1
 217 452 l 1
EndSplineSet
LCarets2: 1 0 
Ligature2: "'liga' Standard Ligatures in Latin lookup 19 subtable" f i
EndChar
StartChar: fl
Encoding: 64258 64258 374
Width: 616
VWidth: 1507
Flags: W
HStem: 0 21G<122 236.204 422 535.192> 452 77<133 217 344 517> 639 91<425.953 506>
Fore
517 452 m 1
 327 452 l 1
 232 0 l 1
 122 0 l 1
 217 452 l 1
 116 452 l 1
 133 529 l 1
 234 529 l 1
 264 634 388 730 525 730 c 1
 506 639 l 1
 425 639 363 581 344 529 c 1
 534 529 l 1
 576 730 l 1
 684 730 l 1
 531 0 l 1
 422 0 l 1
 517 452 l 1
EndSplineSet
LCarets2: 1 0 
Ligature2: "'liga' Standard Ligatures in Latin lookup 19 subtable" f l
EndChar
StartChar: PITA
Encoding: 65542 -1 375
Width: 1502
VWidth: 1507
Flags: W
HStem: 270 45<151 1465> 485 61<1212 1366> 570 62<285 504.605> 713 24<1524.33 1634.93> 758 59<311 521.553 811 936 1021 1158 1616 1625.89> 764 24<1566.89 1613.52> 871 23<1572.52 1624> 918 24<1553 1663.67>
VStem: 530 85<656.074 739.602> 1471 34<755.551 868.785> 1529 33<790.851 806.692 804.477 808.906> 1616 33<784.582 816> 1623 34<850 854 854 855.023 854.512 869.081> 1683 34<785.677 898.815>
Fore
151 315 m 1xf3e4
 1474 315 l 1
 1465 270 l 1
 142 270 l 1
 151 315 l 1xf3e4
615 719 m 0
 615 634 529 570 448 570 c 2
 271 570 l 1
 228 366 l 1
 143 366 l 1
 240 817 l 1
 500 817 l 2xfbe4
 581 817 615 764 615 719 c 0
530 709 m 0
 530 724 521 758 487 758 c 2
 311 758 l 1
 285 632 l 1
 461 632 l 2
 499 632 530 673 530 709 c 0
684 817 m 1
 769 817 l 1
 672 366 l 1
 588 366 l 1
 684 817 l 1
936 758 m 1
 797 758 l 1
 811 817 l 1
 1171 817 l 1
 1158 758 l 1
 1021 758 l 1
 938 366 l 1
 853 366 l 1
 936 758 l 1
1308 819 m 1
 1349 819 1388 808 1397 778 c 2
 1501 366 l 1
 1409 366 l 1
 1382 485 l 1
 1173 485 l 1
 1093 366 l 1
 1004 366 l 1
 1308 819 l 1
1212 546 m 1
 1366 546 l 1
 1325 711 l 1
 1212 546 l 1
1471 804 m 0
 1471 871 1537 942 1617 942 c 0
 1684 942 1717 895 1717 851 c 0
 1717 789 1654 713 1569 713 c 0
 1507 713 1471 756 1471 804 c 0
1683 846 m 0
 1683 880 1659 918 1613 918 c 0
 1552 918 1505 857 1505 809 c 0
 1505 771 1531 737 1574 737 c 0
 1630 737 1683 792 1683 846 c 0
1619 894 m 2
 1642 894 1658 882 1658 860 c 0
 1658 857 1658 854 1657 850 c 1
 1623 850 l 1xf7ec
 1624 853 1624 855 1624 858 c 0
 1624 862 1622 871 1613 871 c 2
 1598 871 l 2
 1586 871 1573 857 1569 840 c 2
 1563 809 l 1
 1562 807 1562 805 1562 803 c 0
 1562 797 1567 788 1574 788 c 2
 1587 788 l 2
 1603 788 1613 797 1616 816 c 1
 1649 816 l 1
 1644 790 1618 764 1581 764 c 2
 1568 764 l 2xf7f4
 1544 764 1529 781 1529 801 c 0
 1529 803 1530 805 1530 808 c 1
 1538 841 l 2
 1543 873 1574 894 1604 894 c 2
 1619 894 l 2
EndSplineSet
LCarets2: 6 0 0 0 0 0 0 
Ligature2: "'liga' Standard Ligatures in Latin lookup 19 subtable" P I T A parenleft c parenright
EndChar
StartChar: franc
Encoding: 8355 8355 467
Width: 723
VWidth: 1507
Flags: W
HStem: 0 21G<178 293.297> 256 86<127 232 362 627> 378 86<152 258 387 653> 648 82<427 797>
Fore
362 342 m 1
 645 342 l 1
 627 256 l 1
 344 256 l 1
 289 0 l 1
 178 0 l 1
 232 256 l 1
 109 256 l 1
 127 342 l 1
 250 342 l 1
 258 378 l 1
 134 378 l 1
 152 464 l 1
 276 464 l 1
 332 730 l 1
 814 730 l 1
 797 648 l 1
 427 648 l 1
 387 464 l 1
 671 464 l 1
 653 378 l 1
 369 378 l 1
 362 342 l 1
EndSplineSet
EndChar
StartChar: dong
Encoding: 8363 8363 468
Width: 604
VWidth: 1507
Flags: W
HStem: -136 83<72 469> -8 83<191.574 208 208 355.834> 452 85<294.467 462.422> 577 86<399 529 659 739>
VStem: 66 112<83.9733 161.598 160.977 162.219 162.219 176 176 192.217>
Fore
439 537 m 2
 486 537 505 528 517 520 c 1
 529 577 l 1
 381 577 l 1
 399 663 l 1
 547 663 l 1
 561 730 l 1
 672 730 l 1
 659 663 l 1
 757 663 l 1
 739 577 l 1
 641 577 l 1
 517 -3 l 1
 405 -3 l 1
 415 38 l 1
 387 21 328 -8 270 -8 c 2
 208 -8 l 2
 118 -8 66 54 66 134 c 0
 66 148 68 162 71 176 c 2
 101 315 l 2
 124 431 249 537 377 537 c 2
 439 537 l 2
178 146 m 0
 178 115 187 75 226 75 c 2
 288 75 l 2
 340 75 426 127 451 208 c 2
 482 357 l 1
 482 367 l 2
 482 407 461 452 421 452 c 2
 359 452 l 2
 286 452 225 378 211 315 c 2
 181 176 l 2
 179 166 178 155 178 146 c 0
54 -136 m 1
 72 -53 l 1
 487 -53 l 1
 469 -136 l 1
 54 -136 l 1
EndSplineSet
EndChar
StartChar: Dcroat
Encoding: 272 272 475
Width: 851
VWidth: 1507
Flags: W
HStem: 0 84<252 577.323> 333 88<142 191 324 567> 654 83<374 735.439>
VStem: 785 112<474.833 491 491 504.32 504.32 509 506.66 603.397>
Fore
680 737 m 2
 823 737 897 637 897 540 c 0
 897 524 896 508 892 491 c 2
 850 297 l 2
 816 136 647 -0 473 0 c 2
 208 0 l 2
 165 0 136 30 136 64 c 0
 136 68 136 73 137 77 c 2
 191 333 l 1
 122 333 l 1
 142 421 l 1
 211 421 l 1
 277 737 l 1
 680 737 l 2
785 527 m 0
 785 599 740 654 663 654 c 2
 374 654 l 1
 324 421 l 1
 586 421 l 1
 567 333 l 1
 304 333 l 1
 252 84 l 1
 490 84 l 2
 605 84 717 185 740 297 c 2
 782 491 l 2
 784 503 785 515 785 527 c 0
EndSplineSet
EndChar
StartChar: dcroat
Encoding: 273 273 476
Width: 604
VWidth: 1507
Flags: W
HStem: -8 83<191.574 208 208 355.834> 452 85<294.467 462.422> 577 86<399 529 659 739>
VStem: 66 112<83.9733 161.598 160.977 162.219 162.219 176 176 192.217>
Fore
439 537 m 2
 486 537 505 528 517 520 c 1
 529 577 l 1
 381 577 l 1
 399 663 l 1
 547 663 l 1
 561 730 l 1
 672 730 l 1
 659 663 l 1
 757 663 l 1
 739 577 l 1
 641 577 l 1
 517 -3 l 1
 405 -3 l 1
 415 38 l 1
 387 21 328 -8 270 -8 c 2
 208 -8 l 2
 118 -8 66 54 66 134 c 0
 66 148 68 162 71 176 c 2
 101 315 l 2
 124 431 249 537 377 537 c 2
 439 537 l 2
178 146 m 0
 178 115 187 75 226 75 c 2
 288 75 l 2
 340 75 426 127 451 208 c 2
 482 357 l 1
 482 367 l 2
 482 407 461 452 421 452 c 2
 359 452 l 2
 286 452 225 378 211 315 c 2
 181 176 l 2
 179 166 178 155 178 146 c 0
EndSplineSet
EndChar
StartChar: Idotaccent
Encoding: 304 304 481
Width: 260
VWidth: 1507
Flags: MW
HStem: 0 21G<75 182.238> 735 20G<230.762 338> 812 135<266.994 363.346>
VStem: 234 161<876 888>
Fore
75 0 m 1
 235 755 l 1
 338 755 l 1
 178 0 l 1
 75 0 l 1
234 866 m 0
 234 910 282 947 327 947 c 0
 367 947 395 926 395 896 c 0
 395 856 361 812 298 812 c 0
 264 812 234 832 234 866 c 0
EndSplineSet
EndChar
StartChar: dotlessi
Encoding: 305 305 482
Width: 263
VWidth: 1507
Flags: MW
HStem: 0 21G<75 188.197> 509 20G<182.766 295>
Fore
75 0 m 1
 187 529 l 1
 295 529 l 1
 184 0 l 1
 75 0 l 1
EndSplineSet
EndChar
StartChar: Scedilla
Encoding: 350 350 483
Width: 810
VWidth: 1507
Flags: W
HStem: -184 52<359.122 396.25> -15 84<259.257 344 451 579.926> 672 83<393.214 696.583>
VStem: 85 113<129.139 231.903 229.458 234.348 234.348 247> 179 116<489.149 595.251> 263 76<-128.805 -83.4121 -84.278 -82.5461 -82.5461 -72> 415 87<-119.023 -73.4971> 703 114<178.232 313.544> 733 112<525 538.484 538.484 541.5 539.992 631.476>
Fore
817 279 m 0xeb
 817 87 624 -15 466 -15 c 2
 451 -15 l 1
 459 -26 502 -46 502 -87 c 0
 502 -100 495 -146 451 -166 c 0
 425 -178 396 -184 363 -184 c 2
 350 -184 l 2
 280 -175 263 -139 263 -104 c 0
 263 -93 265 -82 267 -72 c 1
 341 -72 l 1
 339 -80 339 -87 339 -93 c 0
 339 -128 366 -132 376 -132 c 0
 394 -132 415 -125 415 -102 c 0
 415 -64 340 -68 344 -15 c 1
 309 -15 l 2
 188 -15 85 62 85 190 c 0
 85 208 87 227 91 247 c 1
 202 247 l 1
 199 234 198 222 198 210 c 0
 198 135 246 69 327 69 c 2
 484 69 l 2
 591 69 703 150 703 251 c 0xf7
 703 299 677 334 628 344 c 2
 325 380 l 2
 203 399 179 457 179 505 c 0
 179 686 389 755 492 755 c 2
 650 755 l 2
 765 755 850 684 850 574 c 0
 850 559 849 542 845 525 c 1
 733 525 l 1xea80
 735 536 736 547 736 558 c 0
 736 618 702 672 633 672 c 2
 475 672 l 2
 425 672 295 627 295 535 c 0
 295 486 339 476 362 472 c 2
 660 433 l 2
 789 415 817 343 817 279 c 0xeb
EndSplineSet
EndChar
StartChar: scedilla
Encoding: 351 351 484
Width: 607
VWidth: 1507
Flags: W
HStem: -184 52<261.122 298.25> 5 82<211.327 250 346 422.434> 464 85<307.78 524.852>
VStem: 82 111<102.244 172.273 171.977 172.57 172.57 185> 150 114<344.007 423.985> 165 76<-128.805 -83.4121 -84.278 -82.5461 -82.5461 -72> 317 87<-118.856 -73.3779> 517 111<130.354 224.956> 544 110<366 377.023 377.023 378.43 377.727 445.068>
Fore
278 -132 m 0xe7
 296 -132 317 -125 317 -101 c 0
 317 -64 247 -71 247 -18 c 0
 247 -12 248 -5 250 3 c 1
 250 5 l 1
 239 5 l 2
 136 5 82 70 82 148 c 0
 82 160 83 173 86 185 c 1
 196 185 l 1
 194 176 193 167 193 159 c 0
 193 118 216 87 256 87 c 2
 401 87 l 2
 419 87 517 106 517 187 c 0xf3
 517 225 490 228 477 229 c 2
 264 255 l 2
 171 267 150 310 150 352 c 0
 150 471 277 549 394 549 c 2
 500 549 l 2
 611 549 658 478 658 403 c 0
 658 391 657 378 654 366 c 1
 544 366 l 1
 546 374 546 381 546 388 c 0
 546 431 520 464 482 464 c 2
 376 464 l 2
 332 464 264 429 264 378 c 0xea80
 264 346 294 340 304 338 c 2
 411 325 l 2
 503 313 547 318 585 288 c 0
 604 273 628 250 628 202 c 0
 628 84 510 5 384 5 c 2
 346 5 l 1
 348 -14 356 -18 366 -26 c 0
 392 -46 404 -65 404 -86 c 0
 404 -100 397 -146 353 -166 c 0
 327 -178 298 -184 265 -184 c 2
 252 -184 l 2
 182 -175 165 -139 165 -104 c 0
 165 -93 167 -82 169 -72 c 1
 243 -72 l 1
 241 -80 241 -87 241 -93 c 0
 241 -128 268 -132 278 -132 c 0xe7
EndSplineSet
EndChar
